<?xml version="1.0" standalone="no"?>
<!DOCTYPE svg PUBLIC "-//W3C//DTD SVG 20010904//EN"
 "http://www.w3.org/TR/2001/REC-SVG-20010904/DTD/svg10.dtd">
<svg version="1.0" xmlns="http://www.w3.org/2000/svg"
 width="476.000000pt" height="410.000000pt" viewBox="0 0 476.000000 410.000000"
 preserveAspectRatio="xMidYMid meet">

<g transform="translate(0.000000,410.000000) scale(0.100000,-0.100000)"
fill="#000000" stroke="none">
<path d="M1855 3899 c-163 -32 -346 -179 -423 -340 -44 -91 -67 -185 -77 -322
-5 -63 -11 -85 -18 -78 -6 6 -41 11 -77 11 l-66 0 -13 178 c-22 317 -41 502
-51 522 -10 18 -22 20 -114 20 -102 0 -347 -16 -376 -25 -8 -3 -27 -24 -41
-47 -14 -24 -125 -203 -245 -398 l-220 -355 13 -85 c24 -162 45 -260 60 -271
10 -9 71 -10 241 -4 125 5 250 9 277 9 l50 1 7 -89 c5 -50 12 -94 17 -99 16
-16 352 -1 409 18 8 3 12 33 12 104 0 113 -7 105 99 116 l64 7 -6 122 -6 121
18 -55 c79 -249 301 -420 541 -420 150 0 293 62 428 185 45 41 87 75 93 75 5
0 21 -11 35 -25 l25 -25 -61 -46 c-33 -26 -80 -68 -103 -95 -32 -37 -49 -49
-70 -49 -62 0 -125 -58 -146 -135 -6 -22 -11 -70 -11 -107 0 -49 -6 -78 -21
-108 -44 -84 -38 -170 18 -252 19 -29 42 -79 49 -111 18 -75 43 -122 99 -188
l46 -54 -43 -8 c-152 -27 -289 -73 -589 -201 -130 -55 -166 -66 -212 -66 -55
0 -57 1 -76 38 -35 67 -63 86 -130 84 -72 -2 -229 -36 -288 -62 -41 -18 -58
-41 -77 -102 -3 -10 -16 -18 -28 -19 -21 -1 -21 -1 4 -10 22 -8 28 -19 34 -54
3 -24 15 -52 26 -62 22 -20 104 -32 262 -37 89 -3 104 -1 144 20 25 13 53 24
63 24 10 0 23 9 29 21 11 19 10 20 -10 9 -30 -16 -47 -7 -55 29 -10 46 9 71
54 71 42 0 53 -13 44 -52 l-6 -23 24 22 c29 26 69 37 88 24 12 -8 10 -18 -17
-61 -18 -28 -32 -53 -32 -56 0 -2 30 -4 68 -4 l67 1 41 57 41 57 84 -4 c126
-5 128 -7 79 -69 l-42 -52 78 0 77 0 52 55 c47 51 54 56 89 52 20 -2 39 -7 43
-10 3 -4 -6 -25 -21 -47 -14 -22 -26 -44 -26 -50 0 -7 26 -10 71 -8 l71 3 45
63 45 62 -130 0 -130 0 1 59 c1 37 -3 65 -10 72 -11 10 -13 -1 -13 -55 l0 -69
-72 6 c-60 4 -88 13 -153 47 -61 31 -89 41 -115 38 -35 -4 -35 -4 35 -39 l70
-34 -65 -3 c-85 -5 -270 8 -270 18 0 10 426 192 515 220 120 37 290 69 293 56
2 -7 -6 -54 -18 -104 -11 -51 -20 -105 -20 -122 0 -35 13 -37 115 -18 l63 11
32 -36 c17 -20 41 -40 53 -44 18 -6 14 -9 -23 -13 -41 -5 -48 -10 -82 -60 -21
-30 -38 -58 -38 -62 0 -5 33 -8 73 -7 l72 0 42 60 c41 57 44 59 87 59 25 0 47
-4 51 -9 3 -5 -8 -31 -25 -58 l-31 -48 73 -3 c70 -3 74 -2 93 25 44 61 80 90
122 96 25 4 61 22 89 43 l47 36 85 -17 c82 -18 85 -18 98 0 7 10 28 80 46 157
20 88 37 138 45 138 43 0 211 -99 265 -157 l28 -29 -36 0 c-48 0 -94 -48 -94
-99 0 -42 -6 -46 -81 -52 -53 -5 -59 -4 -59 13 1 17 24 88 45 138 6 14 5 17
-4 11 -21 -12 -61 -107 -61 -142 l0 -33 -177 -1 -178 0 -30 -61 c-16 -33 -31
-64 -33 -69 -4 -10 71 -12 117 -3 24 5 42 21 73 65 40 58 42 59 89 59 57 0 67
-11 41 -48 -11 -15 -24 -37 -31 -49 -12 -23 -11 -23 63 -23 l74 0 37 50 c64
88 100 89 100 3 0 -44 1 -46 40 -60 24 -8 55 -11 78 -7 24 4 43 1 52 -6 9 -8
30 -10 57 -6 24 4 66 7 93 6 70 -1 110 26 141 95 20 46 28 55 50 55 l25 0 -19
-27 c-11 -16 -32 -39 -46 -52 -14 -14 -26 -28 -26 -33 0 -9 78 -11 130 -2 29
5 43 17 83 72 l47 67 -110 5 -110 5 -18 35 c-22 44 -68 67 -172 86 -74 13 -85
18 -172 84 -51 39 -129 89 -173 111 -44 23 -79 45 -78 49 2 5 23 39 48 76 25
37 45 73 45 80 0 7 17 16 38 19 73 12 82 16 118 47 40 35 58 69 74 143 14 61
-1 115 -44 163 -30 34 -34 44 -39 118 -9 141 -68 232 -163 250 -19 3 -34 9
-34 13 0 3 41 26 92 49 150 71 237 176 259 311 11 69 -2 154 -32 213 -29 57
-134 159 -192 187 -26 13 -47 24 -47 26 0 2 40 27 90 55 49 28 92 56 96 61 11
19 37 265 30 293 -4 18 -18 32 -39 41 -28 11 -380 63 -658 96 l-96 12 -64 -43
c-99 -67 -250 -183 -309 -238 -65 -59 -63 -67 20 -134 83 -67 231 -168 247
-168 7 0 37 12 65 26 l51 26 -6 -110 c-5 -79 -3 -113 6 -125 7 -9 63 -26 141
-42 184 -38 240 -71 199 -118 -41 -46 -138 -60 -216 -33 -53 19 -74 41 -92 97
-9 27 -26 54 -37 60 -30 16 -345 7 -377 -10 -23 -13 -23 -16 -19 -115 3 -55
11 -113 18 -129 7 -15 11 -30 8 -33 -10 -9 -84 33 -118 68 l-33 32 -16 -24
c-68 -103 -150 -178 -255 -233 l-61 -32 -165 0 -165 0 -69 34 c-87 42 -190
143 -234 228 -52 100 -74 198 -75 348 -2 221 52 365 188 501 113 114 210 154
370 154 236 0 443 -156 522 -395 24 -71 27 -96 27 -225 0 -117 -4 -162 -22
-233 -25 -101 -26 -107 -11 -107 16 0 46 76 63 162 20 95 20 227 1 333 -39
219 -223 426 -426 479 -77 20 -194 27 -254 15z m-751 -61 c3 -13 12 -144 21
-293 8 -148 18 -306 21 -350 l6 -80 77 6 c42 4 78 5 81 2 7 -7 30 -287 24
-305 -4 -15 -17 -18 -73 -18 -48 0 -72 -4 -81 -15 -8 -9 -11 -45 -9 -107 l3
-93 -163 -18 c-89 -10 -169 -16 -177 -13 -11 4 -14 27 -14 100 0 81 -3 97 -17
105 -11 5 -94 4 -218 -5 -262 -17 -365 -18 -365 -1 -1 6 -11 81 -24 165 l-23
152 122 198 c67 108 175 283 241 387 l120 190 195 5 c107 3 206 7 221 8 22 2
29 -3 32 -20z m2235 -40 l373 -53 -6 -65 c-3 -36 -9 -99 -12 -141 l-7 -76
-128 -69 c-71 -38 -125 -71 -121 -75 4 -3 28 -14 55 -23 110 -41 207 -127 249
-223 28 -64 22 -197 -11 -263 -33 -63 -119 -143 -193 -179 -106 -51 -101 -52
-219 37 -87 67 -223 122 -349 142 -77 12 -218 12 -277 1 -34 -7 -45 -5 -57 8
-19 21 -53 126 -58 175 -4 50 -2 51 210 60 l162 7 0 -29 c0 -36 35 -90 78
-118 45 -31 145 -47 213 -34 42 8 61 18 87 45 37 40 40 62 11 99 -39 50 -145
88 -283 102 l-69 7 7 126 c4 69 12 131 17 136 7 7 8 4 4 -7 -10 -27 3 -22 90
28 44 25 105 60 135 77 46 27 51 33 32 35 -68 10 -183 -35 -326 -128 -51 -33
-96 -60 -101 -60 -4 0 -51 31 -104 69 -53 37 -117 81 -144 98 l-47 29 27 26
c49 46 365 288 377 288 6 0 179 -23 385 -52z m-254 -364 c-26 -20 -55 -36 -55
-30 0 5 63 46 70 46 3 -1 -4 -8 -15 -16z m-55 -670 c132 -32 301 -132 359
-213 l20 -28 -25 -34 c-34 -49 -49 -142 -35 -221 8 -46 22 -80 53 -125 24 -35
48 -63 54 -63 5 0 23 14 40 31 37 40 69 52 116 44 83 -14 111 -131 55 -227
-37 -64 -60 -78 -127 -78 l-55 0 -38 -75 c-68 -132 -191 -226 -357 -271 -51
-14 -103 -18 -240 -19 -199 0 -255 12 -403 87 -154 77 -238 192 -245 335 -4
60 1 87 27 165 19 57 37 139 46 214 22 190 48 249 155 347 149 138 367 186
600 131z m-740 -239 c0 -3 -11 -48 -25 -101 -14 -53 -25 -113 -25 -133 0 -58
-12 -67 -48 -36 -39 32 -48 77 -32 147 15 60 73 128 109 128 11 0 21 -2 21 -5z
m1231 -50 c61 -32 106 -131 93 -207 -12 -76 -12 -75 -53 -82 -22 -3 -53 -18
-70 -32 -38 -32 -49 -25 -87 53 -21 42 -27 69 -27 122 0 147 48 195 144 146z
m-1293 -308 c4 -41 -17 -59 -43 -37 -23 19 -30 4 -11 -24 19 -29 20 -47 5 -98
-12 -45 -23 -48 -43 -10 -33 66 -31 172 5 211 18 19 23 20 52 8 27 -11 33 -19
35 -50z m1077 -734 c-15 -65 -30 -121 -33 -125 -4 -4 -43 2 -87 13 -102 24
-121 24 -128 -1 -11 -42 -202 -111 -230 -83 -10 10 184 207 213 216 14 5 54
17 90 29 36 11 94 35 130 53 36 18 66 29 68 25 2 -4 -9 -61 -23 -127z m-822
80 c49 -21 95 -47 102 -58 72 -115 135 -218 135 -221 0 -13 -65 0 -106 22 -71
37 -86 52 -73 75 9 17 6 19 -28 19 -21 0 -69 -5 -107 -10 -38 -6 -71 -8 -74
-6 -4 5 9 65 39 179 5 20 13 37 16 37 3 0 47 -17 96 -37z m439 -81 c27 -7 26
-9 -64 -100 -50 -51 -92 -91 -93 -90 -45 65 -125 194 -125 202 0 6 253 -5 282
-12z m-1598 -32 c4 -5 7 -59 4 -120 -3 -104 -5 -114 -27 -131 -30 -25 -48 -21
-74 13 -16 21 -22 48 -25 113 -3 47 -8 88 -13 90 -14 9 -22 -65 -15 -145 6
-74 5 -79 -15 -85 -33 -11 -76 13 -89 48 -6 18 -14 60 -17 95 -3 34 -10 62
-14 62 -12 0 -20 -58 -17 -125 3 -61 2 -63 -40 -56 -18 3 -44 65 -44 106 -2
69 18 89 112 114 137 37 247 45 274 21z m2565 -67 c68 -23 96 -57 87 -106 -14
-76 -87 -140 -121 -106 -12 12 -12 22 0 74 18 75 19 118 3 113 -6 -2 -20 -35
-29 -74 -10 -38 -22 -81 -28 -96 -12 -32 -50 -45 -81 -28 -24 13 -24 12 -4
168 12 89 -12 60 -36 -43 -28 -123 -54 -151 -100 -105 -21 21 -21 40 1 154 15
78 17 80 144 73 66 -3 131 -13 164 -24z"/>
<path d="M692 3266 c-61 -104 -110 -191 -108 -193 5 -5 217 15 223 21 2 2 2
84 1 182 l-3 179 -113 -189z m76 -106 c-3 -31 -6 -35 -35 -38 -62 -6 -65 6
-20 82 l41 69 9 -39 c4 -21 7 -55 5 -74z"/>
<path d="M2634 2461 c-17 -10 -58 -25 -90 -31 -50 -11 -56 -14 -38 -22 42 -19
194 30 194 62 0 16 -32 12 -66 -9z"/>
<path d="M2940 2467 c0 -44 183 -123 205 -88 5 10 0 12 -71 30 -23 6 -58 25
-79 41 -41 33 -55 37 -55 17z"/>
<path d="M2569 2264 c-47 -50 -25 -174 31 -174 9 0 29 13 44 29 26 27 28 35
24 82 -4 39 -11 58 -28 71 -30 24 -42 23 -71 -8z"/>
<path d="M2986 2261 c-22 -25 -38 -80 -31 -112 8 -34 48 -72 71 -67 26 5 64
65 64 100 0 74 -64 123 -104 79z"/>
<path d="M2720 2109 c-46 -14 -89 -46 -100 -74 -5 -13 -20 -24 -37 -28 -16 -3
-52 -24 -80 -46 -54 -44 -82 -53 -126 -40 -56 16 -44 -51 21 -114 42 -41 102
-65 183 -74 50 -5 57 -8 67 -36 9 -25 15 -28 34 -23 92 28 136 28 202 -1 38
-17 39 -17 60 9 18 22 31 26 98 32 46 3 96 14 122 27 58 27 126 100 126 135 0
26 -1 26 -47 20 -51 -6 -54 -5 -157 69 -35 26 -59 35 -87 35 -35 0 -40 4 -53
34 -26 62 -142 100 -226 75z m117 -28 c32 -2 83 -49 83 -77 0 -77 -247 -86
-266 -10 -13 54 53 99 136 91 14 -2 35 -3 47 -4z m-124 -160 c56 -10 154 -4
183 12 12 7 36 20 54 30 30 18 35 18 75 3 23 -9 61 -32 83 -52 30 -25 56 -37
92 -43 28 -4 53 -10 55 -13 3 -3 -15 -24 -39 -46 -104 -96 -284 -93 -398 6
l-35 32 -19 -21 c-39 -43 -94 -63 -174 -63 -83 0 -122 15 -177 67 -43 40 -42
57 1 57 25 0 54 13 98 43 85 58 88 59 123 26 19 -18 48 -32 78 -38z"/>
<path d="M2500 2070 c0 -5 7 -10 16 -10 8 0 12 5 9 10 -3 6 -10 10 -16 10 -5
0 -9 -4 -9 -10z"/>
<path d="M3120 2070 c0 -5 5 -10 11 -10 5 0 7 5 4 10 -3 6 -8 10 -11 10 -2 0
-4 -4 -4 -10z"/>
<path d="M3558 2050 c-27 -21 -55 -76 -44 -87 3 -4 18 4 32 18 25 24 26 24 40
5 8 -11 14 -23 14 -28 0 -4 5 -8 11 -8 12 0 8 40 -6 73 -6 14 -2 20 14 24 11
3 21 9 21 14 0 17 -57 9 -82 -11z"/>
<path d="M2990 2050 c0 -5 5 -10 11 -10 5 0 7 5 4 10 -3 6 -8 10 -11 10 -2 0
-4 -4 -4 -10z"/>
<path d="M1873 3550 c-78 -47 -123 -163 -123 -317 0 -137 43 -256 109 -300 40
-27 116 -31 159 -9 71 37 116 119 133 242 22 160 -30 343 -111 385 -47 25
-125 25 -167 -1z m151 -36 c40 -29 75 -109 86 -197 25 -200 -50 -367 -164
-367 -32 0 -50 6 -70 25 -62 58 -94 200 -77 348 11 97 35 152 83 192 27 23 39
26 74 22 23 -2 53 -13 68 -23z"/>
<path d="M370 2220 l0 -160 120 0 120 0 0 30 0 30 -81 0 -80 0 3 33 3 32 68 3
c67 3 67 3 67 32 l0 30 -71 0 -70 0 3 28 c3 26 5 27 78 32 51 3 75 9 74 18 -1
6 -2 21 -2 32 -2 19 -9 20 -117 20 l-115 0 0 -160z"/>
<path d="M667 2313 c-4 -38 -7 -110 -7 -160 l0 -93 40 0 40 0 0 45 c0 59 23
71 54 29 50 -69 60 -76 99 -72 l38 3 -35 55 -35 55 31 32 c27 28 30 37 25 73
-10 75 -55 100 -178 100 l-66 0 -6 -67z m160 -15 c32 -26 -1 -68 -53 -68 -33
0 -34 1 -34 39 0 22 6 42 13 45 16 6 58 -3 74 -16z"/>
<path d="M990 2370 c-12 -7 -16 -40 -19 -160 l-3 -150 41 0 41 0 0 50 c0 43 3
50 19 50 11 0 34 -20 55 -50 33 -46 39 -50 76 -50 22 0 40 2 40 5 0 3 -15 30
-34 59 l-33 52 28 32 c53 59 28 140 -49 162 -46 12 -142 13 -162 0z m147 -72
c32 -26 -1 -68 -53 -68 -33 0 -34 1 -34 39 0 22 6 42 13 45 16 6 58 -3 74 -16z"/>
<path d="M1351 2362 c-54 -27 -75 -63 -79 -135 -2 -49 1 -69 17 -94 28 -44 88
-73 152 -73 47 0 55 3 94 43 66 65 73 152 18 218 -49 58 -135 76 -202 41z
m130 -81 c37 -37 38 -79 3 -120 -25 -30 -54 -38 -89 -25 -21 8 -45 56 -45 89
0 32 50 85 80 85 12 0 35 -13 51 -29z"/>
<path d="M1636 2343 c-3 -21 -6 -93 -6 -160 l0 -123 40 0 40 0 0 50 c0 33 4
50 13 50 6 0 32 -23 57 -51 41 -46 48 -50 83 -47 l38 3 -35 55 -35 55 24 25
c34 35 40 77 18 120 -22 44 -63 59 -159 59 l-71 1 -7 -37z m161 -45 c32 -26
-1 -68 -53 -68 -33 0 -34 1 -34 39 0 22 6 42 13 45 16 6 58 -3 74 -16z"/>
<path d="M380 1292 c0 -5 18 -37 40 -70 l40 -62 61 0 c70 0 70 -2 14 85 l-35
55 -60 0 c-33 0 -60 -4 -60 -8z"/>
<path d="M651 1233 c18 -32 37 -64 42 -70 12 -17 127 -18 127 -1 0 18 -61 108
-81 118 -10 6 -41 10 -69 10 l-51 0 32 -57z"/>
<path d="M4405 1283 c-39 -6 -51 -17 -93 -82 -42 -66 -35 -75 49 -66 l64 7 43
65 43 65 47 -7 c26 -4 50 -10 54 -14 4 -3 -6 -27 -22 -51 -17 -25 -30 -48 -30
-52 0 -5 32 -8 70 -8 l70 0 0 63 0 63 -89 12 c-87 12 -148 13 -206 5z"/>
<path d="M213 1274 c-8 -4 -13 -25 -13 -55 l0 -49 65 0 c36 0 65 4 65 9 0 5
-15 29 -33 53 -31 41 -56 53 -84 42z"/>
<path d="M2423 1223 c9 -2 25 -2 35 0 9 3 1 5 -18 5 -19 0 -27 -2 -17 -5z"/>
<path d="M1825 1187 c-49 -49 -46 -84 5 -57 19 10 47 77 36 87 -3 3 -21 -10
-41 -30z"/>
<path d="M942 1088 c-11 -14 -92 -213 -92 -228 0 -20 41 -21 66 -1 36 28 70
26 98 -4 15 -16 34 -25 55 -25 17 0 31 1 31 3 0 7 -59 174 -71 202 -26 61 -62
82 -87 53z m38 -107 c0 -5 3 -16 6 -25 4 -12 0 -16 -16 -16 -16 0 -20 4 -16
16 3 9 6 20 6 25 0 5 5 9 10 9 6 0 10 -4 10 -9z"/>
<path d="M1143 1045 c-34 -34 -35 -38 -31 -95 5 -75 29 -110 88 -129 52 -17
94 -6 98 25 3 18 -3 22 -38 27 -22 3 -47 10 -55 17 -20 16 -28 62 -16 93 9 22
17 27 45 27 47 0 66 9 66 31 0 25 -30 39 -80 39 -35 0 -48 -6 -77 -35z"/>
<path d="M1393 1063 c-87 -17 -84 -210 4 -244 15 -5 50 -9 77 -7 47 3 51 5 51
28 0 22 -5 26 -49 31 -54 6 -76 26 -76 70 0 52 8 59 66 59 53 0 54 1 54 29 0
17 -6 31 -16 35 -17 6 -75 6 -111 -1z"/>
<path d="M1560 930 l0 -131 98 3 c90 3 97 4 100 24 3 19 -4 23 -59 33 -34 6
-64 13 -68 16 -11 12 25 25 72 25 46 0 47 1 47 30 0 28 -3 30 -34 30 -19 0
-47 5 -63 11 -40 15 -12 29 60 29 57 0 57 0 57 30 l0 30 -105 0 -105 0 0 -130z"/>
<path d="M1810 1022 c-16 -17 -30 -39 -30 -49 0 -26 35 -58 93 -82 26 -11 47
-25 47 -31 0 -6 -23 -10 -54 -10 -37 0 -58 -5 -67 -16 -23 -28 14 -44 98 -44
65 0 77 3 98 25 50 49 22 104 -69 135 -58 19 -55 35 8 35 35 0 52 5 60 17 17
28 -8 42 -84 46 -66 4 -71 3 -100 -26z"/>
<path d="M2090 1039 c-41 -16 -60 -40 -60 -74 0 -40 22 -60 91 -83 30 -11 53
-23 52 -28 -2 -5 -31 -11 -65 -14 -56 -4 -63 -8 -66 -27 -4 -29 20 -35 117
-31 68 3 76 5 95 31 l21 28 -20 37 c-16 30 -32 42 -82 61 -34 13 -60 28 -57
33 3 4 29 8 58 8 84 0 102 39 28 60 -45 12 -79 12 -112 -1z"/>
<path d="M3715 1042 c-26 -6 -30 -12 -29 -40 0 -17 1 -75 2 -128 l2 -97 71 7
c85 8 129 25 157 61 42 54 21 149 -39 181 -36 18 -119 26 -164 16z m138 -93
c9 -12 17 -26 17 -31 0 -20 -59 -68 -84 -68 -25 0 -26 2 -26 58 0 32 3 62 7
66 13 13 67 -3 86 -25z"/>
<path d="M3458 1033 c-15 -4 -18 -16 -18 -66 0 -34 3 -92 7 -129 l6 -68 46 0
c25 0 70 3 99 6 49 6 52 8 52 35 0 29 -1 29 -57 29 -66 0 -98 13 -73 30 8 5
33 10 56 10 43 0 64 14 64 42 0 15 -9 18 -52 18 -54 0 -89 13 -74 27 4 4 35
10 69 13 59 5 62 6 65 33 l3 27 -88 -1 c-48 -1 -96 -3 -105 -6z"/>
<path d="M2490 895 l0 -135 70 0 c126 0 180 39 180 132 0 66 -28 104 -91 122
-29 9 -77 16 -106 16 l-53 0 0 -135z m143 53 c9 -7 20 -27 23 -45 5 -26 1 -37
-19 -57 -15 -14 -38 -26 -52 -26 -24 0 -25 2 -25 70 l0 70 28 0 c16 0 36 -6
45 -12z"/>
<path d="M3327 1023 c-4 -3 -7 -62 -7 -130 l0 -123 34 0 c30 0 35 4 41 30 4
17 3 75 0 130 l-8 100 -27 0 c-14 0 -30 -3 -33 -7z"/>
<path d="M2770 890 l0 -130 105 0 c104 0 105 0 105 24 0 29 -16 36 -81 36 -36
0 -51 4 -56 16 -8 23 14 34 70 34 40 0 47 3 47 19 0 26 -15 34 -70 41 -31 3
-45 10 -45 20 0 12 12 14 63 12 l62 -3 0 30 0 31 -100 0 -100 0 0 -130z"/>
<path d="M3020 890 l0 -130 35 0 34 0 3 66 3 66 47 -66 c47 -65 49 -66 93 -66
l45 0 0 99 c0 54 -3 113 -6 130 -6 27 -10 31 -40 31 -32 0 -34 -2 -35 -37 -1
-21 -4 -49 -8 -62 -6 -23 -8 -22 -40 27 -38 59 -56 72 -100 72 l-31 0 0 -130z"/>
<path d="M200 804 c-19 -48 -13 -84 16 -94 26 -10 71 -13 46 -3 -9 3 -4 19 18
58 l30 53 -22 6 c-50 13 -78 7 -88 -20z"/>
<path d="M4650 744 c-18 -36 -29 -68 -26 -71 3 -3 21 -2 41 1 l35 7 0 64 c0
36 -4 65 -9 65 -6 0 -24 -30 -41 -66z"/>
<path d="M424 793 c-22 -16 -74 -97 -67 -104 5 -4 37 -10 73 -14 l65 -6 33 57
c18 31 30 59 27 62 -9 9 -119 13 -131 5z"/>
<path d="M4500 785 c-8 -2 -32 -6 -52 -10 -33 -5 -40 -12 -68 -68 l-31 -62 28
-4 c37 -4 185 18 204 31 10 7 1 8 -29 4 l-42 -6 16 37 c9 21 19 48 21 61 5 22
-4 26 -47 17z"/>
<path d="M659 753 c-14 -15 -35 -42 -47 -59 -26 -38 -18 -44 62 -44 42 0 57 5
73 23 30 34 66 88 61 93 -3 2 -31 7 -64 10 -56 6 -60 4 -85 -23z"/>
<path d="M4216 749 c-57 -9 -65 -16 -101 -84 l-26 -50 33 -3 c18 -2 52 -1 76
3 42 6 44 8 73 72 16 36 29 67 29 69 0 5 -24 3 -84 -7z"/>
<path d="M913 723 c-14 -16 -32 -39 -41 -52 -14 -21 -21 -23 -64 -18 -26 3
-48 2 -48 -2 0 -9 113 -24 300 -41 148 -13 572 -31 578 -25 7 7 -18 14 -60 17
l-38 3 30 45 c43 65 40 70 -32 70 -72 0 -72 0 -116 -57 -35 -45 -78 -61 -127
-49 l-25 6 26 40 c37 55 28 70 -41 70 -54 0 -57 -1 -109 -56 -52 -53 -56 -55
-93 -48 -21 4 -40 8 -42 10 -2 2 8 22 23 45 37 56 30 69 -39 69 -48 0 -60 -4
-82 -27z"/>
<path d="M3925 723 c-11 -3 -26 -10 -33 -16 -16 -12 -72 -107 -72 -121 0 -8
120 1 147 11 12 5 73 112 73 128 0 6 -87 5 -115 -2z"/>
<path d="M1738 700 c-18 -11 -93 -109 -87 -114 2 -2 60 -6 129 -10 86 -4 120
-3 110 4 -8 5 -27 10 -42 10 -35 0 -35 5 2 60 l30 45 -28 6 c-42 10 -95 9
-114 -1z"/>
<path d="M3617 686 c-7 -8 -28 -37 -46 -65 -32 -50 -34 -51 -82 -51 -27 0 -49
2 -49 5 0 3 12 28 26 56 14 28 23 53 21 56 -3 2 -37 1 -76 -3 l-70 -7 -34 -56
-33 -56 -57 -3 c-31 -2 -57 1 -57 5 0 5 11 25 25 45 14 20 25 42 25 47 0 7
-28 11 -70 11 l-69 0 -42 -61 c-22 -33 -38 -63 -36 -66 3 -3 140 0 304 5 164
6 299 10 299 9 1 -1 3 -89 5 -196 l4 -194 -39 -13 c-94 -33 -441 -71 -735 -81
l-194 -6 6 204 c7 221 3 279 -20 279 -11 0 -6 14 16 54 17 29 31 56 31 60 0 3
-31 6 -69 6 l-69 0 -37 -55 -38 -55 -54 0 c-29 0 -53 3 -53 8 0 4 14 27 30 52
16 25 30 48 30 53 0 4 -33 7 -72 7 l-73 0 -43 -56 c-43 -55 -45 -56 -84 -51
-22 3 -42 8 -45 11 -3 3 6 25 21 50 14 24 26 47 26 50 0 3 -33 6 -72 6 l-73
-1 -42 -57 -42 -57 80 -9 79 -9 0 -206 c0 -113 4 -212 8 -219 15 -22 105 -50
223 -69 162 -26 765 -26 949 0 202 28 361 70 383 101 4 6 7 99 5 206 l-2 195
63 7 c77 9 99 16 48 17 l-37 1 25 50 c14 27 25 52 25 55 0 12 -129 4 -143 -9z
m-1137 -144 l135 -7 3 -233 2 -232 -72 5 c-208 17 -376 45 -415 71 -23 14 -23
18 -23 208 0 106 3 196 7 199 3 4 56 4 117 1 61 -3 172 -9 246 -12z"/>
<path d="M2779 638 c-12 -18 -36 -48 -53 -66 l-31 -33 90 3 89 3 33 55 c18 30
33 58 33 63 0 4 -31 7 -69 7 -67 0 -70 -1 -92 -32z"/>
<path d="M2928 543 c7 -3 16 -2 19 1 4 3 -2 6 -13 5 -11 0 -14 -3 -6 -6z"/>
<path d="M2696 365 c-20 -20 -20 -25 0 -53 21 -31 61 -29 76 4 8 18 9 30 1 42
-14 23 -57 27 -77 7z m52 -32 c-2 -10 -10 -18 -18 -18 -8 0 -16 8 -18 18 -2
12 3 17 18 17 15 0 20 -5 18 -17z"/>
</g>
</svg>
