<?xml version="1.0" standalone="no"?>
<!DOCTYPE svg PUBLIC "-//W3C//DTD SVG 20010904//EN"
 "http://www.w3.org/TR/2001/REC-SVG-20010904/DTD/svg10.dtd">
<svg version="1.0" xmlns="http://www.w3.org/2000/svg"
 width="1536.000000pt" height="1024.000000pt" viewBox="0 0 1536.000000 1024.000000"
 preserveAspectRatio="xMidYMid meet">

<g transform="translate(0.000000,1024.000000) scale(0.100000,-0.100000)"
fill="#000000" stroke="none">
<path d="M2985 9420 c-184 -30 -363 -164 -444 -333 -50 -104 -71 -193 -78
-332 -4 -60 -8 -103 -11 -95 -8 26 -25 30 -89 24 l-61 -7 -6 44 c-3 24 -10
114 -16 199 -24 387 -31 455 -48 474 -16 17 -29 18 -202 12 -102 -4 -210 -9
-240 -13 -54 -5 -56 -7 -82 -53 -15 -27 -98 -162 -184 -302 -87 -139 -184
-295 -216 -347 -39 -63 -58 -104 -58 -125 1 -71 47 -328 61 -338 14 -9 165 -6
450 8 l126 7 6 -97 c3 -54 8 -101 12 -104 9 -10 179 -3 305 11 l105 12 0 103
0 102 30 4 c17 3 52 7 79 11 27 3 52 7 54 10 7 7 7 49 -1 170 l-7 110 20 -73
c28 -104 75 -186 154 -269 311 -329 854 -159 983 307 25 91 25 329 0 420 -71
259 -280 445 -522 463 -38 3 -92 2 -120 -3z m238 -50 c177 -55 315 -212 368
-419 26 -101 28 -279 4 -376 -35 -141 -116 -270 -220 -353 -86 -68 -159 -98
-273 -112 -272 -35 -506 133 -584 417 -29 108 -29 305 0 413 68 251 225 410
445 450 70 12 184 3 260 -20z m-1005 -60 c1 -36 11 -196 22 -356 11 -161 20
-298 20 -304 0 -10 19 -11 79 -6 l79 6 6 -37 c3 -21 8 -87 11 -148 4 -60 9
-118 11 -127 5 -15 -1 -18 -34 -18 -22 0 -60 -3 -86 -6 l-47 -7 3 -103 3 -103
-45 -5 c-25 -3 -94 -11 -155 -17 -60 -5 -120 -13 -132 -16 -22 -5 -23 -2 -23
43 0 27 -3 79 -6 116 l-7 67 -56 -4 c-31 -3 -135 -9 -231 -15 -96 -6 -205 -13
-242 -16 l-68 -6 0 33 c0 18 -9 91 -21 162 -11 71 -19 137 -16 146 4 19 274
461 377 621 38 58 74 117 81 132 l12 27 127 3 c70 2 174 3 231 3 l104 0 3 -65z
m249 -707 c-3 -10 -5 -4 -5 12 0 17 2 24 5 18 2 -7 2 -21 0 -30z"/>
<path d="M2981 9073 c-79 -39 -124 -150 -125 -308 -2 -207 73 -335 194 -335
105 0 178 94 202 260 23 154 -22 322 -100 375 -44 30 -119 33 -171 8z m139
-28 c67 -35 105 -154 98 -311 -7 -150 -61 -250 -146 -269 -171 -37 -250 374
-107 561 24 31 31 34 76 34 27 0 63 -7 79 -15z"/>
<path d="M1798 8780 l-116 -190 77 7 c42 3 94 9 116 12 l40 7 0 177 c0 97 0
177 -1 177 0 0 -52 -85 -116 -190z m80 -55 l4 -85 -57 0 -56 0 32 58 c18 31
40 69 49 84 8 16 17 28 20 28 3 0 6 -38 8 -85z"/>
<path d="M4182 9419 c-171 -29 -348 -161 -435 -326 -101 -192 -107 -488 -16
-692 16 -35 29 -67 29 -71 0 -4 -15 -10 -32 -14 -71 -14 -194 -86 -262 -152
-36 -36 -66 -70 -66 -75 0 -5 -14 -9 -30 -9 -50 0 -106 -35 -136 -85 -30 -52
-43 -146 -26 -193 8 -25 7 -33 -4 -43 -52 -43 -65 -170 -26 -246 12 -23 32
-49 44 -57 17 -12 23 -28 26 -68 4 -69 48 -160 104 -220 39 -41 42 -48 24 -48
-18 0 -183 -54 -226 -73 -13 -6 -20 14 -39 115 -14 68 -29 132 -34 143 -26 51
-71 56 -212 25 -57 -13 -105 -18 -132 -14 -23 3 -57 1 -77 -6 -34 -11 -39 -10
-72 19 -19 17 -44 31 -55 31 -26 0 -69 -43 -69 -69 0 -20 -8 -24 -70 -36 -19
-4 -45 -13 -57 -21 -12 -8 -84 -26 -160 -41 -145 -28 -183 -47 -183 -93 0 -12
18 -112 41 -223 37 -185 39 -203 24 -212 -44 -26 -69 -51 -82 -82 -12 -29 -12
-38 0 -62 7 -15 12 -44 9 -64 -3 -24 2 -46 12 -62 9 -13 13 -31 10 -40 -4 -9
2 -29 15 -45 11 -16 21 -36 21 -45 0 -43 37 -74 100 -84 32 -6 35 -10 43 -51
4 -25 19 -96 33 -158 24 -102 29 -114 55 -127 15 -8 38 -15 50 -15 21 0 554
106 754 150 l85 18 2 -177 3 -176 55 -19 c30 -10 102 -27 160 -38 137 -25 574
-36 771 -19 228 20 476 65 543 98 l28 15 -4 164 -4 164 62 20 c80 27 144 83
175 152 48 110 23 308 -67 525 -80 195 -190 326 -330 394 -59 29 -82 45 -76
53 54 68 83 112 93 141 10 28 17 34 32 29 33 -10 86 6 123 38 48 43 76 101 82
173 5 70 -9 107 -58 148 -29 25 -30 28 -30 112 0 55 -6 99 -16 123 -27 66 -95
122 -147 122 -16 0 -34 12 -52 36 -15 19 -25 37 -24 38 2 2 29 16 59 32 79 42
188 154 232 239 66 128 83 202 82 355 -1 231 -52 367 -189 507 -92 93 -180
142 -300 168 -77 16 -105 17 -183 4z m245 -54 c182 -61 306 -199 370 -410 14
-47 18 -93 17 -210 0 -135 -3 -158 -27 -230 -15 -44 -45 -108 -67 -141 -51
-78 -152 -173 -220 -207 l-53 -26 -45 40 c-107 94 -280 151 -472 154 l-125 3
-32 62 c-51 101 -68 186 -68 340 0 156 21 246 83 364 43 83 145 189 218 228
119 64 289 77 421 33z m-282 -1090 c49 -15 115 -40 145 -56 62 -33 148 -104
180 -149 l21 -30 -24 -32 c-69 -94 -61 -248 18 -353 19 -25 35 -50 35 -55 0
-18 17 -10 34 15 38 58 121 82 171 49 25 -16 55 -80 55 -117 0 -51 -24 -104
-66 -146 -43 -42 -45 -43 -97 -39 l-53 4 -33 -70 c-64 -135 -189 -229 -368
-278 -105 -29 -352 -31 -458 -5 -88 22 -237 94 -291 141 -83 71 -145 196 -144
290 1 23 14 79 31 126 43 123 48 147 49 224 1 255 160 439 435 502 89 20 248
11 360 -21z m-789 -299 c-14 -41 -29 -109 -33 -150 -3 -42 -9 -76 -12 -76 -3
0 -20 9 -38 20 -23 14 -34 29 -39 55 -13 72 23 182 68 206 25 13 71 28 76 23
2 -1 -8 -36 -22 -78z m1254 12 c70 -48 94 -110 83 -215 -5 -53 -9 -63 -25 -63
-27 0 -89 -28 -114 -51 l-22 -20 -27 35 c-56 73 -72 212 -35 294 18 40 21 42
63 42 29 0 55 -8 77 -22z m-1322 -254 c16 -11 22 -25 22 -54 0 -46 -14 -58
-41 -34 -16 14 -19 15 -19 2 0 -9 7 -21 15 -28 19 -15 19 -19 -1 -86 -13 -45
-18 -53 -29 -44 -28 23 -48 97 -43 159 6 89 44 122 96 85z m-717 -425 l30 -32
56 13 c51 11 58 10 69 -5 16 -22 28 -95 18 -105 -15 -14 -368 -80 -377 -71 -5
5 -10 33 -11 62 l-1 52 50 12 c63 14 75 21 75 46 0 21 33 59 51 59 6 0 24 -14
40 -31z m458 -326 c28 -137 75 -356 102 -488 27 -132 56 -265 64 -295 8 -30
12 -56 10 -58 -2 -2 -68 -17 -147 -34 -417 -86 -665 -139 -685 -148 -27 -11
-22 -25 -73 220 -22 107 -57 278 -79 380 -22 102 -54 254 -72 337 -18 84 -30
155 -28 158 3 2 52 13 109 25 92 17 106 18 120 5 15 -14 38 -11 215 25 110 23
200 42 201 43 0 1 6 11 12 22 8 15 32 24 89 36 43 9 85 17 94 18 12 1 26 -49
68 -246z m-993 84 l0 -62 -13 44 c-9 30 -9 49 -2 62 5 11 11 19 12 19 1 0 2
-28 3 -63z m2517 1 c80 -40 167 -97 167 -109 0 -5 19 -38 42 -72 109 -161 201
-463 183 -606 -19 -157 -108 -229 -291 -239 -102 -5 -189 7 -305 44 -76 24
-91 35 -68 50 6 4 26 36 43 73 30 63 31 71 31 194 l0 127 35 0 c33 0 135 -13
208 -25 21 -4 32 -3 28 4 -8 13 -135 41 -185 41 -50 0 -51 7 -17 142 24 94 63
185 95 222 15 18 15 18 -5 8 -33 -18 -112 -185 -131 -277 -8 -44 -16 -81 -17
-82 -2 -2 -51 8 -111 22 -110 25 -151 24 -170 -2 -9 -12 -23 0 -74 56 -34 39
-56 71 -49 71 20 0 181 79 190 93 4 6 4 15 2 19 -6 9 21 4 96 -18 25 -8 59
-14 77 -14 32 0 33 1 61 93 16 50 35 117 42 147 7 30 14 61 16 68 5 16 28 10
107 -30z m-1119 5 c-29 -123 -52 -238 -48 -245 7 -11 70 -10 133 2 51 9 53 9
76 -18 13 -15 40 -37 59 -47 42 -23 46 -35 11 -35 -13 0 -35 -5 -48 -11 -19
-9 -30 -6 -66 18 -49 32 -38 45 13 14 41 -26 65 -28 45 -5 -17 20 -41 29 -101
38 -43 6 -50 4 -73 -18 -33 -33 -32 -69 1 -95 31 -24 71 -20 93 10 14 19 41
26 41 10 0 -5 -7 -11 -15 -15 -9 -3 -15 -18 -15 -39 0 -50 30 -72 94 -72 l53
0 -4 -93 c-2 -62 -8 -101 -19 -117 -14 -21 -14 -26 0 -54 9 -16 24 -34 33 -40
17 -9 18 -34 14 -338 -1 -180 -4 -329 -6 -331 -2 -2 -67 2 -146 8 -153 12
-257 30 -327 56 l-42 16 2 165 3 166 47 14 c49 14 88 52 88 85 0 11 -14 79
-31 151 -40 176 -45 241 -24 357 9 52 19 111 21 130 8 57 -11 15 -37 -80 l-23
-85 -12 50 c-7 28 -29 124 -47 214 l-35 163 52 23 c55 25 187 63 223 64 15 1
20 -4 17 -16z m976 9 c0 -12 -56 -211 -69 -243 l-10 -27 -83 24 c-46 13 -94
24 -107 24 -20 0 -22 -2 -11 -15 7 -9 11 -18 8 -20 -3 -3 -49 -27 -102 -54
-92 -45 -146 -56 -146 -29 0 6 45 59 100 118 100 107 102 108 169 125 37 9
106 36 152 59 93 47 99 50 99 38z m-831 -56 c81 -33 85 -36 115 -93 18 -32 49
-84 69 -115 20 -31 37 -60 37 -63 0 -3 -15 -5 -33 -5 -23 0 -55 14 -96 40 -53
34 -61 43 -50 56 21 26 2 28 -102 10 -56 -9 -103 -15 -105 -14 -1 2 9 54 24
116 21 92 29 112 41 108 9 -2 54 -20 100 -40z m358 -69 l100 -2 -95 -102 c-52
-56 -98 -100 -102 -98 -4 3 -27 37 -50 77 -24 40 -52 88 -63 106 l-20 34 65
-7 c36 -4 110 -8 165 -8z m-427 -224 c28 -35 21 -48 -25 -48 -49 0 -68 25 -41
54 25 28 40 26 66 -6z m419 -42 c15 -11 47 -45 70 -75 28 -36 56 -60 78 -68
l35 -13 -5 -80 c-5 -85 -18 -139 -40 -169 -11 -15 -18 -16 -34 -8 -17 10 -25
7 -47 -13 -31 -28 -60 -31 -169 -14 -91 14 -107 23 -107 57 0 23 8 32 43 49
l42 22 -37 0 c-32 1 -39 5 -44 28 -9 33 4 54 45 75 38 19 27 31 -17 19 -68
-20 -41 52 43 114 l20 14 -20 1 c-11 0 -45 -7 -75 -15 -30 -8 -74 -15 -97 -15
-41 0 -43 1 -43 29 0 37 41 64 120 80 110 22 191 16 239 -18z m-1844 -61 c3
-5 13 -10 22 -10 23 0 53 -29 53 -52 0 -34 -36 -58 -88 -58 -26 0 -53 5 -60
12 -21 21 -13 58 17 89 31 30 46 36 56 19z m105 -30 c0 -11 -2 -20 -4 -20 -2
0 -6 9 -9 20 -3 11 -1 20 4 20 5 0 9 -9 9 -20z m2059 -44 c41 -9 76 -17 78
-20 2 -2 6 -41 10 -87 6 -98 -10 -175 -56 -267 -45 -89 -48 -91 -133 -49 -40
20 -85 41 -100 46 -29 11 -38 31 -15 31 22 0 57 44 79 101 28 73 36 216 14
244 -8 11 -16 14 -16 8 0 -19 -20 -16 -20 3 0 19 26 17 159 -10z m-2052 -23
c-3 -10 -5 -4 -5 12 0 17 2 24 5 18 2 -7 2 -21 0 -30z m-18 -37 c20 -24 9 -69
-19 -83 -35 -18 -124 -17 -139 1 -7 8 -11 27 -9 42 3 25 7 28 48 30 25 2 56 7
70 13 34 13 36 13 49 -3z m1058 -68 c-3 -8 -6 -5 -6 6 -1 11 2 17 5 13 3 -3 4
-12 1 -19z m-1007 2 c0 -5 -2 -10 -4 -10 -3 0 -8 5 -11 10 -3 6 -1 10 4 10 6
0 11 -4 11 -10z m1017 -52 c-3 -7 -5 -2 -5 12 0 14 2 19 5 13 2 -7 2 -19 0
-25z m-1029 -10 c4 -33 -24 -53 -86 -63 -53 -9 -92 13 -92 50 0 23 4 25 43 26
23 0 51 4 62 9 11 5 31 8 45 7 19 -2 26 -8 28 -29z m1485 -18 c-3 -12 -8 -19
-11 -16 -5 6 5 36 12 36 2 0 2 -9 -1 -20z m-446 -12 c-3 -8 -6 -5 -6 6 -1 11
2 17 5 13 3 -3 4 -12 1 -19z m-1029 -40 c32 -32 -11 -78 -72 -78 -69 0 -116
59 -48 61 15 0 43 6 62 13 46 18 44 18 58 4z m1039 -10 c-3 -8 -6 -5 -6 6 -1
11 2 17 5 13 3 -3 4 -12 1 -19z m10 -50 c-3 -8 -6 -5 -6 6 -1 11 2 17 5 13 3
-3 4 -12 1 -19z m763 -2 c0 -3 -4 -8 -10 -11 -5 -3 -10 -1 -10 4 0 6 5 11 10
11 6 0 10 -2 10 -4z m-140 -21 c25 1 56 4 70 8 24 7 26 6 25 -20 0 -25 9 -32
85 -72 67 -35 97 -45 140 -47 30 -1 73 -9 94 -18 76 -32 200 -57 281 -58 l82
-2 7 -80 c3 -45 6 -116 6 -158 0 -69 -2 -79 -21 -89 -37 -19 -375 -68 -549
-80 -91 -5 -217 -9 -280 -7 l-115 3 3 235 c1 129 5 272 8 318 l6 83 56 -8 c32
-4 77 -8 102 -8z"/>
<path d="M4185 9070 c-80 -40 -125 -151 -125 -309 0 -208 75 -331 201 -331 68
0 122 38 158 113 40 80 54 161 48 267 -5 88 -32 176 -66 217 -52 63 -141 80
-216 43z m170 -50 c56 -55 70 -105 70 -255 -1 -114 -4 -136 -24 -183 -25 -56
-76 -108 -116 -118 -88 -22 -163 70 -185 227 -20 142 24 307 94 350 48 31 117
21 161 -21z"/>
<path d="M3698 7975 c-20 -14 -46 -25 -56 -25 -35 0 -82 -12 -82 -21 0 -13 57
-11 99 2 73 23 111 42 111 56 0 21 -32 15 -72 -12z"/>
<path d="M4025 7990 c-10 -17 13 -47 47 -59 18 -7 48 -19 66 -27 38 -16 92
-19 92 -4 0 6 -9 10 -20 10 -38 0 -131 42 -146 66 -17 26 -29 30 -39 14z"/>
<path d="M3775 7940 c-3 -5 -1 -10 4 -10 6 0 11 5 11 10 0 6 -2 10 -4 10 -3 0
-8 -4 -11 -10z"/>
<path d="M3641 7774 c-33 -42 -24 -146 14 -160 30 -12 62 5 80 42 44 93 -36
192 -94 118z"/>
<path d="M4072 7783 c-7 -3 -19 -18 -27 -33 -33 -63 -7 -150 45 -150 47 0 73
42 68 109 -6 68 -36 94 -86 74z"/>
<path d="M3773 7619 c-32 -9 -73 -51 -73 -74 0 -7 -16 -16 -34 -19 -19 -4 -54
-22 -77 -42 -61 -50 -77 -57 -125 -50 -52 7 -55 -3 -24 -65 13 -24 39 -51 67
-69 49 -31 140 -55 180 -47 20 4 26 -2 38 -30 11 -26 19 -34 32 -29 75 29 167
25 217 -9 29 -21 33 -19 47 18 12 33 13 34 59 29 110 -10 229 43 271 123 29
55 20 70 -33 53 -32 -10 -41 -8 -80 15 -25 14 -51 33 -58 42 -22 26 -86 55
-123 55 -29 0 -34 4 -42 33 -19 62 -140 96 -242 66z m142 -20 c55 -14 90 -49
81 -82 -8 -35 -64 -58 -140 -59 -101 0 -149 37 -126 98 5 13 11 24 12 24 2 0
21 7 43 15 49 17 74 18 130 4z m-193 -123 c28 -28 45 -35 90 -41 69 -9 155 8
185 37 34 31 111 21 161 -21 53 -46 118 -74 153 -67 29 6 29 5 15 -22 -35 -68
-109 -102 -226 -102 -99 0 -173 28 -211 79 l-22 30 -41 -35 c-57 -49 -129 -68
-201 -55 -71 13 -130 46 -155 87 -11 17 -20 34 -20 38 0 3 20 6 44 6 37 0 52
7 97 44 30 24 63 46 74 49 11 2 21 5 22 6 0 0 16 -14 35 -33z"/>
<path d="M3580 7590 c0 -6 7 -10 15 -10 8 0 15 2 15 4 0 2 -7 6 -15 10 -8 3
-15 1 -15 -4z"/>
<path d="M4641 7574 c-25 -18 -57 -82 -46 -93 4 -3 16 6 27 22 22 30 34 28 49
-11 9 -24 11 -25 20 -9 7 12 6 26 -4 47 -16 32 -13 40 15 40 10 0 18 5 18 10
0 16 -53 12 -79 -6z"/>
<path d="M2561 7204 l-154 -32 -18 21 c-18 22 -18 22 -19 -15 0 -47 -2 -47
170 -8 73 17 140 30 149 30 25 0 48 18 36 28 -6 5 -75 -5 -164 -24z"/>
<path d="M2704 6828 c-36 -57 -67 -104 -69 -106 -1 -1 -49 29 -105 68 -57 38
-107 70 -110 70 -11 0 -84 -134 -75 -137 6 -2 54 -32 108 -67 l98 -63 -49 -74
c-26 -41 -58 -91 -70 -111 l-23 -36 67 -40 67 -40 60 96 c33 53 65 102 71 109
8 8 37 -6 116 -57 63 -42 109 -65 115 -60 15 12 70 118 65 123 -3 2 -48 32
-100 67 -52 35 -97 64 -99 66 -2 2 26 50 63 107 36 57 66 106 66 109 0 8 -108
78 -120 78 -5 0 -39 -46 -76 -102z"/>
<path d="M3281 6863 c0 -15 4 -37 9 -48 7 -16 9 -11 9 22 1 23 -3 45 -9 48 -6
4 -10 -6 -9 -22z"/>
<path d="M4167 6186 c-7 -19 18 -40 39 -32 8 3 14 14 12 23 -4 22 -43 29 -51
9z"/>
<path d="M3786 6144 c-30 -30 -10 -74 34 -74 40 0 58 32 35 66 -18 28 -46 31
-69 8z m54 -20 c11 -12 10 -18 -3 -32 -16 -15 -18 -15 -33 0 -19 18 -12 48 9
48 8 0 20 -7 27 -16z"/>
<path d="M3780 5885 c-7 -8 -10 -25 -6 -39 13 -51 86 -40 86 13 0 40 -54 58
-80 26z m63 -17 c7 -21 -4 -38 -23 -38 -23 0 -34 16 -26 35 7 18 43 20 49 3z"/>
<path d="M7431 9415 c-110 -25 -201 -75 -289 -160 -140 -133 -203 -294 -206
-528 0 -65 -4 -105 -7 -89 -11 52 -16 54 -89 47 l-67 -7 -6 74 c-4 40 -13 174
-22 298 -21 299 -24 325 -40 346 -11 16 -26 18 -106 16 -139 -3 -383 -22 -390
-30 -3 -4 -42 -65 -86 -137 -101 -163 -238 -385 -331 -536 -40 -63 -72 -126
-72 -140 0 -54 49 -321 62 -336 14 -17 42 -17 444 3 l131 7 7 -99 c4 -54 9
-100 12 -103 11 -11 264 5 393 25 l33 5 -3 102 -4 102 68 7 c106 10 101 4 93
116 -4 53 -9 120 -11 147 -5 44 -3 40 15 -29 54 -213 214 -382 408 -435 43
-11 90 -21 104 -21 25 0 25 -1 31 -102 4 -60 19 -157 36 -231 l31 -128 -24
-37 c-12 -20 -33 -68 -46 -106 -19 -57 -22 -82 -16 -142 16 -190 123 -339 296
-411 59 -24 77 -27 196 -27 114 -1 131 -3 124 -16 -25 -50 -115 -480 -144
-695 -42 -305 -41 -391 5 -415 30 -17 352 -96 459 -114 264 -43 530 -42 790 5
107 19 212 50 236 70 8 7 14 31 14 58 0 40 4 49 28 63 15 9 51 38 81 65 50 44
59 48 108 48 41 1 58 7 78 25 14 13 25 29 25 37 0 7 5 13 10 13 18 0 50 39 50
61 0 12 11 34 25 51 15 18 25 42 25 61 0 18 7 41 15 51 20 27 19 69 -3 96 -18
23 -18 25 9 94 55 144 113 472 91 520 -8 18 -30 29 -98 50 -169 53 -325 138
-466 254 -64 53 -67 57 -53 76 8 12 26 42 40 68 19 36 29 45 44 41 28 -7 92
32 119 72 44 68 49 184 10 232 -7 8 -4 34 7 80 32 126 -5 237 -92 275 -24 11
-51 17 -59 14 -9 -3 -20 6 -30 27 -71 140 -243 269 -417 313 -80 20 -74 -12
-47 284 35 376 40 434 40 502 0 88 -6 92 -185 113 -77 10 -178 23 -225 30
-101 16 -75 30 -302 -163 -125 -106 -158 -139 -158 -158 0 -18 32 -61 107
-144 128 -144 138 -147 227 -74 31 25 56 41 56 37 0 -4 -12 -118 -26 -253
l-26 -245 -37 -32 c-20 -18 -52 -35 -73 -39 -96 -17 -161 -106 -171 -235 -2
-26 -13 -60 -24 -75 -11 -16 -25 -42 -31 -59 -8 -23 -11 19 -11 181 -1 211 -1
211 -27 250 l-26 38 20 61 c32 93 42 157 42 270 0 210 -53 362 -173 491 -139
150 -346 220 -526 179z m273 -46 c119 -41 208 -110 279 -217 125 -189 150
-470 61 -692 -12 -31 -22 -39 -49 -44 -20 -4 -44 -19 -59 -37 -14 -17 -26 -25
-26 -19 0 22 -49 60 -79 60 -39 0 -87 -41 -102 -88 -6 -20 -24 -50 -39 -67
-16 -16 -32 -42 -35 -57 -6 -24 -9 -26 -30 -16 -32 14 -76 -8 -95 -49 -14 -30
-19 -33 -60 -33 -170 -1 -346 120 -429 293 -126 261 -83 618 96 816 90 100
182 152 302 171 77 12 194 3 265 -21z m-994 -360 l23 -371 82 7 82 7 7 -109
c4 -59 10 -134 13 -165 l6 -58 -49 0 c-27 0 -67 -3 -88 -7 l-39 -6 6 -104 c4
-76 3 -103 -6 -103 -30 0 -314 -31 -329 -36 -16 -5 -18 3 -18 79 0 47 -3 98
-6 114 l-6 30 -76 -4 c-43 -3 -173 -11 -291 -18 -118 -8 -218 -12 -223 -9 -4
3 -8 17 -8 32 0 15 -9 89 -20 166 l-21 138 87 142 c48 77 132 213 187 301 55
88 122 195 149 237 26 43 48 82 48 88 0 9 41 11 366 18 l100 2 24 -371z m2040
321 c111 -16 206 -30 212 -30 13 0 -1 -188 -53 -702 l-12 -118 -86 0 c-96 0
-191 -19 -252 -51 -23 -11 -43 -18 -46 -15 -3 3 6 125 21 272 15 146 25 268
23 270 -2 3 -35 -21 -73 -52 -117 -96 -109 -94 -152 -43 -20 24 -70 79 -110
121 -41 42 -73 81 -71 87 2 6 78 73 169 150 134 114 171 140 197 140 17 1 122
-12 233 -29z m285 -914 c146 -47 286 -151 350 -260 l28 -47 -19 -42 c-14 -29
-19 -65 -19 -122 0 -81 8 -108 64 -203 27 -47 29 -48 40 -18 9 21 17 26 46 26
47 0 70 -35 69 -106 -2 -95 -72 -183 -135 -169 -26 6 -30 2 -55 -47 -40 -81
-51 -90 -83 -74 -24 13 -35 10 -125 -26 -151 -61 -272 -89 -411 -95 -92 -4
-135 -2 -184 11 -172 44 -335 203 -363 354 -11 59 -11 60 30 140 23 45 42 90
42 102 0 33 -56 84 -83 76 -68 -19 -67 -19 -67 4 0 24 17 61 34 72 40 27 107
-7 111 -55 1 -12 8 -22 15 -22 26 0 51 64 65 164 8 55 21 117 30 137 8 20 15
49 15 64 0 52 119 125 251 155 96 22 253 14 354 -19z m-967 -52 c22 -25 22
-30 22 -271 0 -224 -2 -248 -19 -277 -11 -17 -24 -50 -31 -74 -7 -28 -18 -46
-33 -51 -25 -10 -79 -65 -96 -98 -14 -27 -15 -83 -1 -83 6 0 10 10 10 22 0 48
71 136 116 142 20 3 25 11 35 58 18 78 91 148 154 148 35 0 55 -15 55 -41 0
-9 -16 -51 -36 -92 -19 -41 -43 -115 -53 -164 -29 -140 -62 -187 -159 -234
-93 -44 -206 -52 -272 -17 -56 29 -105 93 -126 164 -45 156 -96 398 -101 480
-5 77 -2 97 15 136 22 51 55 70 79 46 8 -9 20 -58 28 -119 16 -124 35 -213 42
-205 4 3 0 54 -8 113 -23 184 -14 281 27 297 19 7 21 0 33 -109 16 -131 42
-265 52 -265 12 0 12 -3 -11 130 -11 63 -23 165 -26 225 -6 103 -5 112 16 138
21 26 53 35 76 19 26 -17 36 -62 49 -220 18 -212 24 -252 36 -252 6 0 7 51 2
138 -15 261 -10 312 35 336 33 18 60 12 90 -20z m336 -82 c3 -5 -4 -33 -15
-62 -11 -30 -25 -92 -30 -139 -12 -106 -22 -121 -58 -87 -14 14 -39 30 -55 36
-28 10 -29 12 -23 65 7 69 44 144 87 173 33 22 84 30 94 14z m1106 -215 c52
-34 74 -80 73 -152 0 -34 -6 -77 -12 -96 -10 -30 -17 -36 -59 -46 -56 -13 -62
-9 -93 60 -45 101 -24 257 35 257 13 0 38 -10 56 -23z m-1904 -579 c22 -69 36
-91 78 -133 56 -56 103 -75 183 -75 70 0 161 26 211 60 55 38 54 18 -2 -35
-106 -102 -317 -95 -406 14 -25 29 -30 32 -30 15 0 -23 51 -75 96 -98 45 -22
136 -34 192 -25 122 19 222 95 222 169 0 11 7 32 16 45 9 14 22 41 29 61 l12
36 22 -35 c33 -53 60 -143 68 -219 8 -96 27 -76 20 23 -4 62 -2 77 8 73 19 -8
28 -91 20 -188 l-7 -85 26 -7 c14 -3 42 -3 61 0 40 8 39 18 7 -139 -24 -118
-23 -470 1 -583 65 -294 214 -524 435 -673 l77 -52 -210 6 c-234 6 -343 21
-555 73 -179 44 -216 59 -224 87 -7 29 10 232 34 397 31 213 133 690 148 690
6 0 12 4 12 8 0 5 -48 7 -107 4 -128 -5 -205 8 -290 48 -129 60 -232 210 -241
353 -5 82 9 161 39 225 12 23 22 42 24 42 2 0 16 -37 31 -82z m1753 -200 c147
-135 336 -245 526 -307 90 -29 90 -29 93 -65 7 -81 -60 -395 -107 -502 l-19
-41 -49 16 -49 16 23 57 c13 32 39 120 58 195 41 168 46 213 24 213 -6 0 -66
23 -134 51 -135 55 -296 154 -387 237 l-56 52 -79 -30 c-159 -62 -313 -90
-494 -90 -60 0 -109 -3 -109 -7 0 -5 -9 -51 -19 -103 -91 -455 -19 -803 217
-1048 73 -76 174 -142 217 -142 49 0 183 37 252 70 73 33 137 76 210 137 56
47 63 50 63 29 0 -8 14 -25 31 -39 l31 -24 -54 -48 c-132 -119 -336 -214 -527
-244 l-63 -10 -62 41 c-33 23 -104 84 -156 137 -157 158 -241 328 -281 564
-36 210 -17 511 49 747 15 54 21 65 37 62 106 -14 280 -13 365 2 100 18 274
72 337 105 21 11 42 20 47 21 4 0 34 -23 65 -52z m-863 -40 c17 -13 -18 -120
-42 -129 -11 -4 -34 -8 -51 -8 l-33 -1 0 110 0 110 58 -37 c31 -20 62 -40 68
-45z m755 -83 c-18 -8 -36 -15 -40 -15 -13 1 45 29 59 29 8 0 0 -6 -19 -14z
m-146 -55 c-11 -5 -27 -9 -35 -9 -9 0 -8 4 5 9 11 5 27 9 35 9 9 0 8 -4 -5 -9z
m-58 -16 c-3 -3 -12 -4 -19 -1 -8 3 -5 6 6 6 11 1 17 -2 13 -5z m-44 -11 c-7
-2 -19 -2 -25 0 -7 3 -2 5 12 5 14 0 19 -2 13 -5z m-50 -10 c-7 -2 -21 -2 -30
0 -10 3 -4 5 12 5 17 0 24 -2 18 -5z m-142 -21 c-13 -2 -26 -12 -28 -23 -3
-10 -12 -19 -21 -19 -8 0 -20 -6 -26 -14 -6 -8 -29 -17 -51 -21 -46 -7 -76
-30 -68 -53 4 -9 2 -13 -4 -9 -13 8 -26 -82 -16 -108 4 -13 3 -16 -5 -11 -8 5
-12 -6 -14 -36 -1 -39 -2 -40 -5 -9 -4 31 14 159 38 271 l10 45 107 -4 c59 -3
96 -6 83 -9z m77 11 c-10 -2 -26 -2 -35 0 -10 3 -2 5 17 5 19 0 27 -2 18 -5z
m310 -60 c-10 -2 -28 -2 -40 0 -13 2 -5 4 17 4 22 1 32 -1 23 -4z m-93 -12
c-117 -29 -196 -119 -226 -260 -6 -29 -13 -50 -15 -48 -9 8 19 113 41 157 40
79 145 160 205 159 23 -1 22 -2 -5 -8z m152 3 c-3 -3 -12 -4 -19 -1 -8 3 -5 6
6 6 11 1 17 -2 13 -5z m53 -19 c17 -9 30 -18 30 -21 0 -4 -59 23 -69 32 -10 9
13 3 39 -11z m-15 -32 c118 -61 167 -181 134 -333 l-11 -51 -41 6 c-23 4 -43
8 -44 9 -1 0 3 21 7 46 22 111 3 179 -64 231 -43 33 -129 38 -184 10 -57 -29
-73 -55 -102 -169 -11 -42 -11 -43 -48 -36 -20 3 -40 9 -44 13 -11 11 32 154
58 193 28 40 73 73 133 95 50 19 156 11 206 -14z m300 7 c3 -5 2 -10 -4 -10
-5 0 -13 5 -16 10 -3 6 -2 10 4 10 5 0 13 -4 16 -10z m-118 -100 c7 0 17 -9
23 -20 11 -21 5 -25 -30 -21 -9 1 -11 -1 -5 -6 6 -4 11 -39 12 -78 l2 -70 -9
62 c-11 80 -41 148 -88 197 -29 31 -24 28 22 -12 33 -29 66 -52 73 -52z m158
72 c-3 -3 -11 0 -18 7 -9 10 -8 11 6 5 10 -3 15 -9 12 -12z m115 -44 c10 -6 7
-7 -10 -2 -14 3 -32 11 -40 16 -10 6 -7 7 10 2 14 -3 32 -11 40 -16z m77 -24
c-3 -3 -12 -4 -19 -1 -8 3 -5 6 6 6 11 1 17 -2 13 -5z m-1260 -236 c-2 -18 -4
-4 -4 32 0 36 2 50 4 33 2 -18 2 -48 0 -65z m253 68 c0 -2 -7 -7 -16 -10 -8
-3 -12 -2 -9 4 6 10 25 14 25 6z m190 -66 c80 -18 210 -45 289 -61 80 -16 156
-36 169 -45 23 -15 24 -20 18 -75 -3 -32 -22 -123 -41 -201 -43 -172 -59 -194
-134 -184 -92 12 -535 116 -557 131 -47 30 -47 43 -9 230 47 233 54 250 100
240 11 -2 85 -18 165 -35z m457 -7 c-3 -10 -5 -4 -5 12 0 17 2 24 5 18 2 -7 2
-21 0 -30z m23 -67 c0 -2 -9 -2 -20 1 -11 3 -20 9 -20 15 0 5 9 4 20 -2 11 -6
20 -12 20 -14z m241 -129 c-10 -9 -11 -8 -5 6 3 10 9 15 12 12 3 -3 0 -11 -7
-18z m63 -48 c39 -11 77 -28 84 -37 14 -18 16 -68 3 -76 -5 -4 -12 -25 -16
-47 -4 -23 -15 -49 -24 -58 -9 -9 -21 -32 -27 -51 -6 -21 -20 -40 -34 -47 -14
-7 -27 -23 -30 -35 -3 -13 -17 -28 -30 -35 -54 -25 -170 27 -170 76 0 32 14
33 81 2 74 -34 100 -40 106 -25 2 6 -16 16 -39 23 -24 7 -62 24 -85 37 -35 20
-43 30 -43 53 0 41 20 44 99 12 85 -35 127 -45 135 -32 4 6 -12 15 -36 22 -68
18 -164 65 -171 83 -8 21 0 43 20 50 8 4 55 -7 103 -24 86 -30 130 -37 130
-22 0 4 -46 23 -102 42 -87 30 -103 39 -106 58 -8 55 38 65 152 31z m-364
-604 c0 -32 -4 -37 -42 -54 -24 -10 -65 -23 -92 -30 -66 -16 -236 -39 -236
-32 0 3 41 16 91 28 91 22 240 85 260 110 17 19 19 17 19 -22z"/>
<path d="M7455 9072 c-88 -55 -120 -138 -120 -307 0 -99 4 -131 23 -185 26
-74 44 -100 93 -129 40 -25 107 -28 148 -7 132 69 181 359 91 541 -39 78 -68
98 -145 103 -46 2 -67 -1 -90 -16z m145 -31 c34 -24 68 -76 82 -125 19 -64 16
-251 -5 -311 -37 -108 -116 -162 -190 -131 -72 30 -117 141 -117 289 0 140 38
252 98 290 33 21 95 15 132 -12z"/>
<path d="M6290 8813 c-52 -87 -105 -173 -118 -191 l-23 -34 38 6 c21 3 75 8
121 12 l82 6 0 179 c0 98 -1 179 -3 179 -1 0 -45 -71 -97 -157z m60 -88 l0
-85 -56 0 -56 0 32 53 c17 28 38 67 47 85 9 17 20 32 25 32 4 0 8 -38 8 -85z"/>
<path d="M8654 8145 c-17 -13 -13 -14 41 -9 55 5 62 3 88 -21 15 -14 27 -30
27 -35 0 -16 37 -12 54 6 18 17 22 54 6 54 -5 0 -10 -6 -10 -14 0 -7 -7 -20
-17 -27 -14 -12 -17 -12 -21 0 -3 8 -16 25 -30 38 -30 27 -106 32 -138 8z"/>
<path d="M9015 8106 c-19 -44 45 -97 75 -61 18 22 73 19 104 -6 37 -29 46 -15
13 19 -23 22 -36 27 -78 27 -37 0 -54 -5 -63 -18 -16 -21 -32 -7 -38 33 -4 23
-5 23 -13 6z"/>
<path d="M8692 7963 c-38 -15 -57 -127 -26 -157 24 -24 50 -19 78 15 57 67 19
171 -52 142z"/>
<path d="M9050 7868 c-26 -42 -26 -109 -2 -131 47 -43 102 3 102 84 0 54 -18
79 -56 79 -17 0 -30 -10 -44 -32z"/>
<path d="M8600 7790 c0 -5 5 -10 11 -10 5 0 7 5 4 10 -3 6 -8 10 -11 10 -2 0
-4 -4 -4 -10z"/>
<path d="M8743 7770 c-18 -11 -33 -24 -33 -30 0 -5 -15 -10 -34 -10 -18 0 -58
-13 -89 -30 -59 -31 -113 -38 -149 -19 -32 17 -41 -1 -27 -57 21 -84 128 -164
220 -164 20 0 30 -6 35 -22 12 -41 22 -47 59 -37 45 13 120 -5 164 -38 l34
-26 23 27 c24 27 25 27 86 16 77 -14 140 -6 196 27 41 23 82 74 82 101 0 8
-16 12 -47 12 -44 0 -50 3 -102 59 -59 62 -87 81 -120 81 -13 0 -21 9 -26 29
-18 84 -186 134 -272 81z m152 -11 c125 -31 126 -139 1 -139 -121 0 -207 71
-148 122 34 30 76 35 147 17z m-180 -89 c20 -39 77 -67 151 -75 59 -7 100 3
145 36 27 20 64 2 131 -66 56 -56 70 -65 102 -65 44 0 45 -9 7 -48 -86 -85
-314 -59 -388 46 l-28 39 -50 -26 c-40 -21 -63 -26 -125 -26 -63 0 -83 5 -125
28 -50 28 -85 67 -105 121 -9 25 -8 28 7 21 47 -18 80 -15 138 14 81 40 120
40 140 1z"/>
<path d="M9513 7672 c-37 -11 -63 -40 -63 -69 l1 -28 18 22 c20 24 41 14 41
-20 0 -11 4 -15 11 -11 7 4 9 22 6 46 -4 28 -1 41 9 45 8 3 14 9 14 14 0 10
-5 10 -37 1z"/>
<path d="M7892 7850 c-108 -25 -249 -96 -231 -115 4 -3 33 7 65 23 59 30 167
64 237 77 21 3 35 10 32 16 -7 11 -56 10 -103 -1z"/>
<path d="M8253 7038 c-49 -94 -49 -95 -30 -80 33 28 96 152 77 152 -5 0 -27
-33 -47 -72z"/>
<path d="M8086 6342 c-10 -16 -37 -181 -43 -263 l-6 -86 35 -21 c45 -28 148
-52 226 -52 49 0 66 4 82 20 11 11 20 26 20 34 0 7 7 77 16 155 17 158 15 167
-40 176 -17 2 -86 14 -153 25 -140 23 -130 22 -137 12z m80 -21 c23 -6 86 -18
139 -26 54 -8 100 -16 102 -18 5 -6 -27 -320 -34 -327 -3 -3 -40 -4 -83 -4
-85 2 -209 33 -230 59 -10 12 -8 44 9 164 11 82 21 154 21 160 0 7 8 10 18 7
9 -3 36 -10 58 -15z"/>
<path d="M9052 6447 c-24 -26 -30 -85 -10 -105 9 -9 8 -21 -2 -53 -17 -50 -6
-73 39 -77 26 -3 33 1 41 23 6 14 10 35 10 46 0 11 14 32 32 48 39 35 42 80 8
116 -31 33 -88 34 -118 2z"/>
<path d="M12245 9420 c-229 -49 -421 -235 -480 -465 -19 -73 -36 -238 -30
-291 2 -21 2 -30 -1 -19 -13 42 -25 48 -96 42 -65 -6 -68 -5 -68 16 0 12 -5
81 -10 152 -5 72 -17 220 -25 330 -11 149 -19 203 -30 214 -17 17 -58 17 -325
1 -111 -7 -168 -14 -173 -22 -22 -35 -236 -379 -355 -573 l-135 -220 25 -167
c14 -93 32 -176 39 -185 15 -17 41 -17 445 3 l131 7 7 -94 c4 -52 12 -98 17
-104 15 -15 236 -3 388 21 l33 5 -3 102 -4 102 80 10 80 10 0 70 c0 39 -3 108
-7 155 l-6 85 17 -76 c71 -317 363 -518 661 -455 118 24 230 87 322 179 84 83
90 85 133 37 l20 -22 -25 -17 c-55 -36 -140 -112 -156 -141 -14 -22 -26 -30
-46 -30 -107 0 -176 -103 -165 -246 5 -62 3 -75 -13 -89 -19 -18 -40 -86 -40
-133 0 -45 28 -114 59 -147 21 -22 32 -47 39 -92 14 -79 42 -134 104 -199 l50
-53 -49 -6 c-149 -20 -269 -60 -564 -188 -188 -82 -199 -86 -252 -80 -53 5
-57 8 -67 38 -15 45 -54 82 -93 88 -57 8 -273 -36 -339 -69 -30 -15 -58 -61
-58 -93 0 -14 -8 -21 -27 -24 l-28 -4 26 -2 c21 -1 28 -7 33 -31 3 -16 9 -43
12 -59 5 -22 14 -31 44 -41 21 -7 53 -10 72 -7 22 4 40 1 52 -8 24 -18 87 -20
104 -3 9 9 18 9 37 0 40 -18 71 -14 103 13 18 15 42 25 61 25 21 0 34 7 42 23
11 20 11 21 -4 9 -9 -8 -26 -12 -39 -10 -19 2 -23 10 -26 46 -4 57 11 74 62
70 37 -3 41 -6 44 -31 2 -16 -2 -36 -8 -45 -7 -9 1 -2 17 16 23 25 38 32 66
32 20 0 38 -4 41 -9 3 -5 -10 -32 -29 -61 -19 -29 -35 -54 -35 -56 0 -2 29 -4
65 -4 l64 0 43 60 42 60 106 -6 c58 -4 106 -8 108 -9 1 -1 -18 -28 -43 -59
l-46 -56 78 0 78 0 42 55 c43 55 43 55 98 55 30 0 55 -4 55 -8 0 -5 -13 -27
-28 -48 -49 -67 -50 -64 30 -64 l73 1 47 64 47 65 -131 0 -131 0 6 53 c4 38 1
58 -10 72 -14 18 -15 16 -9 -26 4 -26 4 -57 1 -70 -6 -23 -8 -24 -83 -19 -59
4 -85 10 -109 28 -49 35 -115 62 -153 62 -43 0 -32 -10 43 -41 98 -39 90 -45
-56 -41 -73 2 -157 7 -187 11 l-55 8 55 25 c137 64 383 168 465 196 84 29 312
78 320 70 2 -2 -7 -51 -20 -108 -14 -58 -25 -118 -25 -133 l0 -29 53 7 c28 4
68 11 87 16 44 11 63 11 56 1 -9 -14 23 -51 62 -72 l37 -19 -50 -1 c-50 -1
-50 -1 -85 -58 -19 -31 -36 -60 -38 -64 -2 -5 28 -8 67 -8 l70 0 42 60 42 60
58 0 c33 0 59 -3 59 -6 0 -3 -13 -24 -28 -47 -16 -23 -32 -48 -36 -54 -5 -10
10 -13 66 -13 l73 1 42 59 c38 54 47 60 78 60 36 0 128 49 143 76 7 13 19 13
89 -5 45 -12 88 -21 96 -21 15 0 33 56 68 220 11 52 22 96 23 98 2 2 32 -9 67
-23 75 -30 147 -76 209 -134 l45 -42 -30 4 c-67 11 -115 -36 -115 -113 0 -23
-5 -29 -31 -34 -17 -3 -50 -6 -72 -6 l-40 0 5 38 c5 31 18 69 46 126 3 5 -1 5
-8 1 -20 -12 -60 -107 -60 -142 l0 -33 -192 -1 c-106 0 -185 -4 -175 -7 16 -7
14 -13 -18 -62 -19 -30 -35 -59 -35 -64 0 -14 144 2 155 18 6 8 25 34 42 60
l33 46 60 0 c33 0 60 -3 60 -6 0 -3 -13 -24 -28 -47 -16 -23 -32 -48 -36 -54
-5 -10 10 -13 66 -13 l74 0 42 60 c36 50 48 60 72 60 29 0 29 0 27 -53 l-3
-54 43 -17 c34 -14 49 -16 74 -7 25 8 36 8 52 -4 28 -19 71 -19 101 1 16 10
26 12 31 5 10 -18 65 -12 102 10 34 21 55 53 67 102 4 18 13 27 25 27 11 0 27
3 37 7 23 8 -42 -84 -68 -98 -10 -5 -18 -14 -18 -20 0 -12 163 -1 168 11 1 4
23 35 48 69 l46 63 -59 -3 c-32 -1 -84 -2 -115 -1 -54 2 -57 3 -63 31 -3 16
-14 36 -24 45 -25 23 -94 45 -166 52 -56 6 -70 12 -117 51 -103 86 -203 147
-291 177 -15 5 -11 14 27 66 25 34 51 76 58 95 11 33 15 35 56 35 92 0 159 70
182 189 12 65 -3 116 -48 161 -36 34 -36 37 -37 115 -1 140 -63 231 -167 250
-21 4 -38 10 -38 14 0 4 30 20 66 35 193 79 297 213 297 381 0 106 -30 175
-112 255 -37 38 -89 77 -120 91 l-53 25 93 53 c52 29 98 56 102 61 5 4 16 74
24 155 21 191 33 178 -198 210 -332 46 -554 75 -579 75 -25 0 -325 -222 -399
-295 -30 -30 -33 -37 -24 -57 12 -27 288 -228 313 -228 9 0 38 14 64 31 27 16
50 29 52 27 1 -2 -1 -55 -6 -118 -6 -85 -5 -118 3 -127 7 -6 67 -21 134 -32
206 -34 273 -88 184 -148 -27 -18 -48 -23 -102 -23 -110 0 -166 34 -189 116
-7 25 -21 49 -32 55 -38 21 -357 10 -385 -13 -21 -17 -17 -168 6 -228 18 -47
18 -50 2 -50 -22 0 -109 57 -124 82 -17 26 -22 23 -50 -24 -55 -93 -184 -198
-290 -235 -40 -14 -82 -18 -182 -18 -155 0 -212 17 -316 95 -151 113 -229 295
-229 533 0 189 61 361 171 481 99 108 201 158 349 171 273 24 525 -172 586
-456 26 -118 22 -275 -10 -392 -29 -111 -30 -117 -15 -117 16 0 46 77 64 170
21 100 16 269 -9 365 -54 204 -214 376 -404 435 -73 23 -200 33 -257 20z
m-735 -411 l23 -371 82 7 81 7 12 -144 c18 -208 23 -188 -50 -188 -115 0 -112
3 -105 -115 l6 -101 -166 -18 c-91 -10 -172 -20 -179 -23 -11 -4 -14 13 -14
88 0 140 1 137 -78 132 -37 -2 -168 -10 -292 -18 -123 -8 -226 -12 -228 -11
-1 2 -14 79 -27 171 l-24 167 151 247 c84 135 185 297 225 359 40 62 79 126
88 142 l15 29 128 4 c70 1 172 4 228 5 l100 2 24 -371z m2320 297 c96 -14 195
-28 219 -32 l44 -6 -7 -96 c-4 -53 -9 -118 -13 -144 l-5 -47 -130 -69 -129
-69 63 -23 c111 -40 209 -125 251 -218 34 -73 31 -189 -6 -264 -37 -75 -116
-151 -196 -189 -106 -50 -121 -50 -184 8 -66 60 -163 112 -277 148 -103 33
-274 45 -371 26 -55 -11 -62 -11 -75 6 -22 28 -51 113 -59 169 -6 44 -4 52 12
58 10 4 95 10 189 13 l171 6 6 -41 c15 -88 106 -144 233 -144 80 1 120 16 153
58 26 34 26 54 0 88 -39 50 -143 87 -282 101 l-68 7 3 128 3 129 55 35 c30 20
62 36 70 36 8 0 -12 -16 -45 -36 -70 -42 -70 -42 -62 -50 5 -6 77 34 237 130
l45 27 -59 -6 c-97 -11 -168 -43 -322 -146 l-70 -47 -110 80 c-60 44 -126 89
-146 99 -21 11 -38 23 -38 28 0 9 108 96 292 237 l106 81 164 -23 c89 -13 242
-34 338 -48z m-457 -1010 c148 -29 280 -96 368 -188 53 -55 58 -68 33 -88 -52
-44 -66 -205 -25 -297 13 -28 32 -60 43 -70 11 -10 24 -28 29 -41 9 -22 10
-21 52 23 40 42 47 45 93 45 37 0 56 -5 73 -21 65 -61 51 -189 -28 -264 -28
-26 -40 -30 -90 -30 l-57 1 -33 -70 c-92 -193 -303 -299 -596 -300 -164 -1
-255 19 -392 84 -122 59 -186 117 -231 210 -54 110 -52 207 8 335 12 26 22 82
29 161 16 195 52 278 164 379 136 123 345 172 560 131z m-719 -323 c-13 -40
-27 -106 -31 -148 -3 -41 -8 -75 -10 -75 -19 0 -66 36 -73 56 -23 59 -5 154
36 204 25 29 82 54 96 41 3 -3 -4 -38 -18 -78z m1243 30 c45 -21 89 -82 98
-134 4 -22 4 -67 0 -99 -6 -54 -9 -60 -30 -60 -34 0 -76 -18 -103 -43 l-24
-22 -28 32 c-41 46 -64 131 -57 210 12 121 57 158 144 116z m-1318 -264 c28
-10 31 -15 31 -54 0 -51 -13 -64 -41 -39 -28 25 -35 10 -10 -25 12 -16 19 -35
17 -43 -3 -7 -10 -32 -16 -56 -10 -38 -13 -42 -27 -30 -46 38 -60 184 -22 232
23 30 25 30 68 15z m1110 -779 c-17 -74 -33 -137 -35 -139 -2 -2 -42 6 -88 18
-105 26 -124 26 -122 4 1 -13 -21 -29 -75 -56 -63 -32 -83 -38 -127 -35 l-52
3 103 108 102 108 78 21 c42 11 114 39 160 62 45 23 83 42 84 41 1 0 -12 -61
-28 -135z m-905 112 c3 -5 44 -24 91 -42 78 -30 88 -37 107 -74 11 -22 45 -77
74 -123 l54 -83 -43 0 c-32 0 -57 10 -105 41 -63 40 -63 41 -45 61 l18 21 -70
-6 c-38 -4 -91 -10 -117 -13 l-47 -7 20 79 c11 44 25 96 30 117 9 35 22 47 33
29z m408 -110 l147 -5 -91 -98 c-50 -55 -95 -99 -99 -99 -8 0 -95 134 -124
189 -16 33 -16 34 1 26 11 -4 85 -10 166 -13z m-1484 -35 c7 -8 9 -54 5 -130
-6 -110 -8 -120 -29 -134 -63 -41 -107 21 -107 150 -1 80 -10 100 -21 46 -9
-46 -7 -109 4 -148 13 -45 -2 -63 -48 -59 -53 5 -73 39 -81 140 -7 79 -8 82
-20 53 -8 -19 -11 -48 -7 -80 4 -27 7 -59 9 -70 1 -15 -5 -21 -24 -23 -56 -7
-98 105 -66 174 17 35 21 37 167 73 89 23 203 27 218 8z m2550 -64 c70 -18
102 -47 102 -94 0 -66 -53 -139 -102 -139 -35 0 -43 18 -30 62 18 57 25 138
13 138 -13 0 -13 1 -35 -102 -10 -42 -25 -83 -35 -92 -21 -19 -61 -21 -85 -3
-16 12 -16 17 0 110 15 84 15 121 -1 106 -2 -3 -12 -43 -21 -89 -9 -47 -23
-95 -30 -107 -18 -29 -55 -30 -79 -3 -17 19 -17 27 -6 108 20 132 20 132 143
126 57 -3 131 -12 166 -21z"/>
<path d="M11073 8783 c-62 -103 -112 -187 -110 -189 3 -2 221 17 225 21 1 1 1
81 0 178 l-3 177 -112 -187z m74 -140 c-3 -2 -27 -3 -54 -1 l-50 3 51 85 51
85 3 -84 c2 -46 1 -85 -1 -88z"/>
<path d="M13021 7984 c-35 -25 -42 -27 -116 -40 -34 -5 -37 -7 -19 -14 47 -18
201 33 191 63 -6 18 -21 16 -56 -9z"/>
<path d="M13320 7987 c0 -39 158 -110 196 -89 17 9 15 11 -11 17 -79 16 -111
29 -137 56 -32 31 -48 37 -48 16z"/>
<path d="M12951 7786 c-33 -35 -38 -101 -12 -143 26 -42 52 -42 86 -1 24 28
27 39 22 82 -3 36 -11 55 -27 68 -29 24 -42 23 -69 -6z"/>
<path d="M13366 7781 c-22 -25 -37 -79 -29 -110 7 -33 42 -71 64 -71 22 0 56
42 64 80 18 80 -53 152 -99 101z"/>
<path d="M13095 7625 c-49 -13 -95 -52 -95 -81 0 -8 -9 -14 -21 -14 -27 0 -56
-16 -101 -56 -45 -40 -77 -50 -118 -35 -24 8 -32 7 -36 -3 -13 -34 46 -115
105 -146 43 -21 151 -43 173 -35 10 4 18 -2 22 -17 12 -46 19 -50 59 -33 52
22 130 19 179 -6 40 -20 42 -21 55 -3 7 10 13 23 13 28 0 7 30 12 78 12 56 1
92 8 129 24 63 27 133 98 133 135 0 25 -1 25 -53 19 -52 -6 -55 -5 -109 39
-72 59 -89 67 -137 67 -35 0 -41 3 -41 21 0 34 -50 75 -108 88 -63 13 -64 13
-127 -4z m150 -29 c18 -8 41 -26 50 -39 36 -55 -27 -97 -143 -97 -100 0 -141
38 -116 105 16 41 141 59 209 31z m-235 -106 c19 -35 68 -52 146 -52 81 0 133
14 159 42 10 11 31 20 47 20 35 0 96 -30 123 -60 30 -33 69 -50 115 -50 22 0
40 -4 40 -10 0 -5 -18 -28 -39 -49 -95 -95 -293 -95 -395 -1 l-43 40 -28 -30
c-88 -91 -292 -75 -362 29 -13 19 -23 37 -23 40 0 4 17 5 38 3 38 -3 49 2 132
66 49 37 75 40 90 12z"/>
<path d="M12880 7590 c0 -5 7 -10 16 -10 8 0 12 5 9 10 -3 6 -10 10 -16 10 -5
0 -9 -4 -9 -10z"/>
<path d="M13500 7590 c0 -5 5 -10 11 -10 5 0 7 5 4 10 -3 6 -8 10 -11 10 -2 0
-4 -4 -4 -10z"/>
<path d="M13941 7574 c-25 -18 -57 -82 -46 -93 4 -3 16 6 27 22 26 35 36 34
53 -5 12 -29 14 -31 21 -14 5 12 1 30 -8 47 -18 30 -14 39 14 39 10 0 18 5 18
10 0 16 -53 12 -79 -6z"/>
<path d="M13370 7570 c0 -5 5 -10 11 -10 5 0 7 5 4 10 -3 6 -8 10 -11 10 -2 0
-4 -4 -4 -10z"/>
<path d="M12254 9071 c-74 -45 -114 -138 -122 -278 -8 -166 42 -309 121 -346
102 -49 207 7 252 134 62 172 20 427 -79 488 -44 28 -129 28 -172 2z m146 -30
c60 -42 88 -111 97 -237 11 -163 -44 -303 -132 -332 -120 -40 -203 98 -193
325 5 117 22 171 72 230 38 45 102 51 156 14z"/>
<path d="M5968 7893 c-16 -4 -18 -20 -18 -159 l0 -154 120 0 120 0 0 30 0 30
-80 0 -80 0 0 35 0 35 70 0 70 0 0 30 0 30 -70 0 -70 0 0 30 0 30 75 0 75 0 0
35 0 35 -97 -1 c-54 -1 -106 -3 -115 -6z"/>
<path d="M6247 7893 c-4 -3 -7 -75 -7 -160 l0 -153 40 0 40 0 0 55 c0 74 23
74 70 0 34 -53 37 -55 78 -55 47 0 47 -3 0 67 -15 23 -28 44 -28 47 0 2 14 18
30 34 53 54 28 141 -47 161 -42 12 -166 15 -176 4z m147 -63 c18 -6 26 -17 26
-33 0 -33 -18 -47 -62 -47 l-38 0 0 45 c0 41 2 45 24 45 14 0 36 -4 50 -10z"/>
<path d="M6578 7893 c-10 -2 -18 -10 -19 -16 -1 -7 -3 -76 -5 -154 l-4 -143
40 0 40 0 0 55 c0 47 3 55 19 55 11 0 32 -21 55 -55 34 -52 39 -55 77 -55 l41
0 -17 27 c-10 14 -26 41 -37 59 l-19 32 31 30 c49 50 32 130 -35 158 -32 13
-128 17 -167 7z m126 -63 c26 -9 32 -31 20 -64 -4 -11 -19 -16 -50 -16 l-44 0
0 45 c0 41 2 45 24 45 14 0 36 -4 50 -10z"/>
<path d="M6955 7893 c-64 -17 -105 -76 -105 -150 0 -97 62 -163 152 -163 27 0
62 7 77 15 142 73 100 291 -58 301 -25 1 -55 0 -66 -3z m110 -88 c18 -17 25
-35 25 -62 0 -73 -53 -114 -115 -89 -54 23 -68 108 -24 155 28 30 83 28 114
-4z"/>
<path d="M10750 7740 l0 -160 120 0 120 0 0 30 0 30 -80 0 -80 0 0 35 0 35 70
0 70 0 0 30 0 30 -70 0 -70 0 0 30 0 30 73 0 c41 0 76 2 79 5 2 3 3 18 0 35
l-4 30 -114 0 -114 0 0 -160z"/>
<path d="M11048 7848 c0 -29 -2 -101 -2 -160 l-2 -108 38 0 38 0 0 55 c0 73
22 73 73 0 35 -51 41 -55 79 -55 l40 0 -17 27 c-10 14 -26 41 -37 59 l-19 32
32 31 c28 28 31 37 26 72 -10 74 -55 99 -179 99 l-68 0 -2 -52z m153 -18 c21
-12 25 -50 7 -68 -7 -7 -29 -12 -50 -12 l-38 0 0 45 c0 44 1 45 31 45 17 0 39
-5 50 -10z"/>
<path d="M11363 7888 c-4 -7 -9 -79 -11 -160 l-4 -148 41 0 41 0 0 55 c0 47 3
55 19 55 11 0 32 -21 55 -55 34 -52 39 -55 76 -55 39 0 40 1 29 23 -7 12 -23
38 -36 58 l-24 36 31 31 c49 50 36 121 -30 154 -42 22 -174 25 -187 6z m148
-58 c21 -12 25 -50 7 -68 -7 -7 -29 -12 -50 -12 l-38 0 0 45 c0 44 1 45 31 45
17 0 39 -5 50 -10z"/>
<path d="M11730 7882 c-75 -37 -104 -142 -62 -222 23 -43 90 -80 148 -80 112
0 186 128 135 234 -37 76 -141 109 -221 68z m139 -78 c69 -87 -35 -208 -114
-134 -34 32 -35 103 -3 137 31 33 90 32 117 -3z"/>
<path d="M12016 7839 c-3 -34 -6 -106 -6 -160 l0 -99 40 0 40 0 0 55 c0 46 3
55 18 55 9 0 29 -19 45 -44 37 -59 49 -68 91 -64 l35 3 -36 57 -35 57 27 24
c21 17 28 33 29 63 2 82 -47 114 -175 114 l-66 0 -7 -61z m155 -9 c21 -12 25
-50 7 -68 -7 -7 -29 -12 -50 -12 l-38 0 0 45 c0 44 1 45 31 45 17 0 39 -5 50
-10z"/>
<path d="M1482 7733 l3 -158 85 -3 c47 -2 100 0 118 3 27 5 32 10 32 35 l0 30
-80 0 -80 0 0 30 c0 29 0 29 68 32 65 3 67 4 70 31 l3 27 -70 0 -71 0 0 35 0
35 75 0 75 0 0 30 0 30 -115 0 -116 0 3 -157z"/>
<path d="M1775 7734 l0 -159 35 0 35 0 5 55 c3 30 8 54 13 53 4 -2 11 -3 16
-3 4 0 25 -25 45 -55 34 -51 39 -55 76 -55 22 0 40 2 40 5 0 3 -17 30 -37 61
l-37 56 21 16 c50 41 54 109 7 153 -22 20 -36 24 -122 27 l-97 4 0 -158z m163
84 c7 -7 12 -21 12 -33 0 -31 -19 -45 -62 -45 l-38 0 0 45 0 45 38 0 c21 0 43
-5 50 -12z"/>
<path d="M2089 7793 c0 -54 -2 -111 -4 -128 -1 -16 -1 -45 2 -62 5 -30 9 -33
39 -33 l33 0 3 57 c2 32 8 58 15 60 6 2 30 -23 53 -56 39 -58 43 -61 82 -61
39 0 40 1 26 23 -8 12 -25 39 -37 60 l-24 39 26 24 c51 47 45 112 -13 152 -28
18 -46 22 -116 22 l-84 0 -1 -97z m159 25 c7 -7 12 -21 12 -33 0 -31 -19 -45
-62 -45 l-38 0 0 45 0 45 38 0 c21 0 43 -5 50 -12z"/>
<path d="M2449 7869 c-49 -29 -69 -66 -69 -128 0 -105 59 -165 162 -166 42 0
64 5 85 21 94 70 88 231 -11 278 -48 23 -123 20 -167 -5z m142 -68 c59 -59 27
-161 -50 -161 -54 0 -86 36 -86 97 0 37 5 49 28 69 38 32 72 31 108 -5z"/>
<path d="M2740 7730 l0 -161 38 3 37 3 3 53 c4 71 27 70 76 -3 35 -53 38 -56
76 -53 38 2 50 11 31 22 -5 3 -21 27 -36 52 l-27 45 26 24 c36 33 37 102 2
142 -23 27 -29 28 -125 31 l-101 4 0 -162z m168 88 c7 -7 12 -21 12 -33 0 -31
-19 -45 -62 -45 l-38 0 0 45 0 45 38 0 c21 0 43 -5 50 -12z"/>
<path d="M7210 7735 l0 -155 34 0 c34 0 35 0 41 55 9 72 29 72 75 0 33 -52 37
-55 77 -55 l43 0 -35 55 c-19 30 -35 57 -35 61 0 4 11 17 25 30 19 18 25 33
25 66 0 48 -5 57 -40 81 -19 13 -46 17 -117 17 l-93 0 0 -155z m148 99 c26 -8
39 -48 22 -69 -8 -9 -30 -15 -56 -15 -42 0 -44 1 -44 29 0 59 17 71 78 55z"/>
<path d="M10760 6815 c0 -3 18 -35 41 -70 l41 -65 59 0 c32 0 59 3 59 7 0 4
-19 35 -41 70 l-41 63 -59 0 c-33 0 -59 -2 -59 -5z"/>
<path d="M11042 6740 l41 -70 59 0 c57 0 59 1 52 23 -3 12 -21 42 -38 67 -32
44 -33 45 -94 48 l-61 3 41 -71z"/>
<path d="M14788 6801 c-45 -6 -49 -9 -87 -69 -23 -34 -41 -66 -41 -70 0 -4 32
-5 70 -4 l71 4 46 69 c37 56 50 68 67 64 11 -3 38 -8 59 -13 l37 -7 -35 -52
c-19 -29 -35 -55 -35 -58 0 -3 32 -5 70 -5 l71 0 -3 62 -3 62 -85 13 c-90 13
-125 14 -202 4z"/>
<path d="M10598 6793 c-14 -3 -18 -15 -18 -54 l0 -49 65 0 c36 0 65 2 65 5 0
3 -15 28 -32 55 -32 48 -42 53 -80 43z"/>
<path d="M12798 6743 c12 -2 32 -2 45 0 12 2 2 4 -23 4 -25 0 -35 -2 -22 -4z"/>
<path d="M12200 6699 c-43 -44 -42 -67 1 -50 17 6 29 22 37 47 6 21 10 40 7
42 -2 2 -22 -15 -45 -39z"/>
<path d="M11314 6596 c-3 -11 -24 -62 -45 -113 -22 -51 -39 -96 -39 -101 0 -5
10 -12 23 -16 15 -4 26 0 36 14 10 15 25 20 57 20 38 0 46 -4 54 -25 8 -20 16
-25 46 -25 30 0 35 3 29 18 -3 9 -22 62 -41 117 -19 55 -42 107 -50 116 -22
24 -62 21 -70 -5z m50 -98 c9 -35 8 -38 -14 -38 -11 0 -20 3 -20 8 0 19 13 52
20 52 4 0 10 -10 14 -22z"/>
<path d="M11524 6566 c-29 -29 -34 -41 -34 -81 0 -58 24 -112 59 -129 68 -34
135 -26 129 17 -2 15 -9 21 -23 20 -59 -7 -95 22 -95 77 0 52 22 72 74 68 33
-2 41 1 44 15 6 31 -17 47 -70 47 -43 0 -54 -4 -84 -34z"/>
<path d="M11758 6575 c-37 -21 -48 -44 -48 -105 0 -95 45 -140 139 -140 54 0
66 9 56 40 -5 16 -15 20 -48 20 -23 0 -47 4 -54 8 -18 11 -32 57 -26 83 11 44
23 52 76 45 l48 -7 -3 33 c-3 33 -4 33 -58 35 -34 2 -65 -3 -82 -12z"/>
<path d="M11942 6453 l3 -128 100 0 c94 0 100 1 97 20 -5 26 0 24 -70 31 -51
6 -62 10 -62 25 0 16 8 19 60 19 60 0 60 0 60 30 0 28 -1 29 -57 32 -46 2 -59
7 -61 21 -3 15 5 17 67 17 l71 0 0 30 0 30 -105 0 -106 0 3 -127z"/>
<path d="M12190 6542 c-16 -17 -30 -37 -30 -45 0 -30 42 -67 96 -84 39 -12 54
-21 52 -32 -3 -13 -16 -16 -65 -14 -54 2 -61 0 -66 -18 -7 -27 26 -39 109 -39
56 0 68 4 89 25 52 51 17 113 -76 135 -58 14 -69 26 -36 41 17 7 35 8 61 1 32
-9 37 -8 47 10 17 31 -2 42 -81 46 -66 4 -71 3 -100 -26z"/>
<path d="M12470 6559 c-41 -17 -60 -40 -60 -74 0 -41 21 -59 93 -80 44 -13 57
-21 55 -33 -3 -14 -15 -17 -65 -15 -55 2 -63 0 -68 -18 -4 -11 -5 -23 -2 -25
9 -9 144 -17 171 -10 14 3 33 17 41 30 14 21 14 28 1 59 -15 37 -48 60 -103
72 -71 15 -46 49 29 41 40 -4 50 -2 58 14 8 15 6 21 -10 30 -30 16 -111 22
-140 9z"/>
<path d="M14106 6562 l-40 -7 3 -120 c1 -66 5 -123 7 -127 6 -9 117 0 161 14
75 22 106 113 63 183 -31 51 -104 72 -194 57z m124 -82 c11 -11 20 -29 20 -40
0 -31 -44 -70 -80 -70 l-30 0 0 65 0 65 35 0 c22 0 43 -8 55 -20z"/>
<path d="M13846 6553 l-28 -5 7 -126 c4 -70 8 -128 9 -128 0 -1 45 1 99 3 l97
6 0 28 0 29 -70 0 c-63 0 -70 2 -70 20 0 16 7 20 34 20 68 0 96 11 96 36 0 23
-3 24 -65 24 -58 0 -65 2 -65 20 0 17 8 19 68 22 65 3 67 4 70 31 l3 27 -78
-1 c-43 -1 -91 -4 -107 -6z"/>
<path d="M12870 6416 l0 -136 70 0 c120 0 180 42 180 126 0 94 -46 133 -170
141 l-80 6 0 -137z m158 46 c6 -9 12 -33 12 -53 0 -44 -27 -69 -72 -69 l-28 0
0 75 0 76 38 -7 c20 -3 43 -13 50 -22z"/>
<path d="M13707 6543 c-4 -3 -7 -62 -7 -130 l0 -123 34 0 c30 0 34 3 39 33 2
17 2 76 -1 130 l-5 97 -27 0 c-15 0 -30 -3 -33 -7z"/>
<path d="M13152 6413 l3 -128 103 -3 c107 -3 112 0 96 42 -5 12 -21 16 -70 16
-62 0 -64 1 -64 25 0 24 3 25 60 25 56 0 60 1 60 24 0 25 -28 36 -91 36 -23 0
-29 5 -29 21 0 20 4 21 65 17 l65 -4 0 28 0 28 -100 0 -101 0 3 -127z"/>
<path d="M13400 6410 l0 -131 33 3 32 3 1 63 c0 34 3 64 5 66 3 3 26 -27 53
-65 47 -69 48 -70 89 -67 l42 3 3 75 c2 41 0 99 -3 128 -6 51 -7 52 -40 52
l-34 0 -3 -71 -3 -72 -45 69 c-43 65 -48 69 -88 72 l-42 3 0 -131z"/>
<path d="M10575 6299 c-4 -28 -3 -55 1 -59 5 -5 27 -11 49 -14 22 -3 32 -3 23
0 -23 7 -23 9 11 64 l29 48 -30 6 c-69 14 -76 10 -83 -45z"/>
<path d="M15030 6263 c-17 -36 -29 -67 -28 -68 2 -1 20 0 41 3 l37 4 0 64 c0
36 -4 64 -10 64 -5 0 -23 -30 -40 -67z"/>
<path d="M10767 6265 c-37 -54 -37 -54 -15 -59 48 -10 128 -13 128 -5 0 5 13
30 30 57 l29 47 -22 7 c-12 3 -42 6 -67 7 -44 1 -46 -1 -83 -54z"/>
<path d="M14856 6299 c-32 -5 -60 -10 -61 -11 -2 -2 -17 -31 -34 -65 l-31 -63
27 0 c46 1 203 26 211 35 4 4 -12 4 -35 0 -24 -4 -43 -4 -43 -1 0 3 11 30 24
61 16 35 20 55 13 54 -7 -1 -39 -5 -71 -10z"/>
<path d="M11013 6241 l-40 -59 36 -6 c89 -15 103 -9 143 52 l37 57 -37 7 c-86
16 -95 13 -139 -51z"/>
<path d="M14609 6270 c-31 -4 -61 -10 -67 -14 -14 -8 -73 -118 -68 -124 3 -2
36 -1 74 3 l69 7 29 61 c15 34 30 65 32 70 2 4 0 6 -5 6 -4 -1 -33 -5 -64 -9z"/>
<path d="M11275 6219 l-40 -51 -52 5 c-29 3 -53 2 -53 -1 0 -13 421 -52 620
-57 107 -3 212 -8 233 -11 23 -4 37 -2 37 5 0 7 -21 11 -50 11 -27 0 -50 3
-50 6 0 4 15 28 34 54 19 27 32 51 29 54 -4 3 -36 6 -72 6 -64 0 -67 -1 -89
-34 -45 -66 -64 -77 -126 -74 l-56 3 35 49 c41 58 36 66 -45 66 -55 0 -55 0
-99 -55 -45 -57 -50 -59 -114 -47 l-37 7 34 51 c35 51 35 52 13 58 -12 3 -42
6 -67 6 -43 0 -48 -3 -85 -51z"/>
<path d="M14314 6243 c-38 -4 -42 -8 -78 -69 -21 -36 -36 -68 -33 -70 4 -4
147 12 151 18 9 12 66 119 66 123 0 5 -33 4 -106 -2z"/>
<path d="M12076 6173 c-25 -32 -46 -61 -46 -65 0 -5 39 -8 88 -8 48 0 105 -3
127 -7 22 -3 37 -2 32 2 -4 5 -25 11 -47 14 l-40 6 34 51 35 51 -52 7 c-82 9
-83 9 -131 -51z"/>
<path d="M14068 6220 c-36 -3 -68 -7 -70 -10 -2 -3 -20 -31 -41 -62 l-37 -58
-56 0 -56 0 32 56 c17 31 30 57 28 59 -2 2 -34 1 -73 -2 l-70 -5 -35 -56 c-19
-31 -37 -60 -39 -65 -2 -5 69 -6 163 -2 l166 8 0 -84 c0 -46 3 -135 7 -196 l6
-113 -35 -14 c-89 -38 -541 -86 -806 -86 l-133 0 3 240 c3 223 2 240 -14 240
-24 0 -23 5 12 62 17 26 30 50 30 53 0 3 -30 5 -67 5 l-68 0 -38 -55 -38 -55
-60 0 c-66 0 -65 -4 -17 67 15 23 28 44 28 47 0 3 -33 6 -72 6 l-73 -1 -39
-54 c-35 -50 -43 -55 -75 -54 -20 0 -44 4 -54 7 -16 7 -15 12 13 55 16 26 30
50 30 52 0 3 -31 5 -69 5 l-70 0 -46 -60 -46 -60 48 0 c26 0 64 -3 84 -6 l36
-6 -5 -204 c-5 -220 -4 -226 48 -246 108 -42 351 -68 635 -68 315 0 582 28
774 81 124 35 114 13 108 245 l-6 202 87 9 c66 8 76 10 40 12 -27 0 -48 4 -48
7 0 4 12 28 27 55 14 27 24 50 22 52 -2 1 -34 0 -71 -3z m-1175 -156 l107 -6
0 -233 0 -234 -92 5 c-197 11 -392 47 -417 78 -9 11 -10 65 -5 211 l7 197 146
-6 c80 -4 194 -9 254 -12z"/>
<path d="M13518 6190 l-67 -5 -40 -58 c-23 -32 -41 -60 -41 -62 0 -7 135 -4
210 5 l65 7 -58 1 -58 2 35 55 c20 30 32 56 28 57 -4 2 -37 1 -74 -2z"/>
<path d="M13142 6131 c-25 -36 -51 -61 -64 -64 -13 -2 20 -5 73 -6 l97 -1 36
61 c20 33 36 62 36 65 0 2 -31 4 -68 4 l-68 0 -42 -59z"/>
<path d="M13308 6063 c7 -3 16 -2 19 1 4 3 -2 6 -13 5 -11 0 -14 -3 -6 -6z"/>
<path d="M13070 5879 c-14 -26 11 -69 40 -69 39 0 65 51 38 78 -20 20 -66 15
-78 -9z m65 -24 c0 -25 -40 -33 -49 -10 -9 24 2 37 27 33 14 -2 22 -10 22 -23z"/>
<path d="M2191 4864 c-129 -35 -251 -134 -318 -260 -43 -81 -75 -202 -77 -291
0 -40 -2 -73 -3 -73 -1 0 -9 12 -17 28 -23 44 -105 121 -157 148 -68 34 -160
54 -254 54 -151 0 -62 19 145 30 112 6 206 13 208 15 2 2 7 71 9 152 5 134 4
150 -12 163 -16 13 -71 14 -384 11 -201 -2 -367 -4 -368 -5 -7 -6 -123 -662
-123 -691 0 -21 8 -27 57 -41 32 -8 95 -26 139 -40 45 -13 87 -24 93 -24 6 0
28 15 48 34 53 46 75 56 128 56 118 0 170 -70 105 -143 -34 -40 -101 -61 -156
-51 -33 6 -94 62 -94 86 0 21 -103 0 -225 -45 -142 -54 -144 -56 -91 -162 84
-169 239 -245 479 -232 178 9 294 54 393 152 66 66 104 134 112 201 2 24 7 44
11 44 3 0 19 -25 35 -56 17 -31 57 -85 91 -119 155 -157 389 -196 591 -99 126
61 237 208 281 374 24 89 24 290 -1 380 -53 194 -192 347 -364 400 -77 24
-201 26 -281 4z m302 -43 c109 -42 211 -141 273 -263 80 -159 74 -449 -13
-611 -36 -66 -124 -161 -180 -194 -146 -86 -350 -85 -497 1 -173 101 -280 369
-246 615 33 241 142 391 339 467 57 22 251 13 324 -15z m-799 -143 c-4 -73 -7
-134 -8 -135 0 -1 -92 -6 -204 -11 -111 -5 -205 -12 -208 -15 -3 -3 -9 -21
-13 -39 l-8 -34 93 4 c119 5 206 -19 292 -82 110 -81 162 -184 162 -320 0
-132 -27 -205 -103 -281 -95 -94 -214 -141 -386 -152 -209 -13 -357 61 -438
221 -19 37 -33 69 -31 71 4 4 276 105 283 105 2 0 11 -15 20 -33 60 -128 325
-77 325 62 0 74 -62 121 -159 121 -73 0 -99 -9 -148 -54 l-39 -34 -112 34
c-62 19 -120 34 -128 34 -19 0 -18 19 6 142 22 116 90 509 90 520 0 5 162 8
360 8 l360 0 -6 -132z"/>
<path d="M2263 4554 c-37 -18 -86 -90 -102 -149 -16 -58 -13 -181 4 -250 38
-147 141 -202 249 -135 90 55 130 283 75 427 -16 42 -56 91 -89 108 -37 19
-96 19 -137 -1z m133 -34 c120 -75 116 -397 -5 -477 -87 -58 -172 7 -201 152
-15 72 -7 187 16 244 36 90 118 125 190 81z"/>
<path d="M6984 4865 c-92 -20 -161 -60 -240 -139 -111 -111 -174 -267 -174
-428 l0 -61 -31 47 c-78 118 -224 185 -401 186 -39 0 -68 4 -68 10 0 6 10 10
23 10 103 2 390 20 395 25 13 13 14 295 2 311 -10 11 -59 14 -280 14 -147 0
-315 -3 -373 -7 l-107 -6 -5 -31 c-3 -17 -28 -157 -56 -311 -28 -154 -52 -300
-53 -325 l-1 -44 120 -34 c173 -49 167 -49 207 -13 68 60 135 74 206 45 39
-15 62 -47 62 -85 0 -31 -51 -76 -101 -89 -70 -19 -108 -8 -155 46 -39 45 -43
46 -80 40 -21 -4 -97 -28 -167 -54 l-128 -47 6 -35 c18 -94 109 -211 203 -259
98 -50 288 -66 434 -36 99 20 211 77 270 136 50 50 107 155 109 199 1 62 13
61 49 -8 65 -125 199 -231 330 -261 25 -6 83 -11 130 -11 303 0 520 257 520
617 0 197 -53 337 -175 458 -131 132 -291 179 -471 140z m221 -30 c285 -73
446 -379 380 -721 -67 -349 -399 -529 -701 -380 -260 129 -366 536 -219 843
100 212 316 315 540 258z m-735 -73 c0 -86 -13 -231 -20 -227 -7 4 -401 -13
-405 -17 -2 -2 -6 -22 -10 -46 l-7 -42 27 10 c39 15 142 12 208 -5 83 -22 133
-50 193 -109 115 -116 149 -267 97 -431 -22 -68 -54 -116 -105 -158 -94 -76
-205 -114 -363 -123 -235 -14 -382 66 -459 250 -14 34 -14 37 2 43 9 3 62 23
117 44 146 56 157 57 174 19 28 -65 140 -88 232 -49 57 25 89 69 89 121 0 124
-207 162 -315 58 l-30 -29 -125 35 c-69 20 -126 37 -128 39 -2 2 6 54 17 117
12 62 28 154 37 203 8 50 22 124 30 165 7 41 16 99 20 128 l7 52 358 0 359 0
0 -48z"/>
<path d="M7072 4560 c-45 -11 -96 -61 -123 -124 -19 -42 -23 -69 -23 -151 0
-118 20 -187 74 -247 37 -42 90 -58 144 -44 41 10 92 62 117 118 20 45 23 70
23 168 1 104 -2 120 -25 171 -42 88 -110 128 -187 109z m98 -49 c80 -58 111
-198 75 -336 -19 -73 -45 -115 -83 -137 -68 -41 -134 -12 -173 74 -21 46 -24
68 -24 173 0 104 3 125 22 160 22 41 56 78 83 88 23 9 72 -1 100 -22z"/>
<path d="M6028 3663 c12 -2 32 -2 45 0 12 2 2 4 -23 4 -25 0 -35 -2 -22 -4z"/>
<path d="M12104 4866 c-93 -21 -162 -62 -240 -140 -112 -113 -173 -260 -174
-426 -1 -64 -1 -65 -18 -40 -92 136 -207 197 -389 207 -56 3 -100 9 -98 13 3
4 69 11 147 14 79 4 173 9 209 12 l66 6 7 137 c4 86 3 148 -3 164 l-11 27
-318 0 c-176 0 -346 -3 -379 -6 l-60 -7 -17 -106 c-10 -58 -38 -216 -63 -350
-33 -175 -42 -245 -34 -250 6 -4 72 -24 146 -45 127 -36 137 -37 158 -22 95
69 99 71 163 71 48 0 69 -5 90 -21 76 -56 30 -150 -83 -169 -62 -10 -106 8
-138 57 -26 39 -28 40 -70 35 -23 -4 -102 -28 -174 -54 l-132 -48 6 -29 c10
-55 53 -135 99 -184 89 -95 194 -132 376 -132 194 0 336 49 442 153 58 58 99
139 106 209 2 26 7 48 11 48 3 0 17 -25 29 -55 27 -61 113 -161 177 -205 253
-174 616 -71 756 215 l39 80 -6 -60 c-5 -47 -3 -63 9 -73 13 -11 74 -18 432
-50 l80 -7 -5 -45 c-2 -25 -4 -65 -5 -90 0 -43 1 -45 35 -52 19 -4 70 -10 113
-14 l79 -6 -20 -21 c-40 -43 -55 -132 -32 -193 14 -36 -9 -94 -52 -133 -30
-27 -34 -27 -72 -16 -23 7 -67 15 -99 19 -54 7 -57 9 -51 32 9 34 -12 100 -44
149 -41 59 -103 102 -168 115 -42 9 -63 20 -81 41 -46 54 -133 27 -133 -42 0
-21 -10 -38 -35 -60 -19 -17 -46 -54 -60 -83 -34 -69 -36 -172 -6 -240 19 -43
22 -46 58 -46 l38 0 -46 -46 c-40 -40 -49 -45 -67 -35 -69 37 -171 -13 -213
-104 -35 -76 -14 -156 51 -193 39 -22 41 -70 5 -106 -22 -22 -24 -32 -21 -86
1 -33 8 -66 14 -72 7 -7 12 -24 12 -39 0 -15 7 -32 15 -39 8 -7 15 -18 15 -25
0 -21 41 -65 60 -65 11 0 25 -10 31 -22 39 -76 150 -174 252 -224 47 -23 54
-30 46 -45 -16 -31 -10 -88 11 -109 49 -49 150 -9 150 59 0 30 0 30 48 24 58
-6 220 21 280 47 25 11 46 19 48 18 1 -2 -4 -50 -12 -108 -7 -58 -14 -140 -14
-182 0 -68 3 -79 20 -88 20 -11 20 -17 14 -178 -5 -153 16 -537 31 -562 3 -5
-30 -25 -72 -47 -43 -21 -100 -59 -126 -84 -45 -43 -48 -50 -45 -90 2 -36 8
-47 35 -65 46 -30 173 -48 289 -40 89 6 217 37 228 55 3 5 25 6 49 4 54 -6
113 17 129 52 9 19 8 36 -1 73 -7 26 -13 54 -13 62 -2 24 23 434 26 437 1 2
38 -101 81 -228 77 -230 78 -230 67 -292 -6 -40 -6 -69 0 -80 13 -24 68 -47
114 -47 20 0 60 -11 88 -24 82 -40 196 -59 301 -50 159 12 215 39 215 104 0
54 -61 119 -155 166 -72 35 -74 38 -80 78 -7 61 -25 469 -25 583 l1 98 42 20
42 20 -1 160 c0 88 -9 225 -19 305 -10 80 -19 213 -20 295 -1 138 -3 156 -29
221 -36 94 -97 167 -201 240 -16 12 -18 17 -7 32 6 9 21 33 31 53 17 30 24 36
46 32 81 -16 169 95 151 190 -4 19 -17 51 -31 70 -21 32 -22 41 -13 73 10 39
3 115 -14 149 -21 40 -63 76 -103 86 -26 7 -60 30 -100 69 -161 154 -426 204
-612 115 l-73 -34 0 39 0 39 78 3 77 3 7 61 c3 34 8 112 10 175 l3 114 -67 9
c-60 8 -68 12 -68 30 0 12 7 118 15 236 19 277 19 364 1 379 -12 10 -121 21
-368 36 -88 5 -100 3 -117 -14 -11 -11 -113 -145 -228 -298 l-207 -278 -8 75
c-18 194 -111 355 -263 456 -106 71 -264 99 -391 70z m221 -31 c189 -49 326
-191 382 -397 21 -77 24 -259 4 -338 -24 -100 -89 -220 -152 -281 -151 -148
-385 -182 -570 -83 -120 65 -218 207 -255 370 -25 113 -16 291 20 399 56 166
169 283 321 331 56 18 179 17 250 -1z m1150 -26 c105 -6 193 -15 197 -18 5 -5
-4 -152 -37 -552 l-7 -86 66 -6 c37 -4 70 -8 74 -11 4 -2 3 -68 -3 -147 l-10
-142 -76 2 -77 2 -7 -73 c-4 -40 -11 -81 -16 -90 -11 -20 -59 -23 -218 -11
l-92 6 3 96 3 95 -205 18 c-113 9 -229 17 -259 17 l-54 1 6 158 6 159 209 280
c116 154 216 290 223 302 12 18 20 22 49 17 19 -2 121 -10 225 -17z m-1893
-133 l-3 -134 -112 -6 c-303 -17 -306 -17 -311 -35 -19 -70 -18 -70 16 -60 77
22 212 3 300 -42 64 -32 154 -125 186 -188 25 -52 27 -65 27 -176 0 -116 -1
-123 -33 -187 -71 -144 -223 -222 -458 -235 -171 -9 -283 26 -367 116 -44 47
-97 137 -97 163 0 8 60 35 143 65 l142 51 18 -34 c23 -44 54 -63 113 -70 139
-17 253 92 197 188 -49 86 -214 93 -297 12 l-34 -33 -128 35 c-71 19 -129 36
-131 37 -1 1 18 110 42 242 24 132 50 282 56 333 l12 92 361 0 361 0 -3 -134z
m2483 -917 c77 -22 167 -72 223 -124 l57 -53 -22 -24 c-65 -70 -57 -195 19
-295 l25 -33 22 24 c50 53 132 36 150 -32 14 -50 14 -60 -8 -109 -23 -51 -69
-78 -118 -70 -32 6 -34 3 -58 -44 -48 -94 -129 -155 -248 -186 -84 -22 -263
-22 -339 1 -51 15 -58 20 -69 54 -6 20 -22 58 -35 84 l-24 47 38 -6 c20 -3 44
-14 52 -25 13 -16 24 -18 70 -12 39 4 69 1 100 -10 57 -20 57 -20 65 4 6 18
15 20 77 20 82 0 124 17 168 66 44 50 40 64 -18 64 -42 0 -52 4 -83 36 -33 36
-96 70 -107 60 -3 -3 -14 8 -24 25 -26 42 -80 63 -146 56 -58 -6 -79 -19 -93
-54 -6 -15 -17 -23 -33 -23 -13 0 -37 -11 -53 -24 l-29 -24 -17 48 c-17 49
-65 100 -94 100 -14 0 -15 13 -9 97 9 121 35 192 94 255 51 54 144 105 218
118 58 11 193 5 249 -11z m-525 -133 c0 -2 -11 -28 -24 -57 -14 -30 -28 -80
-31 -111 -8 -63 -16 -70 -39 -36 -33 47 -12 146 39 186 24 19 55 29 55 18z
m-726 -12 c27 -10 18 -31 -16 -37 -18 -3 -41 -8 -50 -12 -23 -9 -24 12 -1 37
17 18 39 23 67 12z m183 -90 c21 -15 44 -35 51 -44 24 -29 61 -95 67 -120 6
-24 4 -25 -37 -22 -96 8 -296 -57 -385 -125 -25 -19 -46 -33 -47 -31 -13 16
-26 83 -26 135 0 153 105 247 267 239 61 -2 78 -7 110 -32z m1410 25 c72 -27
112 -107 96 -190 -8 -42 -11 -44 -48 -50 -22 -3 -50 -11 -62 -19 -26 -17 -43
-6 -67 44 -20 43 -21 147 -1 186 21 40 38 46 82 29z m-930 -194 c4 -15 -10
-32 -34 -39 -18 -6 -23 -3 -23 11 0 35 47 58 57 28z m-382 -54 c-13 -11 -145
-21 -145 -10 0 7 32 12 125 17 17 1 25 -2 20 -7z m432 -34 c32 -22 63 -65 63
-88 0 -8 -8 2 -19 21 -39 73 -143 98 -193 48 -11 -11 -22 -17 -26 -14 -9 10
25 40 61 52 39 14 71 9 114 -19z m-607 3 c0 -8 -53 -30 -71 -30 -23 0 -5 28
24 37 33 10 47 8 47 -7z m339 -25 c71 -17 190 -75 218 -108 21 -23 19 -23 -64
27 -84 50 -192 76 -315 76 -83 0 -113 -5 -189 -30 -50 -16 -105 -41 -122 -54
-88 -69 -137 -115 -162 -153 -32 -49 -43 -57 -21 -15 66 121 209 224 360 257
83 18 217 18 295 0z m678 -10 c55 -36 11 -85 -77 -85 -65 0 -100 20 -100 56 0
50 116 69 177 29z m-1117 1 c0 -9 -111 -68 -117 -63 -6 7 87 67 105 67 6 0 12
-2 12 -4z m425 -21 l50 -14 -50 7 c-27 4 -104 7 -170 7 -66 -1 -109 2 -95 6
42 12 212 8 265 -6z m0 -37 c162 -35 308 -168 365 -333 41 -116 47 -295 11
-295 -14 0 -16 14 -16 93 -1 75 -6 107 -29 174 -69 197 -259 343 -445 343
-248 0 -444 -148 -497 -376 -29 -124 4 -282 81 -396 112 -162 305 -236 509
-194 92 19 152 49 241 123 61 50 65 52 65 29 0 -46 -160 -150 -277 -180 -270
-70 -562 87 -637 344 -43 146 -27 314 40 426 90 150 213 225 424 258 31 4 100
-2 165 -16z m89 13 c4 -5 -3 -7 -14 -4 -23 6 -26 13 -6 13 8 0 17 -4 20 -9z
m487 -62 c61 -12 127 -1 149 26 25 30 63 17 138 -47 23 -19 44 -28 69 -28 34
0 35 -1 21 -22 -8 -13 -34 -33 -59 -46 -75 -39 -199 -21 -265 39 -21 19 -21
19 -65 -5 -85 -49 -187 -41 -219 17 -17 31 -12 38 61 82 18 11 42 26 54 32 17
11 23 10 40 -12 14 -17 38 -28 76 -36z m-1021 3 c-14 -9 -51 -41 -83 -72 -101
-95 -152 -234 -145 -397 2 -60 0 -79 -8 -72 -7 5 -10 18 -7 28 3 10 -2 32 -11
49 -17 33 -22 57 -7 33 6 -10 11 4 16 45 18 156 103 305 214 376 48 30 73 38
31 10z m447 -8 c71 -23 179 -91 219 -138 77 -89 124 -225 124 -358 0 -64 -4
-89 -15 -98 -8 -7 -15 -20 -15 -29 -1 -104 -140 -239 -290 -280 -82 -23 -205
-27 -279 -10 -121 28 -242 124 -299 239 -39 78 -40 88 -4 83 36 -6 82 12 82
32 0 24 -23 27 -71 11 -24 -8 -46 -13 -49 -10 -3 3 -5 58 -5 122 0 110 2 121
31 183 55 116 154 202 282 246 83 28 216 31 289 7z m372 -149 c40 -65 66 -139
75 -205 l5 -45 -14 50 c-34 115 -49 151 -92 219 -25 39 -55 83 -67 97 -11 14
-3 6 19 -17 22 -22 56 -67 74 -99z m-58 43 c16 -30 4 -20 -31 25 -29 37 -30
39 -6 17 15 -14 32 -33 37 -42z m-1066 16 c-45 -23 -66 -45 -86 -89 -12 -26
-19 -33 -19 -20 0 46 75 125 120 125 8 0 2 -7 -15 -16z m1115 -94 c6 -11 8
-20 6 -20 -3 0 -10 9 -16 20 -6 11 -8 20 -6 20 3 0 10 -9 16 -20z m838 -163
c85 -91 118 -192 109 -341 -11 -191 -91 -320 -221 -358 -44 -13 -244 -16 -287
-5 l-26 7 23 47 c28 54 31 135 9 198 -8 22 -15 43 -15 48 0 4 39 7 88 7 69 0
99 -5 146 -25 33 -13 62 -23 64 -21 5 6 -50 42 -83 54 l-30 10 35 1 c19 1 51
-3 70 -9 33 -9 34 -8 15 6 -15 11 -40 14 -98 12 l-79 -3 6 29 c4 17 29 77 56
134 28 58 49 107 46 109 -10 10 -126 -204 -126 -234 0 -32 -31 -43 -118 -43
-124 0 -192 10 -192 27 0 7 -8 30 -18 51 -10 20 -17 45 -14 55 2 10 0 16 -5
15 -14 -4 -61 32 -66 52 -4 17 -1 19 21 14 l27 -7 -27 30 c-18 18 -28 40 -28
59 0 16 -4 44 -9 62 -6 20 -6 32 0 32 5 0 9 -8 9 -17 1 -25 71 -154 90 -166
12 -7 35 10 101 75 l86 84 74 12 c41 7 98 23 126 37 l53 24 -41 -82 c-23 -45
-43 -84 -44 -85 -2 -2 -35 3 -74 12 -91 21 -108 21 -91 1 10 -12 5 -18 -31
-33 -24 -11 -54 -22 -66 -26 -22 -7 -52 -36 -37 -36 22 0 163 63 158 71 -8 14
29 11 76 -6 78 -27 79 -27 144 110 l59 124 41 -28 c23 -16 65 -54 94 -84z
m-555 -13 l67 -7 -62 -66 c-35 -36 -65 -67 -68 -68 -5 -2 -42 66 -67 126 l-14
34 38 -7 c21 -3 68 -9 106 -12z m-1396 -56 c-3 -7 -5 -2 -5 12 0 14 2 19 5 13
2 -7 2 -19 0 -25z m21 -50 c32 -32 -6 -76 -54 -64 -31 8 -32 40 -2 60 27 19
40 20 56 4z m40 -101 c6 -28 -17 -47 -57 -47 -40 0 -61 14 -61 41 0 31 112 36
118 6z m1197 -17 c3 -5 -1 -10 -9 -10 -9 0 -16 5 -16 10 0 6 4 10 9 10 6 0 13
-4 16 -10z m-5 -40 c33 -17 46 -32 65 -75 14 -30 33 -59 45 -65 17 -9 20 -21
20 -70 0 -100 -6 -107 -96 -115 -76 -8 -77 -7 -153 32 -57 30 -77 45 -79 63
-4 21 -1 22 36 16 22 -3 47 -9 56 -12 9 -3 16 -2 16 4 0 6 -22 18 -50 27 -45
15 -50 20 -50 46 0 34 9 35 70 14 23 -8 48 -15 54 -15 22 1 -30 31 -72 42 -49
12 -59 23 -41 45 13 15 59 14 129 -2 24 -6 24 -6 6 9 -10 8 -39 18 -63 22 -46
7 -60 21 -49 50 9 23 98 13 156 -16z m-1165 -17 c14 -37 -73 -71 -103 -41 -26
26 -14 47 31 51 23 2 47 4 53 5 7 1 15 -6 19 -15z m26 -97 c-19 -23 -60 -29
-87 -11 -32 21 -30 35 4 36 15 0 36 4 47 9 28 11 53 -13 36 -34z m1411 -25 c4
-4 15 -36 24 -72 18 -72 11 -116 -25 -176 -18 -28 -23 -30 -53 -23 -77 18
-115 30 -133 45 -19 15 -19 15 6 9 42 -9 64 34 64 128 0 48 -5 82 -12 90 -7 6
-13 15 -13 18 0 8 133 -9 142 -19z m-1250 -119 c104 -78 208 -112 337 -112
145 0 233 29 359 116 66 46 71 32 9 -23 -38 -33 -173 -89 -251 -104 -119 -22
-271 -2 -384 52 -82 39 -219 166 -209 193 6 15 14 9 47 -33 22 -28 64 -68 92
-89z m1807 -107 c12 -111 31 -368 31 -416 0 -22 -8 -30 -50 -47 -159 -66 -298
-86 -552 -79 -263 7 -397 35 -565 121 l-52 26 4 47 c19 209 29 291 36 311 11
28 38 39 51 21 8 -11 9 -10 4 3 -9 28 13 32 24 4 20 -55 127 -56 152 -1 9 19
19 25 44 25 60 0 61 -2 51 -88 -13 -113 -14 -409 -1 -422 7 -7 9 17 6 81 -4
85 15 409 25 419 2 3 12 -5 21 -18 20 -26 48 -35 197 -63 148 -28 305 -24 383
10 62 28 111 80 144 156 28 64 31 59 47 -90z m-978 54 c31 -15 40 -25 37 -42
-2 -18 -11 -23 -41 -25 -44 -4 -67 11 -67 42 0 19 16 46 27 46 2 0 22 -9 44
-21z m-619 -151 c30 -49 -23 -111 -76 -87 -40 19 -42 85 -3 110 13 9 69 -8 79
-23z"/>
<path d="M12131 4525 c-101 -91 -121 -312 -40 -453 37 -66 74 -86 147 -80 50
4 59 9 98 50 51 54 64 94 71 219 11 189 -58 299 -186 299 -44 0 -56 -5 -90
-35z m185 -38 c70 -76 85 -253 31 -371 -60 -130 -196 -129 -242 2 -53 151 -29
328 52 392 23 18 37 21 77 17 41 -4 55 -11 82 -40z"/>
<path d="M13300 4388 c-36 -46 -88 -110 -117 -144 l-51 -61 60 -7 c76 -8 138
-8 138 0 0 19 32 262 36 277 3 9 4 17 2 17 -2 0 -33 -37 -68 -82z m7 -110 c-5
-35 -10 -64 -12 -66 -2 -2 -21 -2 -44 0 l-40 3 47 62 c26 34 50 63 53 63 3 0
2 -28 -4 -62z"/>
<path d="M13759 3549 c-14 -11 -47 -24 -75 -28 -33 -5 -44 -10 -32 -15 24 -11
153 26 153 43 0 22 -17 22 -46 0z"/>
<path d="M13980 3551 c0 -11 8 -27 17 -37 23 -22 92 -54 121 -54 38 0 24 15
-25 28 -30 8 -58 25 -80 48 -28 30 -33 32 -33 15z"/>
<path d="M13805 3510 c-3 -5 -1 -10 4 -10 6 0 11 5 11 10 0 6 -2 10 -4 10 -3
0 -8 -4 -11 -10z"/>
<path d="M13701 3396 c-21 -26 -25 -83 -7 -111 20 -30 47 -32 72 -4 22 24 25
89 5 113 -17 20 -54 21 -70 2z"/>
<path d="M14004 3369 c-22 -24 -25 -89 -5 -113 34 -41 97 11 87 72 -10 62 -46
80 -82 41z"/>
<path d="M14429 3191 c-41 -41 -39 -72 2 -35 17 16 19 15 28 -10 15 -37 25
-32 18 10 -4 25 -2 37 8 41 8 3 12 9 9 14 -10 17 -36 9 -65 -20z"/>
<path d="M12967 3093 c-12 -11 -8 -68 7 -88 7 -11 15 -49 18 -85 3 -40 16 -93
35 -140 24 -60 28 -80 20 -98 -21 -46 38 -100 89 -81 12 4 30 19 40 33 15 21
46 34 149 65 72 22 147 43 167 46 39 7 74 37 63 54 -10 17 -47 13 -90 -10 -36
-18 -266 -89 -290 -89 -28 1 -57 40 -71 95 -8 33 -31 91 -50 128 -21 42 -34
83 -34 106 0 45 -33 85 -53 64z m33 -44 c0 -6 -4 -7 -10 -4 -5 3 -10 11 -10
16 0 6 5 7 10 4 6 -3 10 -11 10 -16z m138 -382 c2 -9 -4 -20 -12 -23 -21 -8
-46 13 -39 32 8 20 47 13 51 -9z"/>
<path d="M13201 3059 c-13 -39 -13 -39 -1 -39 15 0 33 51 22 62 -6 6 -14 -3
-21 -23z"/>
<path d="M13390 2955 c-13 -14 -20 -28 -17 -32 8 -7 57 35 57 49 0 15 -16 8
-40 -17z"/>
<path d="M12790 2957 c0 -16 48 -52 57 -43 7 7 -15 34 -39 47 -13 7 -18 6 -18
-4z"/>
<path d="M12680 2772 c0 -12 67 -28 77 -18 10 9 2 14 -39 21 -25 5 -38 3 -38
-3z"/>
<path d="M13480 2582 c0 -5 15 -12 33 -15 54 -8 53 8 -1 19 -19 4 -32 2 -32
-4z"/>
<path d="M13390 2411 c0 -5 11 -16 25 -25 28 -18 34 -6 9 18 -17 18 -34 21
-34 7z"/>
<path d="M12820 2385 c-13 -14 -20 -28 -17 -32 8 -7 57 35 57 49 0 15 -16 8
-40 -17z"/>
<path d="M13207 2323 c-9 -15 18 -78 36 -81 13 -3 17 3 17 23 0 14 -5 35 -10
46 -11 19 -35 26 -43 12z"/>
<path d="M13018 2315 c-12 -22 -18 -65 -8 -65 5 0 12 11 16 25 6 26 1 55 -8
40z"/>
<path d="M13824 2515 c-7 -17 12 -45 31 -45 7 0 18 7 25 15 10 12 10 18 0 30
-16 19 -49 19 -56 0z m44 -13 c2 -7 -3 -12 -12 -12 -9 0 -16 7 -16 16 0 17 22
14 28 -4z"/>
<path d="M13965 2214 c-13 -20 -14 -28 -4 -40 26 -32 51 -9 42 39 -7 34 -16
34 -38 1z"/>
<path d="M13466 2053 c-4 -10 -10 -51 -13 -93 -5 -63 -3 -79 11 -93 22 -22
109 -47 162 -47 l42 0 6 63 c13 149 14 173 3 150 -8 -18 -15 -21 -46 -17 -71
10 -132 26 -145 40 -12 11 -15 11 -20 -3z m52 -27 c22 -8 65 -17 97 -21 57 -8
57 -8 51 -38 -3 -16 -6 -54 -6 -84 l0 -55 -52 7 c-68 9 -126 33 -138 55 -8 14
-3 150 5 150 1 0 21 -6 43 -14z"/>
<path d="M13810 2025 c-20 -25 -8 -50 25 -50 36 0 47 31 19 52 -23 17 -29 16
-44 -2z m40 -25 c0 -11 -7 -20 -15 -20 -8 0 -15 9 -15 20 0 11 7 20 15 20 8 0
15 -9 15 -20z"/>
<path d="M14323 1995 c-16 -17 -120 -28 -230 -24 l-88 4 -3 -65 c-5 -99 -1
-107 65 -126 67 -20 187 -15 246 9 l37 16 -1 78 c-1 96 -9 127 -26 108z m-158
-40 c44 0 99 3 123 8 l42 7 0 -73 0 -74 -39 -11 c-48 -15 -183 -15 -233 -1
l-38 10 0 75 0 76 33 -9 c17 -4 68 -8 112 -8z"/>
<path d="M13802 1828 c-30 -30 1 -73 36 -51 23 14 25 29 7 47 -20 19 -27 20
-43 4z m36 -25 c-4 -22 -22 -20 -26 1 -2 10 3 16 13 16 10 0 15 -7 13 -17z"/>
<path d="M3204 4846 c-85 -20 -178 -69 -242 -129 -60 -58 -136 -176 -127 -199
4 -9 27 -30 53 -49 26 -18 74 -57 108 -86 34 -29 75 -56 92 -59 27 -5 38 1
108 66 43 40 93 79 111 86 67 29 143 10 143 -35 0 -45 -92 -117 -339 -265
-128 -77 -243 -147 -254 -157 -19 -15 -23 -34 -34 -160 -10 -118 -10 -146 1
-154 7 -6 78 -18 157 -28 204 -26 184 -16 184 -89 1 -43 7 -73 20 -95 18 -31
18 -33 1 -72 -11 -23 -17 -54 -14 -75 4 -34 3 -35 -37 -41 -83 -14 -292 -57
-348 -72 -64 -18 -97 -49 -97 -92 0 -14 20 -74 43 -132 l43 -106 -28 -16 c-15
-9 -35 -32 -45 -52 -14 -29 -15 -41 -5 -68 6 -17 9 -42 6 -54 -4 -14 0 -33 10
-48 9 -13 16 -35 16 -47 0 -13 9 -38 20 -56 11 -18 20 -41 20 -50 0 -19 34
-62 49 -62 5 0 24 -23 42 -51 34 -54 90 -100 148 -125 49 -21 159 -18 204 5
20 10 34 14 31 9 -12 -19 -33 -231 -40 -390 -7 -144 -6 -160 11 -178 10 -11
23 -20 29 -20 8 0 12 -64 13 -203 1 -111 6 -251 12 -312 6 -60 14 -139 17
-176 l7 -65 -68 -33 c-78 -39 -160 -113 -170 -154 -11 -42 9 -76 58 -97 126
-56 387 -49 487 13 22 14 53 22 86 23 104 3 146 50 122 139 -9 37 -12 120 -10
309 1 143 4 261 5 263 2 1 12 0 22 -3 16 -4 41 -62 116 -271 l95 -265 -13 -53
c-21 -84 8 -129 93 -142 22 -3 66 -18 99 -34 82 -39 176 -53 306 -46 167 9
229 45 214 124 -8 44 -81 118 -151 153 l-51 25 -7 270 c-4 149 -13 317 -20
375 -12 92 -12 106 1 115 9 6 29 19 47 31 l31 20 -3 100 c-2 54 -10 161 -19
237 l-15 139 26 47 c75 139 75 363 -2 505 -43 80 -132 169 -212 210 -38 21
-70 39 -70 41 0 1 16 27 36 56 19 29 38 66 41 81 4 23 11 28 34 28 95 0 168
86 169 198 0 65 -18 110 -58 144 -27 22 -30 30 -25 65 17 131 -75 273 -180
277 -36 2 -53 10 -90 42 -63 56 -151 101 -243 124 -106 27 -263 27 -368 0 -43
-12 -86 -20 -95 -18 -10 2 26 32 90 76 126 85 200 161 237 239 24 52 27 69 27
173 0 105 -2 119 -27 165 -46 88 -128 151 -258 197 -72 26 -287 34 -376 14z
m314 -32 c136 -28 236 -92 287 -185 28 -50 30 -61 30 -159 0 -98 -2 -110 -32
-170 -18 -36 -51 -84 -75 -107 -43 -42 -192 -143 -290 -197 l-53 -30 50 -11
50 -11 -42 -27 c-23 -14 -56 -44 -74 -67 -18 -22 -39 -40 -48 -40 -36 0 -98
-41 -120 -80 -22 -40 -24 -41 -64 -36 -23 3 -87 11 -142 16 -163 18 -147 1
-139 143 5 93 10 126 23 139 9 9 111 74 226 143 256 155 327 205 354 249 49
79 13 132 -89 130 -71 0 -118 -25 -195 -103 -33 -34 -65 -61 -72 -61 -7 0 -54
33 -105 73 -52 39 -105 79 -118 88 l-25 17 19 33 c108 187 247 267 469 268 54
1 133 -6 175 -15z m423 -838 c77 -17 192 -72 243 -117 l36 -31 -24 -31 c-68
-91 -44 -264 48 -345 20 -17 36 -36 36 -42 0 -21 26 -9 42 19 20 35 69 63 114
64 109 3 143 -187 50 -273 -20 -18 -42 -26 -83 -30 -56 -5 -56 -5 -68 -47 -41
-138 -155 -234 -345 -289 -52 -15 -96 -19 -215 -18 -167 1 -239 17 -328 74
-52 33 -54 36 -131 221 l-56 136 15 43 c8 23 15 77 15 119 0 281 71 422 255
507 41 19 91 38 112 43 59 14 211 12 284 -3z m424 -196 c56 -35 101 -147 88
-223 -4 -28 -10 -37 -25 -37 -29 0 -83 -26 -107 -51 l-21 -23 -28 20 c-45 33
-82 119 -83 194 -1 75 14 115 50 136 31 17 83 10 126 -16z m-1066 -66 c-16
-35 -24 -76 -27 -147 -4 -80 -7 -97 -20 -95 -26 5 -52 52 -59 105 -5 44 -1 61
21 106 23 49 44 68 86 80 22 6 22 4 -1 -49z m-39 -309 c0 -26 -3 -33 -15 -29
-17 7 -21 -11 -5 -21 10 -6 14 -75 4 -75 -3 0 -14 5 -25 10 -37 21 -20 150 21
150 16 0 20 -7 20 -35z m-111 -312 c41 -83 73 -172 65 -184 -3 -5 -14 -9 -25
-9 -14 0 -26 13 -40 48 -12 26 -36 79 -54 118 -24 53 -30 75 -22 83 24 24 43
10 76 -56z m-66 -55 c27 -58 58 -140 54 -145 -3 -2 -17 -5 -31 -6 -25 -2 -29
4 -56 73 -37 93 -38 110 -6 110 17 0 28 -9 39 -32z m-41 -121 c9 -31 9 -40 -2
-47 -22 -14 -37 -1 -59 51 l-20 50 22 9 c27 10 42 -7 59 -63z m1323 -12 c163
-91 244 -249 232 -454 -8 -155 -59 -268 -143 -317 -92 -54 -232 -41 -387 38
l-59 29 34 32 c19 18 48 55 64 82 26 45 29 59 29 138 0 54 4 86 10 83 6 -2 37
-11 70 -21 32 -9 81 -28 107 -41 26 -13 48 -21 48 -16 0 15 -86 63 -142 80
-32 9 -58 21 -58 26 0 21 68 133 108 177 24 27 39 49 33 49 -26 0 -102 -86
-137 -154 l-37 -72 -81 34 c-44 19 -93 36 -108 36 -37 1 -35 9 7 29 19 9 35
21 35 26 0 5 23 3 53 -4 110 -27 115 -27 130 3 8 15 33 80 58 144 34 90 48
117 59 112 8 -3 42 -20 75 -39z m-170 -81 c-25 -60 -50 -113 -55 -118 -7 -7
-98 4 -167 20 -18 5 -21 2 -16 -14 4 -15 -3 -22 -28 -31 -24 -8 -35 -8 -45 0
-21 17 -17 28 30 84 37 43 53 53 96 63 57 13 193 77 211 98 25 30 18 3 -26
-102z m-1217 54 c3 -25 0 -28 -27 -28 -38 0 -57 28 -33 47 28 21 57 12 60 -19z
m-120 -10 c14 -14 16 -57 3 -77 -12 -18 -117 -31 -131 -17 -32 32 25 106 82
106 19 0 39 -5 46 -12z m586 -4 c3 -9 6 -23 6 -32 -1 -12 -5 -10 -15 8 -8 14
-14 28 -15 33 0 13 18 7 24 -9z m-194 -4 c0 -13 -48 -36 -56 -27 -4 3 -4 13
-1 22 7 17 57 21 57 5z m278 -57 c-42 -18 -58 -10 -58 27 l0 30 45 -22 45 -22
-32 -13z m-385 -3 c-19 -33 -57 -53 -46 -23 4 9 -2 16 -15 20 -11 3 -23 11
-26 19 -7 18 -1 18 28 -1 22 -15 24 -14 41 11 25 39 41 16 18 -26z m-130 4
c32 -10 17 -23 -20 -18 -53 8 -63 12 -63 24 0 11 30 8 83 -6z m761 -28 c18
-13 55 -58 82 -100 27 -42 57 -78 67 -82 28 -9 23 -91 -11 -155 -28 -54 -28
-54 -78 -55 -27 -1 -60 4 -74 11 -21 11 -29 11 -45 -1 -26 -19 -69 -18 -86 2
-12 15 -7 23 41 65 63 57 49 65 -23 13 -48 -34 -51 -35 -64 -18 -7 10 -13 24
-13 32 0 16 73 92 105 110 37 20 7 23 -33 3 -37 -19 -83 -64 -95 -93 -4 -10
-10 -8 -21 6 -41 51 1 128 94 174 33 17 56 33 52 36 -16 10 -80 -14 -132 -50
-50 -34 -52 -35 -76 -19 -37 24 -29 62 21 97 88 61 226 72 289 24z m102 -5
l-29 -30 -17 22 c-24 29 -17 37 32 37 l42 0 -28 -29z m-982 -27 c39 -38 5 -82
-71 -91 -43 -5 -54 -2 -72 16 -14 14 -21 32 -19 48 3 24 7 26 56 28 29 1 55 5
59 8 11 12 31 8 47 -9z m469 -48 c10 -31 1 -48 -13 -26 -8 13 -10 12 -10 -2 0
-10 -6 -18 -14 -18 -8 0 -17 8 -19 18 -4 13 -5 11 -6 -5 -1 -25 -21 -32 -21
-9 0 8 -5 18 -11 22 -7 4 -9 0 -5 -12 3 -11 -3 -29 -14 -44 -15 -19 -20 -21
-20 -8 0 9 -4 18 -9 20 -4 2 -12 13 -15 26 -6 19 -4 22 18 22 14 0 26 5 26 11
0 6 9 9 20 6 11 -3 23 -1 26 5 3 5 12 7 20 4 8 -3 14 1 14 10 0 24 23 11 33
-20z m32 -3 c3 -13 2 -23 -3 -23 -11 0 -22 24 -22 48 0 21 15 5 25 -25z m-241
-18 c-17 -13 -17 -14 -2 -15 9 0 20 5 24 11 4 8 9 7 15 -2 11 -17 12 -50 2
-47 -5 0 -16 -2 -26 -7 -23 -10 -36 3 -17 15 13 8 12 10 -2 10 -26 0 -33 21
-13 37 11 7 23 13 29 13 5 0 1 -7 -10 -15z m-218 -50 c13 -20 14 -28 4 -40
-13 -16 -72 -35 -109 -35 -30 0 -71 36 -71 62 0 14 8 18 43 19 23 0 51 4 62 9
35 15 54 11 71 -15z m124 10 c14 17 50 3 50 -20 0 -16 -6 -20 -41 -28 -21 -5
-28 -2 -37 19 -16 34 -15 53 2 31 12 -15 15 -15 26 -2z m-41 -21 c17 -37 9
-39 -18 -4 -15 21 -18 30 -8 30 8 0 19 -12 26 -26z m979 -18 c26 -13 64 -29
85 -35 l37 -13 0 -71 c0 -56 -6 -84 -26 -127 -24 -53 -88 -130 -107 -130 -12
0 -156 83 -156 90 -1 3 14 12 32 20 20 10 44 36 66 73 29 49 34 69 35 122 1
53 -2 67 -19 79 -31 24 0 19 53 -8z m-1050 -58 c33 -33 2 -78 -53 -78 -24 0
-85 25 -85 34 0 3 -3 11 -6 20 -5 13 2 16 32 17 22 1 50 5 64 9 35 11 35 11
48 -2z m585 -78 c15 -7 30 -23 33 -36 8 -31 43 -61 84 -71 29 -8 35 -14 33
-34 0 -13 -7 -94 -13 -180 -7 -85 -11 -242 -9 -348 l4 -193 -46 6 c-111 15
-308 81 -368 123 -24 16 -24 17 -17 162 3 80 13 206 21 280 12 116 17 137 38
160 38 42 57 74 57 98 0 15 7 24 23 28 42 9 122 23 127 21 3 -1 17 -8 33 -16z
m-562 -46 c23 -25 27 -26 104 -20 44 3 118 15 164 26 46 11 86 18 89 16 11
-11 -66 -101 -102 -120 -56 -28 -145 -33 -204 -11 -43 17 -142 97 -142 116 0
4 12 10 28 12 15 2 30 5 33 6 3 0 16 -11 30 -25z m864 -63 c3 -5 1 -12 -5 -16
-5 -3 -10 1 -10 9 0 18 6 21 15 7z m-42 -16 c-9 -26 65 -85 201 -159 172 -93
193 -100 306 -101 100 0 141 11 196 51 l32 23 6 -48 c9 -68 26 -287 26 -342
l0 -46 -60 -27 c-175 -79 -368 -111 -621 -104 -97 3 -182 8 -188 12 -14 9 -15
276 -1 527 14 241 10 229 65 229 36 0 43 -3 38 -15z"/>
<path d="M3807 3704 c-40 -41 67 -103 151 -88 50 9 38 24 -20 24 -59 1 -95 16
-112 49 -7 12 -15 18 -19 15z"/>
<path d="M3600 3665 c-28 -30 -82 -49 -116 -41 -13 4 -24 2 -24 -3 0 -16 66
-24 103 -12 42 14 85 57 71 71 -7 7 -18 2 -34 -15z"/>
<path d="M3640 3615 c-8 -9 -8 -15 -2 -15 12 0 26 19 19 26 -2 2 -10 -2 -17
-11z"/>
<path d="M3780 3621 c0 -5 5 -13 10 -16 6 -3 10 -2 10 4 0 5 -4 13 -10 16 -5
3 -10 2 -10 -4z"/>
<path d="M3520 3488 c-25 -27 -27 -93 -4 -126 18 -26 56 -29 75 -5 21 25 18
107 -5 132 -24 27 -40 27 -66 -1z"/>
<path d="M3846 3488 c-24 -34 -20 -92 7 -124 55 -63 114 34 72 116 -19 37 -57
40 -79 8z"/>
<path d="M4412 3394 c-29 -20 -57 -73 -44 -86 5 -5 16 1 26 17 14 21 20 24 32
14 8 -6 14 -18 14 -25 0 -8 5 -14 10 -14 6 0 10 11 10 24 0 14 -4 28 -10 31
-15 10 -12 35 5 35 8 0 15 5 15 10 0 15 -33 12 -58 -6z"/>
<path d="M3645 3366 c-47 -13 -85 -45 -85 -71 0 -7 -13 -15 -29 -18 -16 -3
-50 -25 -76 -47 -45 -39 -51 -41 -92 -35 -38 5 -43 4 -43 -13 0 -32 56 -98
102 -120 24 -12 68 -23 98 -26 42 -3 55 -8 61 -24 11 -30 21 -32 73 -15 48 16
68 14 154 -12 18 -6 24 -3 32 21 10 28 13 29 73 30 34 0 79 6 100 13 67 22
127 89 127 140 0 18 -5 19 -48 14 -43 -5 -52 -2 -94 30 -63 48 -81 57 -120 57
-24 0 -36 6 -43 22 -25 54 -105 77 -190 54z m154 -40 c41 -37 19 -75 -54 -95
-55 -15 -91 -14 -125 4 -24 13 -30 22 -30 50 0 27 6 38 28 50 39 22 153 16
181 -9z m114 -67 c12 -7 40 -26 62 -43 30 -23 53 -32 95 -36 l55 -5 -45 -46
c-50 -52 -94 -69 -180 -69 -70 0 -113 12 -162 46 -35 25 -40 26 -56 11 -32
-29 -106 -57 -152 -57 -71 0 -149 44 -180 101 -8 13 -2 16 34 15 35 -1 52 5
82 30 67 53 85 60 103 36 24 -30 55 -42 106 -42 69 0 134 19 153 46 19 26 51
30 85 13z"/>
<path d="M3220 2661 c0 -5 5 -13 10 -16 6 -3 10 -2 10 4 0 5 -4 13 -10 16 -5
3 -10 2 -10 -4z"/>
<path d="M3070 2621 c0 -6 5 -13 10 -16 6 -3 10 1 10 9 0 9 -4 16 -10 16 -5 0
-10 -4 -10 -9z"/>
<path d="M3293 2093 c-4 -27 -8 -86 -8 -132 0 -78 2 -85 25 -102 38 -29 153
-54 192 -43 40 12 47 39 47 191 l1 101 -42 6 c-24 4 -71 12 -106 18 -35 6 -65
8 -68 5 -7 -6 84 -27 154 -34 45 -5 52 -9 52 -27 0 -44 -12 -49 -86 -37 -38 6
-86 16 -108 22 -36 10 -38 12 -34 45 6 52 -10 41 -19 -13z m170 -71 l68 -5 -3
-91 -3 -91 -68 2 c-41 2 -85 10 -112 22 l-45 20 0 84 c0 46 2 86 5 89 3 3 25
-1 48 -9 23 -9 73 -18 110 -21z"/>
<path d="M3736 2304 c-15 -14 -15 -19 -3 -38 17 -26 46 -27 61 -3 23 37 -27
73 -58 41z m49 -24 c0 -22 -39 -19 -43 3 -3 15 1 18 20 15 12 -2 23 -10 23
-18z"/>
<path d="M3936 2027 c-5 -33 -5 -95 0 -140 9 -77 11 -83 39 -96 70 -34 277
-22 327 19 21 17 23 24 20 117 -2 54 -8 105 -13 113 -7 12 -8 11 -9 -7 0 -18
-9 -23 -50 -32 -55 -12 -219 -15 -268 -5 -28 6 -31 10 -34 48 -3 40 -4 40 -12
-17z m368 -108 c4 -46 3 -76 -4 -85 -26 -30 -222 -46 -301 -24 -34 9 -37 14
-43 56 -3 26 -6 62 -6 81 l0 35 43 -8 c54 -9 202 -6 247 5 19 5 40 9 46 10 7
1 14 -28 18 -70z"/>
<path d="M4008 2073 c23 -2 61 -2 85 0 23 2 4 4 -43 4 -47 0 -66 -2 -42 -4z"/>
<path d="M3720 2055 c-27 -32 23 -82 55 -55 20 16 19 56 -1 64 -25 10 -41 7
-54 -9z m56 -34 c-10 -16 -36 -13 -43 5 -8 22 18 37 36 20 7 -8 10 -19 7 -25z"/>
<path d="M3710 1821 c-7 -15 -5 -24 8 -41 32 -40 85 -4 62 41 -14 25 -56 25
-70 0z m56 -30 c-9 -14 -33 -14 -41 -1 -4 6 -1 18 6 26 11 13 14 13 27 0 8 -8
11 -19 8 -25z"/>
<path d="M7760 4723 c-151 -157 -164 -175 -155 -202 5 -18 261 -191 282 -191
6 0 43 27 82 60 65 54 131 98 131 86 0 -3 -27 -26 -60 -51 l-60 -46 0 -114 c0
-70 4 -116 11 -120 5 -4 52 -11 102 -15 137 -12 207 -46 207 -102 0 -78 -123
-111 -223 -61 -19 10 -37 33 -53 69 l-24 54 -87 -1 c-49 0 -133 -6 -188 -12
l-100 -12 2 -62 c5 -114 68 -236 159 -306 67 -51 116 -73 214 -98 72 -18 103
-21 205 -16 136 6 211 24 306 72 l67 33 61 -34 c34 -19 70 -34 81 -34 24 0 24
1 5 -43 -8 -20 -15 -62 -15 -94 l0 -58 -72 1 c-40 1 -107 -5 -148 -13 -41 -9
-93 -19 -115 -22 -22 -4 -50 -12 -61 -19 -27 -15 -48 -64 -42 -102 l5 -30
-402 0 c-428 0 -457 -3 -527 -52 l-28 -19 0 -382 0 -381 -27 26 c-16 14 -39
31 -52 38 -33 17 -45 1 -51 -73 l-5 -62 -55 0 -55 0 -5 65 c-6 75 -20 85 -70
50 -102 -73 -110 -231 -16 -319 l26 -24 0 -199 0 -199 -52 -105 c-33 -68 -59
-109 -73 -116 -28 -13 -35 -61 -35 -244 0 -148 8 -168 71 -189 25 -9 36 -20
43 -45 14 -48 78 -112 108 -108 20 3 23 9 26 48 4 69 4 69 59 55 l48 -12 5
-49 c4 -40 9 -50 26 -52 12 -2 35 8 51 22 30 25 30 25 86 9 52 -14 64 -14 149
1 214 39 791 166 804 177 9 7 14 32 14 70 l0 59 197 0 196 0 -24 -26 c-48 -51
-25 -129 46 -160 98 -41 314 -37 434 8 35 13 76 20 109 19 30 -1 69 3 87 8
l34 9 11 -51 c21 -100 75 -153 185 -182 130 -33 310 -11 555 71 l134 45 47
-20 c61 -27 180 -45 236 -36 29 4 55 16 70 32 22 21 25 31 21 77 -8 97 -74
196 -170 257 -29 18 -74 52 -100 76 -67 61 -129 79 -180 52 -11 -6 -21 -9 -23
-7 -2 2 2 29 10 60 7 31 16 88 20 127 l7 71 56 28 57 27 3 53 c8 144 -98 596
-212 899 -87 233 -155 334 -275 408 l-57 36 20 45 c19 39 24 44 47 39 31 -7
76 9 108 38 69 64 81 196 23 260 -13 15 -17 39 -17 110 0 57 -6 101 -14 117
-31 58 -97 110 -140 110 -12 0 -50 29 -89 69 -189 189 -509 235 -722 106 -30
-19 -76 -54 -101 -78 -25 -25 -60 -48 -78 -52 -43 -9 -97 -58 -111 -100 -11
-34 -12 -34 -38 -20 -56 30 -57 30 -35 61 38 55 48 97 48 194 0 83 -3 102 -27
150 -36 72 -108 145 -183 182 l-60 31 29 21 c16 12 57 41 90 66 l61 45 0 140
c0 139 0 140 -25 151 -20 9 -623 65 -692 64 -9 0 -76 -62 -148 -137z m515 81
c171 -15 313 -29 317 -33 3 -3 4 -63 1 -133 l-6 -127 -91 -59 c-50 -32 -102
-65 -116 -72 l-25 -14 39 -8 c98 -21 212 -107 255 -193 45 -90 45 -210 1 -314
-23 -51 -23 -52 -47 -35 -33 21 -108 11 -123 -17 -7 -12 -21 -19 -40 -19 -17
0 -30 -4 -30 -9 0 -5 -8 -12 -17 -15 -10 -4 -33 -20 -52 -36 -18 -17 -43 -30
-55 -31 -11 0 -15 -3 -8 -6 19 -8 153 28 158 42 3 7 13 11 22 8 21 -5 57 24
66 55 11 35 31 20 31 -23 0 -33 -5 -41 -36 -62 -121 -80 -359 -110 -536 -67
-107 26 -238 127 -281 216 -22 44 -58 175 -51 182 6 6 217 26 275 26 51 0 53
-1 64 -35 26 -80 133 -127 237 -105 156 34 136 193 -27 229 -25 6 -78 11 -118
13 l-72 3 0 99 0 100 33 28 c17 15 71 58 119 95 48 36 86 68 85 70 -6 6 -112
-29 -157 -52 -25 -13 -83 -51 -129 -85 -74 -55 -85 -60 -99 -47 -10 8 -67 46
-127 83 -61 38 -111 74 -112 79 -1 6 64 77 144 158 128 130 149 147 172 143
14 -3 166 -17 336 -32z m1223 -789 c89 -28 177 -82 240 -147 l42 -44 -25 -24
c-55 -52 -65 -184 -20 -276 15 -30 36 -60 46 -67 10 -6 19 -17 19 -24 0 -20 8
-16 41 22 55 62 136 58 165 -10 21 -51 17 -102 -11 -150 -27 -47 -67 -69 -124
-67 -35 2 -38 -1 -63 -52 -72 -147 -221 -230 -433 -243 -220 -13 -401 57 -507
199 -80 106 -92 168 -59 299 10 41 22 116 26 168 13 178 59 271 178 354 139
99 303 120 485 62z m-645 -201 c-19 -30 -43 -125 -43 -176 0 -43 -1 -44 -36
-22 -23 16 -24 20 -18 78 7 69 28 109 69 136 36 24 50 16 28 -16z m1038 -37
c44 -29 73 -89 73 -152 1 -60 -11 -108 -24 -100 -16 10 -86 -14 -105 -35 -17
-19 -19 -19 -38 -3 -68 62 -83 237 -26 294 26 26 78 24 120 -4z m-1210 -44
c27 -14 49 -29 49 -32 0 -3 -9 -12 -20 -19 -16 -10 -27 -10 -54 2 -40 17 -47
26 -39 54 7 27 5 27 64 -5z m57 -87 c-2 -10 -7 -13 -17 -7 -8 6 -11 16 -7 27
8 21 30 4 24 -20z m64 -101 c-4 -31 -7 -35 -26 -29 -21 7 -21 6 -3 -14 19 -20
17 -64 -3 -100 -9 -18 -40 45 -40 82 0 48 26 96 52 96 21 0 24 -4 20 -35z
m-92 -160 c7 -9 17 -39 21 -68 5 -28 18 -64 29 -79 l21 -28 -33 0 c-18 0 -40
5 -48 10 -13 8 -13 13 3 39 9 16 17 32 17 35 0 15 -39 -16 -61 -48 -26 -39
-58 -47 -79 -21 -19 23 3 87 47 136 38 41 63 49 83 24z m-110 -1 c0 -3 -11
-22 -25 -42 -20 -29 -25 -49 -25 -94 0 -54 -1 -58 -24 -58 -53 0 -65 70 -25
150 22 46 27 50 62 50 20 0 37 -2 37 -6z m-122 -34 c-15 -20 -23 -49 -26 -89
-5 -67 -21 -82 -52 -51 -25 25 -25 70 0 119 21 43 31 49 73 50 l28 1 -23 -30z
m-108 -22 c-11 -18 -20 -50 -20 -70 0 -27 -4 -38 -15 -38 -19 0 -35 31 -35 69
0 32 38 71 71 71 18 0 18 -1 -1 -32z m-20 -232 c19 -31 71 -114 116 -185 107
-170 138 -227 131 -245 -6 -14 -44 -16 -310 -16 -333 0 -352 3 -330 52 9 20
121 195 260 405 53 80 78 77 133 -11z m613 -198 c-5 -86 -4 -98 11 -98 11 0
16 -9 16 -32 0 -64 -13 -63 -73 2 l-57 61 0 125 0 124 55 -42 54 -43 -6 -97z
m881 156 c28 -14 77 -50 108 -81 130 -128 180 -343 129 -546 -44 -172 -122
-255 -269 -286 -54 -11 -252 -16 -252 -6 0 4 6 18 14 33 37 72 38 192 1 265
-8 17 -13 32 -11 35 3 2 51 6 108 9 95 4 107 3 151 -20 26 -14 46 -20 44 -13
-1 6 -22 21 -46 33 -24 12 -46 25 -50 29 -7 8 83 -1 114 -11 20 -7 20 -6 1 9
-29 24 -80 30 -136 16 -28 -7 -53 -10 -56 -7 -6 6 52 241 66 267 5 10 10 25
10 32 -2 28 -58 -102 -79 -182 -35 -133 -30 -126 -102 -133 -34 -4 -99 -7
-145 -7 -55 0 -84 -4 -86 -12 -5 -15 -70 33 -93 69 -12 18 -16 39 -12 71 3 27
1 39 -4 31 -5 -8 -9 -29 -9 -46 0 -18 -4 -33 -9 -33 -5 0 -31 15 -57 33 -107
74 -159 84 -59 12 l50 -36 -40 3 c-37 3 -42 7 -68 56 -16 28 -32 52 -38 52 -5
0 -9 24 -9 54 0 47 3 54 23 60 38 10 67 7 73 -9 7 -18 104 -78 112 -70 4 3 2
9 -4 13 -61 41 -84 66 -78 85 6 19 3 19 -62 12 -37 -4 -74 -10 -82 -13 -13 -4
-14 3 -8 49 12 88 16 101 35 93 9 -4 42 -16 73 -28 50 -19 61 -28 83 -71 15
-27 43 -73 63 -104 l36 -54 36 43 c97 120 140 158 193 170 69 17 160 53 199
81 20 15 29 18 26 8 -8 -17 -63 -158 -71 -180 -5 -15 -11 -15 -74 2 -78 22
-116 24 -111 7 4 -12 109 -38 167 -41 l34 -2 55 143 c30 78 57 142 60 142 2 0
27 -12 56 -26z m-1157 -11 c4 -10 15 -29 25 -42 25 -32 23 -49 -3 -25 -11 10
-26 19 -32 20 -7 0 -17 2 -24 2 -16 2 -36 39 -28 52 10 17 55 11 62 -7z m-982
-25 c-10 -45 -10 -45 -42 -41 -24 4 -28 9 -29 39 0 33 1 34 39 34 38 0 39 0
32 -32z m975 -48 c0 -5 -10 -10 -22 -10 -19 0 -20 2 -8 10 19 13 30 13 30 0z
m99 -28 c-11 -17 -3 -31 66 -123 83 -112 97 -134 74 -127 -8 2 -42 42 -76 89
-35 46 -72 95 -83 107 -23 27 -26 52 -6 52 8 0 17 7 20 16 4 9 9 14 12 11 3
-3 0 -14 -7 -25z m602 -67 c-9 -12 -36 -44 -60 -72 l-45 -52 -16 27 c-9 15
-29 48 -43 73 l-27 46 103 -1 c104 -1 104 -1 88 -21z m-1676 -145 c0 -23 -69
-20 -73 3 -3 16 2 18 35 15 26 -2 38 -8 38 -18z m1003 -32 c3 -25 0 -28 -28
-28 -32 0 -47 18 -36 46 4 10 15 14 33 12 22 -2 29 -9 31 -30z m-1000 -15 c-2
-13 -14 -19 -41 -21 -32 -3 -37 0 -37 17 0 18 6 21 41 21 33 0 40 -3 37 -17z
m1165 2 c4 -8 2 -17 -3 -20 -6 -4 -10 3 -10 14 0 25 6 27 13 6z m1302 -187
c49 -159 59 -197 94 -353 42 -184 50 -229 59 -324 l8 -84 -51 -23 c-28 -13
-103 -38 -166 -55 -99 -27 -136 -32 -280 -36 -177 -6 -257 3 -367 38 -34 11
-66 28 -71 37 -19 38 -91 401 -91 462 0 21 1 22 18 7 58 -53 364 -86 491 -52
83 21 148 55 188 97 63 66 112 216 113 346 0 34 4 62 8 62 5 0 26 -55 47 -122z
m-891 -8 c28 -27 62 -50 76 -52 22 -3 26 -9 34 -66 11 -80 -4 -142 -36 -142
-12 0 -29 -7 -39 -16 -10 -9 -39 -19 -63 -21 -25 -3 -51 -12 -57 -19 -16 -20
-43 -17 -70 6 l-24 19 45 40 c51 46 40 54 -21 15 -39 -24 -41 -25 -55 -7 -20
27 -18 33 31 80 25 24 41 43 35 43 -17 0 -65 -27 -79 -44 -18 -21 -28 -20 -36
3 -10 31 11 67 60 102 63 45 36 50 -42 8 -50 -27 -66 -32 -80 -23 -60 38 6 99
147 134 78 20 96 14 174 -60z m-374 -10 c-11 -39 8 -73 48 -85 27 -8 32 -14
32 -41 0 -29 -2 -31 -32 -28 -45 6 -78 40 -78 81 0 20 -4 32 -10 28 -6 -4 -9
14 -9 47 1 29 4 43 6 31 3 -18 7 -20 18 -10 10 9 10 16 2 27 -7 8 -2 7 10 -3
17 -15 20 -24 13 -47z m565 -20 l73 0 19 -47 c25 -66 23 -164 -5 -225 -24 -55
-30 -56 -127 -32 l-64 16 26 35 c32 41 40 110 23 183 -9 36 -18 54 -31 57 -11
3 -19 10 -19 15 0 6 7 7 16 4 9 -3 49 -6 89 -6z m-2205 -42 c78 -77 80 -177 6
-277 l-26 -35 0 -444 0 -444 -22 6 c-58 16 -105 17 -145 3 l-43 -15 0 445 c0
420 1 445 18 438 9 -4 42 -10 73 -12 l55 -5 -4 -407 c-3 -340 -2 -404 10 -393
10 10 13 85 13 380 0 202 -2 386 -4 408 l-4 42 -69 4 c-109 8 -166 56 -183
155 -5 31 -2 52 13 85 20 44 67 96 78 86 3 -4 8 -26 11 -50 9 -73 15 -78 88
-78 35 0 66 4 69 9 4 5 9 37 12 70 4 34 10 61 14 61 3 0 21 -15 40 -32z m440
-15 c0 -34 -13 -44 -24 -18 -6 16 -36 21 -36 7 0 -5 14 -18 30 -30 38 -28 39
-59 4 -118 l-27 -45 32 -39 c30 -37 30 -41 21 -91 -6 -28 -10 -53 -10 -55 0
-2 -13 -4 -30 -4 -26 0 -30 4 -30 27 0 21 3 24 12 15 17 -17 38 -15 38 3 0 9
-9 15 -25 15 -16 0 -25 6 -25 15 0 11 11 15 36 15 l36 0 -36 40 c-41 46 -45
74 -15 106 11 12 22 37 22 55 2 27 -2 34 -21 38 -20 5 -24 13 -27 51 l-2 45
38 0 c38 1 39 0 39 -32z m838 -17 c3 -24 0 -27 -20 -24 -26 3 -37 36 -16 49
20 13 33 5 36 -25z m489 -120 c44 -83 72 -115 114 -127 33 -10 47 -10 72 0 67
27 64 29 77 -51 15 -95 66 -337 76 -362 16 -40 -16 -4 -62 72 -77 124 -133
192 -190 228 -29 19 -57 34 -63 34 -5 0 -12 4 -15 9 -5 8 -36 198 -36 221 0
19 10 10 27 -24z m-34 -138 c4 -46 3 -56 -9 -51 -11 4 -14 28 -13 112 1 93 2
99 9 51 4 -30 10 -81 13 -112z m353 55 c-10 -10 -19 5 -10 18 6 11 8 11 12 0
2 -7 1 -15 -2 -18z m-2036 -172 c0 -120 -1 -129 -20 -134 -19 -5 -20 0 -20
114 0 114 7 147 33 149 4 0 7 -58 7 -129z m1228 67 c7 -7 12 -20 12 -30 0 -23
-58 -26 -66 -3 -14 37 26 61 54 33z m154 -14 c14 -30 -2 -46 -42 -42 -28 3
-38 31 -20 53 19 23 49 18 62 -11z m-769 -131 c-7 -2 -19 -2 -25 0 -7 3 -2 5
12 5 14 0 19 -2 13 -5z m108 -29 c9 -11 2 -9 -18 6 -18 13 -33 25 -33 27 0 8
38 -17 51 -33z m-168 19 c-7 -2 -19 -2 -25 0 -7 3 -2 5 12 5 14 0 19 -2 13 -5z
m-70 -10 c-7 -2 -19 -2 -25 0 -7 3 -2 5 12 5 14 0 19 -2 13 -5z m-65 -10 c-10
-2 -26 -2 -35 0 -10 3 -2 5 17 5 19 0 27 -2 18 -5z m-65 -10 c-7 -2 -19 -2
-25 0 -7 3 -2 5 12 5 14 0 19 -2 13 -5z m345 -125 c-330 -62 -422 -77 -427
-72 -9 9 30 34 53 34 12 0 107 13 211 29 105 16 212 32 239 36 l48 7 -33 36
c-33 36 -33 36 9 -3 l43 -40 -143 -27z m-498 17 c10 -12 15 -13 20 -4 15 23
30 -3 30 -52 0 -95 -51 -164 -119 -163 -45 2 -87 27 -95 57 -6 25 5 82 23 115
27 51 114 79 141 47z m-190 -55 c8 -5 12 -11 10 -14 -3 -2 -14 2 -24 10 -22
15 -10 19 14 4z m807 -71 c-39 -32 -48 -65 -20 -76 20 -8 63 39 63 68 0 10 5
19 10 19 18 0 10 -36 -21 -99 -32 -65 -57 -84 -122 -96 l-36 -7 24 63 c14 34
33 72 42 83 46 56 68 76 82 76 9 0 0 -13 -22 -31z m-147 -87 c-26 -46 -37 -58
-52 -54 -10 2 -21 8 -24 13 -6 11 18 58 52 98 24 29 29 31 42 18 13 -13 10
-22 -18 -75z m-557 -78 c-9 -18 -21 -30 -26 -27 -6 4 -8 0 -5 -8 3 -8 2 -23
-3 -34 -6 -16 -8 -17 -8 -3 -1 9 -10 19 -20 23 -19 6 -34 32 -30 51 4 22 -2
35 -12 28 -7 -4 -4 6 6 23 l17 29 48 -24 49 -24 -16 -34z m409 59 c34 -30 12
-90 -43 -119 -40 -20 -56 -18 -63 11 -6 25 -20 33 -31 16 -3 -5 2 -17 11 -25
8 -9 11 -16 6 -16 -54 0 -57 54 -6 110 29 32 43 40 72 40 19 0 44 -7 54 -17z
m93 -73 c17 -18 16 -19 -9 -25 -88 -18 -86 -19 -60 20 20 30 45 32 69 5z m365
-10 c0 -13 -5 -18 -15 -13 -9 3 -42 1 -73 -6 -31 -6 -104 -19 -162 -30 -121
-22 -352 -64 -490 -90 l-95 -17 0 -180 c0 -245 -18 -253 -25 -11 l-5 182 -40
-2 c-37 -1 -38 -1 -10 6 32 8 32 9 -40 36 -32 12 -34 14 -10 10 106 -18 134
-16 375 29 135 25 315 57 400 71 85 14 156 28 159 31 12 11 31 2 31 -16z
m-1290 -40 c0 -4 -25 0 -55 9 -30 9 -55 19 -55 22 0 4 25 -1 55 -9 30 -8 55
-18 55 -22z m642 -1 c17 -9 18 -13 7 -20 -19 -12 -76 -11 -84 1 -3 6 4 14 17
19 31 13 36 13 60 0z m1815 -14 c1 0 -3 -20 -10 -43 l-13 -42 -34 47 c-19 27
-36 51 -38 54 -2 5 84 -9 95 -16z m-2120 -11 c-3 -3 -12 -4 -19 -1 -8 3 -5 6
6 6 11 1 17 -2 13 -5z m40 -10 c-3 -3 -12 -4 -19 -1 -8 3 -5 6 6 6 11 1 17 -2
13 -5z m621 -91 c-3 -25 -9 -30 -70 -45 -36 -9 -81 -18 -100 -20 -31 -3 -33
-1 -33 26 0 29 2 31 75 47 41 9 88 17 103 18 25 1 28 -2 25 -26z m-778 -105
c70 -36 108 -105 96 -173 -7 -33 -58 -105 -76 -105 -4 0 -11 28 -15 63 -9 76
-25 97 -77 97 -61 0 -78 -14 -79 -63 -1 -23 -4 -53 -8 -66 l-6 -24 -32 31
c-42 43 -57 90 -44 139 29 106 139 152 241 101z m2770 -72 c0 -2 -8 -10 -17
-17 -16 -13 -17 -12 -4 4 13 16 21 21 21 13z"/>
<path d="M7780 3826 c0 -2 8 -10 18 -17 15 -13 16 -12 3 4 -13 16 -21 21 -21
13z"/>
<path d="M8208 3673 c6 -2 18 -2 25 0 6 3 1 5 -13 5 -14 0 -19 -2 -12 -5z"/>
<path d="M9122 3785 c-16 -13 -53 -30 -81 -36 -52 -11 -69 -29 -28 -29 32 0
143 39 156 54 8 10 7 17 -3 25 -11 9 -20 6 -44 -14z"/>
<path d="M9383 3794 c-5 -12 3 -25 26 -45 40 -33 138 -66 153 -51 7 7 -9 15
-48 27 -40 12 -69 28 -91 52 -29 30 -34 32 -40 17z"/>
<path d="M9065 3607 c-22 -18 -28 -32 -28 -63 0 -53 18 -84 48 -84 66 0 88
117 29 157 -20 13 -25 12 -49 -10z"/>
<path d="M9417 3590 c-45 -36 -44 -125 3 -150 17 -9 25 -6 50 19 63 62 14 183
-53 131z"/>
<path d="M9173 3470 c-39 -9 -60 -25 -68 -50 -3 -10 -19 -21 -35 -25 -15 -3
-49 -22 -74 -42 -40 -31 -51 -35 -87 -30 l-41 5 5 -33 c3 -18 13 -45 22 -59
23 -34 110 -76 159 -76 35 0 44 -5 58 -30 15 -27 20 -29 43 -20 43 16 117 12
157 -10 l38 -20 15 31 c16 30 18 30 65 24 72 -10 151 16 200 65 26 26 40 49
40 65 0 24 -2 25 -38 19 -43 -7 -84 9 -117 46 -27 30 -74 53 -107 52 -20 0
-28 4 -28 17 0 54 -115 93 -207 71z m136 -31 c32 -11 51 -35 51 -64 0 -24 -61
-45 -127 -45 -71 0 -103 19 -103 60 0 18 8 34 22 44 26 19 110 21 157 5z
m-186 -93 c27 -28 42 -35 91 -41 67 -9 123 5 151 35 30 33 67 25 136 -30 50
-40 70 -50 101 -50 21 0 38 -4 38 -8 0 -15 -55 -61 -92 -76 -78 -33 -219 -11
-282 44 l-33 29 -32 -23 c-97 -72 -239 -52 -294 42 l-19 32 40 0 c30 0 51 8
84 34 38 28 59 41 76 45 2 1 18 -14 35 -33z"/>
<path d="M9893 3400 c-23 -21 -39 -58 -29 -68 4 -3 13 4 22 16 20 29 32 28 46
-5 l12 -28 4 28 c2 16 -2 35 -9 43 -9 11 -8 14 10 14 11 0 21 5 21 10 0 18
-55 11 -77 -10z"/>
<path d="M8233 2994 c-7 -19 13 -149 28 -176 6 -10 18 -18 27 -16 21 4 56 175
40 196 -15 18 -87 16 -95 -4z"/>
<path d="M8258 2779 c-10 -5 -18 -20 -18 -33 0 -28 38 -49 63 -34 23 12 22 55
-2 68 -23 12 -22 12 -43 -1z"/>
<path d="M9863 2920 c-13 -5 -23 -14 -23 -21 0 -7 7 -8 18 -3 9 4 37 9 62 12
35 4 41 6 25 13 -26 10 -55 10 -82 -1z"/>
<path d="M9416 2773 c-38 -21 -64 -39 -58 -41 11 -3 95 37 127 62 35 27 3 17
-69 -21z"/>
<path d="M9291 2626 c-20 -24 -6 -48 26 -44 22 2 28 8 28 28 0 30 -35 40 -54
16z m43 -11 c3 -9 -1 -18 -10 -22 -19 -7 -28 2 -21 22 8 19 23 19 31 0z"/>
<path d="M9361 2041 c-13 -24 8 -55 34 -50 28 6 42 34 26 53 -18 22 -48 20
-60 -3z m48 -27 c-6 -7 -17 -10 -25 -7 -17 6 -18 15 -2 31 17 17 43 -5 27 -24z"/>
<path d="M9870 2019 c-41 -9 -113 -18 -159 -18 l-84 -1 6 -57 c4 -32 13 -81
22 -110 13 -42 21 -53 47 -62 69 -24 226 -3 271 37 9 8 17 26 17 39 0 33 -30
177 -38 184 -4 3 -41 -2 -82 -12z m91 -95 c13 -67 14 -92 6 -100 -39 -38 -214
-58 -267 -31 -20 10 -28 26 -42 87 -25 114 -31 105 75 107 50 1 115 9 142 17
28 8 54 13 59 12 6 -1 18 -42 27 -92z"/>
<path d="M9407 1844 c-25 -25 8 -70 43 -59 32 10 24 59 -10 63 -14 2 -29 0
-33 -4z m48 -24 c0 -8 -8 -16 -17 -18 -13 -2 -18 3 -18 18 0 15 5 20 18 18 9
-2 17 -10 17 -18z"/>
<path d="M9490 2265 c-13 -15 -7 -45 8 -45 15 0 44 38 37 49 -9 16 -30 14 -45
-4z"/>
<path d="M7076 2048 c-15 -56 0 -768 16 -768 4 0 8 178 8 395 0 358 -5 441
-24 373z"/>
<path d="M7431 1714 c-12 -15 -21 -34 -21 -44 0 -20 31 -50 52 -50 43 0 67 89
29 110 -29 15 -37 13 -60 -16z"/>
<path d="M7750 1525 c-21 -26 11 -82 41 -70 22 8 41 44 34 66 -8 23 -57 26
-75 4z"/>
<path d="M4090 4359 c-7 -11 -10 -23 -7 -25 2 -2 9 7 15 21 14 30 7 33 -8 4z"/>
<path d="M4302 4341 c26 -4 55 -13 65 -21 11 -8 8 -5 -5 8 -17 16 -34 22 -65
21 l-42 -2 47 -6z"/>
<path d="M4220 4315 c-13 -14 -29 -25 -37 -25 -7 0 -13 -6 -13 -13 0 -9 -13
-11 -42 -9 -60 6 -44 -4 19 -12 48 -6 52 -5 58 16 4 13 17 33 28 46 11 12 18
22 15 22 -2 0 -15 -11 -28 -25z"/>
<path d="M4072 4295 c0 -16 2 -22 5 -12 2 9 2 23 0 30 -3 6 -5 -1 -5 -18z"/>
<path d="M4522 4280 c-1 -25 -11 -63 -21 -83 -11 -22 -14 -33 -6 -27 23 19 36
66 32 111 l-4 44 -1 -45z"/>
<path d="M4391 4274 c0 -11 3 -14 6 -6 3 7 2 16 -1 19 -3 4 -6 -2 -5 -13z"/>
<path d="M4375 4239 c-4 -6 -5 -12 -2 -15 2 -3 7 2 10 11 7 17 1 20 -8 4z"/>
<path d="M4304 4184 c-18 -14 -18 -15 4 -4 12 6 22 13 22 15 0 8 -5 6 -26 -11z"/>
<path d="M4360 4159 c0 -5 -3 -8 -8 -5 -4 2 -7 -17 -7 -43 0 -47 0 -47 18 -25
9 13 27 26 39 30 16 5 18 8 7 15 -12 7 -11 9 1 9 9 1 5 6 -10 15 -30 17 -40
18 -40 4z"/>
<path d="M13119 3596 c18 -18 43 -56 57 -82 19 -41 23 -45 24 -23 0 29 -53
114 -80 129 -34 18 -34 10 -1 -24z"/>
<path d="M13214 3554 c5 -10 10 -36 13 -56 5 -35 23 -55 23 -25 0 25 -21 87
-32 93 -8 5 -9 1 -4 -12z"/>
<path d="M2810 3437 c0 -35 4 -47 15 -47 23 0 23 55 -1 80 -12 12 -14 8 -14
-33z"/>
<path d="M2670 3461 c-12 -8 -10 -17 16 -53 51 -73 85 -57 46 22 -18 37 -37
46 -62 31z"/>
<path d="M960 3284 l0 -154 113 0 112 0 2 30 2 30 -80 0 -80 0 3 33 c3 32 3
32 66 35 58 3 62 4 62 27 0 24 -3 25 -65 25 l-65 0 0 33 0 34 75 -5 75 -5 0
34 0 34 -110 1 -110 1 0 -153z"/>
<path d="M1240 3286 l0 -156 38 0 37 0 0 52 c0 70 18 70 65 1 33 -49 38 -52
78 -53 l42 0 -37 56 -37 56 21 16 c50 40 56 97 14 144 -28 31 -31 32 -125 36
l-96 4 0 -156z m158 78 c26 -18 28 -31 5 -56 -10 -11 -30 -18 -55 -18 -37 0
-38 1 -38 38 0 21 3 42 7 45 12 12 58 7 81 -9z"/>
<path d="M1548 3434 c-5 -4 -8 -74 -8 -156 l0 -148 40 0 40 0 0 55 c0 41 4 55
14 55 8 0 30 -25 48 -55 31 -53 34 -55 75 -55 l43 0 -35 54 -35 55 30 30 c45
44 38 118 -13 151 -24 15 -187 27 -199 14z m164 -76 c22 -36 -9 -70 -61 -66
-40 3 -48 19 -31 63 9 25 14 27 47 22 20 -4 40 -12 45 -19z"/>
<path d="M1915 3426 c-56 -25 -79 -60 -83 -129 -4 -76 18 -122 71 -150 73 -37
163 -18 211 46 31 42 30 140 -3 186 -41 56 -127 77 -196 47z m126 -82 c65 -69
-8 -181 -96 -148 -22 9 -45 57 -45 94 0 71 91 107 141 54z"/>
<path d="M2198 3434 c-16 -5 -18 -20 -18 -123 0 -65 3 -133 6 -150 6 -27 10
-31 40 -31 l34 0 0 55 c0 40 4 55 14 55 7 0 30 -25 50 -55 34 -52 39 -55 77
-55 44 0 44 -3 -4 68 -28 43 -29 44 -9 57 50 35 53 131 6 162 -26 16 -159 28
-196 17z m136 -64 c52 -19 22 -80 -40 -80 -34 0 -34 0 -34 45 0 41 2 45 24 45
14 0 36 -4 50 -10z"/>
<path d="M6720 3429 c-81 -24 -120 -97 -101 -185 38 -168 281 -160 306 10 6
37 3 55 -16 93 -13 26 -35 55 -49 65 -32 22 -95 30 -140 17z m105 -84 c54 -53
17 -158 -55 -158 -72 0 -109 105 -55 158 15 16 36 25 55 25 19 0 40 -9 55 -25z"/>
<path d="M5740 3280 l0 -150 115 0 115 0 0 30 c0 22 -4 28 -15 24 -9 -4 -45
-3 -80 1 -64 6 -65 7 -65 36 l0 29 70 0 70 0 0 30 0 30 -70 0 -70 0 0 30 0 30
80 0 80 0 0 30 0 30 -115 0 -115 0 0 -150z"/>
<path d="M6030 3280 l0 -150 35 0 35 0 0 50 c0 67 23 67 70 -3 32 -47 39 -52
73 -52 20 0 37 2 37 5 0 3 -14 25 -30 50 -16 25 -30 48 -30 52 0 4 11 19 25
34 41 45 29 130 -22 153 -13 6 -62 11 -108 11 l-85 0 0 -150z m154 84 c19 -7
21 -45 4 -62 -7 -7 -29 -12 -50 -12 -38 0 -38 0 -38 40 0 39 1 40 34 40 19 0
41 -3 50 -6z"/>
<path d="M6330 3280 l0 -150 35 0 35 0 0 50 c0 42 3 50 19 50 12 0 31 -19 51
-50 30 -46 35 -50 72 -50 l40 0 -23 38 c-13 20 -27 44 -32 53 -7 11 -1 23 22
46 33 34 37 52 20 102 -16 46 -53 61 -154 61 l-85 0 0 -150z m168 73 c6 -10 6
-28 1 -40 -7 -19 -16 -23 -54 -23 l-45 0 0 40 0 40 45 0 c32 0 47 -5 53 -17z"/>
<path d="M6970 3280 l0 -150 38 0 37 0 -3 50 c-4 44 -2 50 16 50 12 0 32 -18
53 -50 31 -44 38 -50 72 -50 20 0 37 2 37 5 0 3 -13 26 -30 52 l-29 48 27 28
c39 41 38 109 -1 143 -25 22 -37 24 -123 24 l-94 0 0 -150z m170 70 c19 -36
-3 -60 -55 -60 l-45 0 0 40 0 40 45 0 c34 0 47 -5 55 -20z"/>
<path d="M10850 3275 l0 -155 115 0 115 0 0 30 0 29 -77 3 -78 3 -3 33 -3 32
70 0 71 0 0 30 0 30 -70 0 -70 0 0 30 0 30 75 0 75 0 0 30 0 30 -110 0 -110 0
0 -155z"/>
<path d="M11132 3278 l3 -153 35 0 35 0 3 53 c4 68 19 67 67 -3 31 -44 44 -55
66 -55 41 0 43 13 10 66 l-30 46 29 30 c34 33 39 72 16 117 -21 39 -56 51
-152 51 l-85 0 3 -152z m159 82 c43 -23 5 -80 -53 -80 -34 0 -42 13 -34 56 6
30 11 34 37 34 17 0 39 -5 50 -10z"/>
<path d="M11440 3285 c0 -80 0 -148 0 -152 0 -5 15 -9 35 -11 l35 -3 0 55 c0
74 22 75 70 3 29 -42 41 -53 68 -55 39 -4 40 4 5 66 l-26 48 26 26 c19 19 27
37 27 63 0 78 -41 105 -160 105 l-80 0 0 -145z m160 70 c31 -37 -12 -82 -71
-73 -19 2 -22 9 -22 41 1 20 2 39 2 42 2 12 80 4 91 -10z"/>
<path d="M11794 3414 c-17 -8 -41 -33 -54 -56 -19 -33 -22 -50 -17 -96 7 -64
29 -100 78 -124 106 -55 229 18 229 134 0 58 -17 96 -60 132 -26 21 -41 26
-88 26 -31 0 -71 -7 -88 -16z m139 -73 c46 -45 20 -142 -43 -156 -42 -9 -76
15 -91 64 -27 89 69 156 134 92z"/>
<path d="M12080 3276 l0 -156 35 0 35 0 0 55 c0 73 22 73 73 0 35 -51 41 -55
77 -55 l39 0 -35 52 c-19 29 -34 56 -34 60 0 4 11 18 25 32 34 34 34 94 1 133
-23 26 -29 28 -120 31 l-96 4 0 -156z m158 82 c34 -34 -1 -82 -56 -76 -24 3
-27 8 -30 46 l-3 42 38 0 c22 0 44 -5 51 -12z"/>
<path d="M2883 3372 c-7 -4 19 -14 58 -23 75 -17 87 -15 37 5 -49 20 -82 26
-95 18z"/>
<path d="M2801 3327 c-29 -14 -34 -27 -21 -47 9 -13 14 -11 35 13 39 44 33 58
-14 34z"/>
<path d="M2587 3283 c-20 -20 -4 -33 39 -33 47 0 84 13 84 30 0 11 -113 14
-123 3z"/>
<path d="M8265 990 c-44 -22 -91 -54 -105 -69 -19 -22 -40 -31 -90 -41 -139
-25 -315 -71 -332 -87 -10 -9 -18 -29 -18 -45 0 -36 35 -51 99 -43 61 8 288
52 326 63 17 5 55 7 85 5 67 -5 312 48 350 76 29 21 37 69 19 112 -14 34 -71
54 -184 65 -68 6 -72 5 -150 -36z m133 3 c-10 -2 -28 -2 -40 0 -13 2 -5 4 17
4 22 1 32 -1 23 -4z m170 -29 c-3 -3 -65 -18 -136 -34 -72 -16 -134 -31 -139
-32 -4 -1 -23 7 -41 19 -40 25 -27 39 15 18 27 -13 39 -13 124 6 51 11 95 22
98 25 2 2 22 4 44 4 22 0 38 -3 35 -6z m-363 -104 c11 -18 -6 -50 -28 -55 -12
-2 -85 -18 -162 -34 -205 -43 -215 -45 -215 -27 0 8 -5 18 -10 21 -6 4 -9 1
-8 -6 2 -7 -5 -15 -14 -17 -12 -2 -18 3 -18 16 0 16 15 23 93 41 311 73 350
80 362 61z"/>
</g>
</svg>
