<?xml version="1.0" standalone="no"?>
<!DOCTYPE svg PUBLIC "-//W3C//DTD SVG 20010904//EN"
 "http://www.w3.org/TR/2001/REC-SVG-20010904/DTD/svg10.dtd">
<svg version="1.0" xmlns="http://www.w3.org/2000/svg"
 width="416.000000pt" height="434.000000pt" viewBox="0 0 416.000000 434.000000"
 preserveAspectRatio="xMidYMid meet">

<g transform="translate(0.000000,434.000000) scale(0.100000,-0.100000)"
fill="#000000" stroke="none">
<path d="M1406 4309 c-80 -13 -172 -65 -246 -138 -113 -112 -168 -232 -177
-388 l-6 -92 -62 67 c-38 41 -84 78 -117 95 -63 32 -171 57 -247 57 -112 0
-35 13 149 25 104 6 192 14 195 16 11 11 17 275 6 302 l-11 27 -333 0 c-184 0
-355 -3 -380 -6 -44 -6 -46 -8 -52 -48 -4 -22 -29 -162 -55 -311 -67 -379 -65
-354 -38 -364 13 -4 78 -23 145 -41 l122 -33 63 41 c58 38 70 42 127 42 56 0
66 -3 92 -29 60 -61 16 -135 -93 -155 -49 -9 -96 12 -131 58 -20 25 -36 36
-54 36 -15 0 -89 -21 -165 -47 l-138 -46 0 -51 c0 -64 37 -132 109 -199 86
-80 174 -107 354 -107 62 0 142 7 179 14 189 41 344 181 365 331 3 25 9 47 12
50 4 2 18 -19 31 -47 13 -27 55 -83 93 -124 83 -89 175 -139 285 -156 212 -33
441 84 545 278 l36 69 1 -46 c0 -28 6 -51 14 -58 8 -7 106 -21 218 -32 111
-11 223 -22 246 -25 l44 -5 -7 -85 -7 -84 26 -10 c15 -5 65 -13 112 -16 46 -4
84 -9 84 -11 0 -2 -10 -18 -22 -34 -21 -27 -23 -43 -23 -137 0 -112 -5 -130
-48 -170 l-25 -24 -96 18 -96 18 0 31 c0 107 -90 219 -203 253 -37 11 -81 32
-98 46 -17 15 -43 26 -60 26 -35 0 -69 -31 -69 -64 0 -15 -17 -45 -42 -73 -61
-70 -78 -115 -78 -203 0 -102 26 -160 70 -160 38 0 38 -8 -4 -49 -31 -30 -36
-32 -83 -25 -67 8 -113 -8 -156 -55 -43 -47 -61 -100 -54 -154 4 -32 16 -51
51 -85 25 -24 46 -51 46 -61 0 -9 -11 -32 -25 -51 -30 -41 -33 -92 -9 -165 34
-101 72 -165 100 -165 7 0 26 -19 42 -42 52 -76 206 -202 272 -223 14 -4 16
-14 12 -55 -7 -72 14 -100 74 -100 53 0 94 33 94 75 0 24 2 25 64 25 74 0 208
24 262 46 20 8 38 13 41 10 3 -3 0 -48 -6 -100 -16 -138 -15 -251 4 -266 12
-10 15 -43 15 -179 0 -161 14 -444 26 -527 l6 -41 -76 -42 c-42 -23 -97 -61
-122 -85 -42 -40 -45 -47 -42 -86 4 -53 31 -76 114 -96 114 -27 333 -10 418
32 16 8 52 14 81 14 38 0 61 6 86 23 31 21 34 27 31 68 -10 182 2 537 19 508
4 -9 37 -103 73 -210 61 -180 66 -200 66 -282 l0 -87 33 -20 c17 -11 46 -20
62 -20 17 0 55 -10 85 -21 144 -52 152 -54 280 -53 133 0 191 11 234 45 67 53
6 158 -134 229 -32 16 -61 34 -65 40 -8 12 -21 237 -31 512 l-7 197 48 23 48
23 -7 175 c-3 96 -11 213 -16 260 -6 47 -14 175 -19 285 -8 181 -11 206 -35
265 -31 76 -77 136 -157 204 l-58 48 31 49 c27 45 33 49 68 49 46 0 92 34 120
91 27 51 25 96 -5 155 -21 41 -24 58 -19 104 12 108 -26 179 -119 223 -30 14
-80 48 -112 76 -161 141 -401 189 -575 116 -104 -43 -102 -43 -98 -4 l3 34 77
3 76 3 6 72 c3 40 8 120 12 178 l6 106 -59 7 c-32 4 -63 10 -70 14 -9 6 -9 54
2 217 21 297 20 402 -3 414 -19 10 -171 26 -349 37 l-112 6 -29 -32 c-16 -17
-117 -148 -223 -290 -123 -165 -196 -255 -201 -247 -4 7 -8 26 -8 43 0 55 -38
183 -76 254 -44 84 -155 194 -235 234 -99 48 -220 64 -333 45z m190 -35 c72
-8 180 -68 249 -137 112 -113 165 -250 165 -434 0 -129 -12 -188 -61 -289
-124 -261 -404 -363 -659 -242 -73 35 -161 131 -209 228 -120 244 -78 583 94
755 113 113 221 143 421 119z m1173 -29 c101 -8 186 -17 189 -20 3 -3 -5 -145
-17 -316 -13 -170 -22 -312 -19 -314 2 -2 33 -8 68 -12 l65 -8 -3 -110 c-1
-61 -5 -125 -8 -142 l-5 -33 -74 0 -73 0 -7 -52 c-16 -135 -12 -132 -192 -123
l-135 8 6 97 7 96 -148 12 c-81 7 -199 15 -261 19 l-114 6 8 156 7 156 221
297 221 298 40 0 c22 0 123 -7 224 -15z m-1901 -127 l-3 -133 -200 -13 c-129
-8 -204 -17 -212 -25 -7 -7 -16 -27 -19 -46 -6 -29 -5 -33 12 -28 82 25 203
13 292 -28 68 -31 174 -133 207 -198 23 -46 25 -63 25 -172 0 -115 -2 -125
-30 -182 -78 -156 -236 -233 -485 -236 -137 -2 -201 13 -278 64 -46 30 -120
123 -145 181 -11 26 -10 29 26 47 78 39 245 96 249 84 3 -7 14 -24 25 -39 65
-82 234 -67 295 25 82 123 -90 233 -244 156 -28 -14 -58 -34 -67 -44 -16 -17
-21 -17 -138 15 -66 18 -123 36 -126 39 -3 3 15 125 41 273 25 147 49 290 52
317 4 28 8 56 10 63 3 9 84 12 360 12 l356 0 -3 -132z m2575 -962 c51 -25 114
-66 141 -91 l50 -45 -21 -22 c-53 -57 -58 -154 -13 -245 37 -75 57 -94 74 -72
16 22 50 39 79 39 63 0 100 -83 68 -155 -30 -67 -51 -79 -146 -84 -6 -1 -21
-21 -34 -46 -13 -25 -43 -63 -66 -84 -92 -85 -199 -115 -380 -108 -166 6 -177
12 -220 104 -19 42 -35 77 -35 79 0 12 51 1 73 -16 19 -15 40 -20 87 -20 35 0
80 -5 102 -12 34 -10 40 -9 57 9 14 15 34 20 82 22 76 3 114 18 158 64 43 45
37 67 -18 67 -32 0 -49 8 -93 45 -29 25 -64 49 -78 52 -13 3 -38 21 -55 39
-35 37 -83 50 -150 40 -35 -6 -51 -15 -71 -42 -15 -19 -34 -34 -44 -34 -9 0
-30 -10 -45 -22 -17 -13 -30 -18 -32 -11 -16 48 -54 102 -86 123 l-38 24 6 61
c9 89 25 166 42 198 21 42 82 106 128 135 83 53 129 63 263 59 l123 -4 92 -47z
m-638 -145 c-8 -17 -21 -59 -28 -93 -14 -71 -29 -82 -47 -37 -20 47 0 114 48
159 29 28 37 31 40 18 2 -9 -4 -31 -13 -47z m-691 19 c-5 -5 -29 -12 -54 -16
-42 -7 -44 -6 -30 10 8 10 23 22 35 26 23 9 62 -7 49 -20z m177 -72 c37 -27
109 -132 109 -160 0 -15 -8 -18 -48 -18 -97 0 -290 -66 -368 -125 -18 -14 -37
-25 -43 -25 -10 0 -31 85 -31 129 0 56 29 126 67 162 50 48 72 58 141 67 72
10 133 -1 173 -30z m1450 -4 c38 -37 51 -72 47 -135 l-3 -54 -50 -17 c-76 -25
-92 -23 -112 15 -24 46 -24 163 0 201 17 25 23 28 55 23 19 -4 48 -18 63 -33z
m-983 -171 c-2 -10 -13 -19 -26 -21 -24 -4 -29 7 -10 26 18 18 40 15 36 -5z
m-420 -50 c-15 -2 -42 -2 -60 0 -18 2 -6 4 27 4 33 0 48 -2 33 -4z m458 -19
c18 -9 39 -23 45 -31 8 -9 -3 -6 -31 8 -50 26 -100 28 -135 5 -14 -9 -25 -14
-25 -11 0 11 66 45 88 45 13 0 39 -7 58 -16z m-586 1 c0 -7 -57 -35 -72 -35
-20 1 32 40 53 40 10 0 19 -2 19 -5z m420 -63 c41 -18 86 -42 100 -53 14 -11
-7 -4 -46 16 -88 44 -183 65 -294 65 -162 0 -283 -48 -405 -161 -63 -59 -73
-65 -46 -31 40 51 116 110 187 146 92 46 147 56 294 53 127 -3 139 -5 210 -35z
m595 15 c32 -27 26 -51 -17 -66 -93 -33 -199 22 -138 71 34 27 121 25 155 -5z
m-1130 3 c-7 -11 -85 -53 -85 -46 0 4 81 56 88 56 2 0 0 -5 -3 -10z m403 -17
c-10 -2 -28 -2 -40 0 -13 2 -5 4 17 4 22 1 32 -1 23 -4z m25 -38 c193 -41 350
-201 392 -400 15 -72 20 -181 9 -209 -13 -35 -24 -12 -24 52 -1 149 -49 276
-145 380 -100 108 -214 162 -344 162 -244 0 -450 -167 -493 -400 -23 -120 17
-281 97 -389 84 -114 208 -180 355 -188 144 -8 254 27 374 121 32 25 62 46 67
46 39 0 -56 -84 -150 -134 -166 -87 -337 -87 -505 2 -126 66 -216 177 -251
308 -23 85 -21 234 3 311 78 248 347 395 615 338z m511 -14 c41 -45 170 -53
222 -12 33 26 50 22 123 -30 30 -22 65 -39 77 -39 36 0 37 -16 4 -44 -69 -58
-193 -56 -278 4 l-43 30 -49 -25 c-35 -18 -65 -25 -105 -25 -49 0 -60 4 -86
30 -17 16 -27 35 -23 41 7 12 123 89 134 89 4 0 15 -8 24 -19z m-484 -46 c57
-20 164 -91 204 -135 34 -37 76 -111 90 -156 6 -18 3 -21 -17 -17 -12 3 -56
-9 -97 -25 -41 -16 -119 -41 -172 -57 -94 -27 -99 -28 -118 -10 -10 9 -27 38
-36 64 -9 25 -32 82 -51 126 -19 44 -37 99 -40 122 -6 45 -34 80 -53 68 -19
-12 2 -133 52 -298 16 -54 26 -107 23 -117 -10 -31 4 -59 35 -75 39 -20 38
-20 96 23 39 29 82 47 176 75 69 20 132 37 141 37 8 0 29 11 46 25 l30 26 8
-48 c12 -70 10 -198 -3 -214 -7 -8 -15 -30 -19 -49 -10 -51 -70 -135 -125
-175 -151 -111 -371 -136 -526 -60 -84 41 -167 124 -209 208 l-36 72 45 5 c52
7 72 21 62 45 -5 13 -13 15 -32 11 -15 -4 -39 -10 -55 -13 l-29 -5 -1 63 c-3
145 1 172 36 245 63 129 207 234 348 254 74 10 175 3 227 -15z m-497 -10 c-12
-8 -45 -41 -74 -73 -29 -31 -42 -42 -29 -24 28 41 100 112 114 112 6 0 1 -7
-11 -15z m-310 -102 c-21 -21 -44 -47 -51 -58 -7 -11 -6 -6 2 11 9 18 29 43
46 58 46 38 47 32 3 -11z m1183 -65 c36 -72 28 -72 -10 0 -19 35 -38 69 -43
75 -4 7 0 4 11 -7 10 -12 29 -42 42 -68z m-1013 -3 c-9 -19 -18 -33 -21 -31
-4 5 26 66 33 66 3 0 -3 -16 -12 -35z m1763 -107 c130 -114 167 -193 166 -358
-1 -210 -80 -351 -218 -389 -45 -13 -273 -15 -292 -3 -10 7 -8 18 7 53 24 52
27 127 7 192 l-14 46 40 6 c49 9 143 -2 183 -19 42 -19 75 -28 75 -21 0 3 -21
19 -47 36 l-48 30 40 -6 c22 -4 49 -9 60 -11 20 -5 20 -5 1 10 -14 12 -42 16
-99 16 -92 0 -91 -13 -15 154 27 59 47 110 44 113 -10 10 -111 -173 -126 -227
-3 -14 -17 -31 -31 -37 -30 -16 -161 -17 -227 -2 -43 9 -50 14 -59 44 -10 32
-10 33 8 22 15 -9 22 -8 35 5 14 14 15 20 4 32 -17 21 -47 20 -59 -1 -9 -15
-10 -14 -11 10 0 15 -5 27 -12 27 -14 0 -58 40 -58 52 0 4 9 8 20 8 18 0 18 2
-5 36 -14 20 -25 49 -25 63 0 14 -3 37 -6 51 -2 14 4 3 16 -25 23 -56 69 -126
86 -132 6 -2 52 34 101 80 83 77 94 84 142 91 29 4 81 17 117 30 35 13 64 22
64 19 0 -7 -59 -118 -72 -135 -12 -16 -18 -16 -73 -3 -80 19 -106 19 -99 0 5
-11 -12 -23 -59 -44 -35 -16 -68 -34 -71 -40 -14 -22 31 -10 105 27 l75 38 56
-15 c30 -8 63 -11 72 -8 9 4 42 58 73 122 31 63 59 115 63 115 4 0 33 -23 66
-52z m-1805 -19 c-6 -24 -11 -84 -12 -134 -1 -78 -2 -84 -10 -47 -4 23 -10 46
-13 51 -3 5 -2 22 3 37 5 16 14 55 21 87 6 32 14 57 16 54 3 -2 0 -24 -5 -48z
m1369 -58 c6 -1 -113 -121 -121 -121 -7 0 -69 122 -69 137 0 6 152 -6 190 -16z
m-815 -86 c0 -5 -10 -11 -22 -13 -16 -2 -23 2 -23 13 0 11 7 15 23 13 12 -2
22 -7 22 -13z m-610 -22 c4 -12 -1 -24 -15 -35 -27 -22 -31 -22 -55 -4 -19 14
-19 15 -1 35 23 26 61 27 71 4z m24 -87 c29 -35 -60 -64 -93 -30 -30 29 -17
42 45 43 20 1 42 -5 48 -13z m1205 -64 c17 -10 42 -38 56 -63 14 -25 36 -59
48 -75 20 -25 23 -38 20 -87 -2 -31 -9 -62 -15 -68 -5 -5 -40 -15 -76 -21 -65
-11 -67 -10 -141 25 -102 48 -128 97 -40 77 49 -12 54 -12 54 -2 0 4 -22 18
-50 29 -35 15 -50 27 -50 40 0 30 8 33 58 17 91 -27 96 -9 6 25 -75 29 -65 46
26 45 63 -2 72 0 57 11 -10 7 -35 16 -55 20 -61 11 -81 39 -40 54 28 10 102
-4 142 -27z m111 8 c3 -5 2 -10 -4 -10 -5 0 -13 5 -16 10 -3 6 -2 10 4 10 5 0
13 -4 16 -10z m-1285 -29 c0 -27 -53 -47 -85 -33 -27 12 -33 37 -12 45 6 3 31
6 55 6 35 1 42 -2 42 -18z m25 -76 c0 -22 -30 -31 -71 -21 -35 9 -30 34 9 39
51 6 62 3 62 -18z m1406 -36 c19 -10 39 -81 39 -140 0 -56 -37 -129 -65 -129
-21 0 -122 27 -138 37 -5 3 2 11 15 17 32 16 51 78 45 146 -3 30 -8 63 -13 74
-6 17 -3 18 47 11 30 -4 61 -11 70 -16z m-1166 -166 c95 -49 158 -63 269 -63
142 0 233 29 353 111 49 34 63 37 37 8 -28 -31 -91 -66 -185 -101 -76 -28 -95
-32 -194 -32 -169 0 -263 31 -382 126 -67 53 -103 93 -103 113 0 7 33 -20 73
-60 43 -44 96 -84 132 -102z m1739 -158 c9 -93 17 -208 18 -255 l3 -84 -37
-18 c-144 -69 -363 -96 -630 -79 -215 14 -293 30 -433 89 l-110 47 3 50 c7
121 33 309 44 322 6 8 20 12 30 10 11 -3 18 0 18 10 0 10 10 4 29 -16 42 -45
89 -43 138 4 35 34 65 43 90 27 10 -6 10 -44 3 -172 -11 -176 -4 -345 12 -315
6 9 7 28 4 41 -6 23 12 425 19 432 2 2 16 -6 32 -18 19 -14 74 -30 154 -47
104 -21 144 -24 249 -21 105 3 133 7 172 26 56 28 113 88 141 151 l20 46 9
-30 c4 -16 14 -106 22 -200z m-976 145 c38 -24 40 -37 8 -51 -48 -22 -95 8
-81 52 8 24 32 24 73 -1z m-655 -129 c33 -13 43 -46 23 -76 -18 -27 -63 -34
-84 -13 -24 24 -7 98 23 98 7 0 25 -4 38 -9z"/>
<path d="M1421 3965 c-64 -58 -86 -120 -86 -250 0 -100 3 -115 29 -173 41 -88
72 -112 147 -112 54 0 62 3 101 38 60 54 79 106 85 226 11 202 -55 306 -192
306 -37 0 -51 -6 -84 -35z m173 -35 c48 -43 70 -113 70 -220 0 -66 -5 -96 -23
-135 -44 -98 -110 -136 -176 -101 -108 59 -129 342 -34 451 28 31 37 35 80 35
40 0 55 -5 83 -30z"/>
<path d="M2538 3767 c-132 -162 -132 -154 4 -156 l77 -1 5 33 c13 75 36 261
33 263 -2 2 -55 -61 -119 -139z m54 -67 c-6 -36 -12 -46 -30 -48 -53 -8 -55 5
-10 65 45 60 53 57 40 -17z"/>
<path d="M3031 2984 c-24 -13 -55 -24 -68 -24 -12 0 -23 -4 -23 -10 0 -14 37
-11 100 8 32 10 55 24 55 32 0 22 -17 20 -64 -6z"/>
<path d="M3270 2991 c0 -39 88 -95 138 -89 24 3 21 7 -29 30 -31 14 -60 31
-63 37 -10 16 -46 34 -46 22z"/>
<path d="M3095 2950 c-3 -5 -1 -10 4 -10 6 0 11 5 11 10 0 6 -2 10 -4 10 -3 0
-8 -4 -11 -10z"/>
<path d="M2986 2828 c-31 -44 -9 -128 33 -128 50 0 78 106 36 136 -27 20 -52
17 -69 -8z"/>
<path d="M3294 2809 c-24 -26 -25 -92 -2 -115 39 -39 99 21 83 83 -14 56 -47
69 -81 32z"/>
<path d="M3719 2631 c-28 -29 -37 -51 -21 -51 4 0 14 6 21 13 10 10 16 7 31
-13 l20 -25 0 37 c0 20 5 40 10 43 6 4 8 11 5 16 -11 17 -36 9 -66 -20z"/>
<path d="M2488 2495 c-6 -14 -8 -28 -4 -33 9 -8 36 26 36 45 0 22 -20 14 -32
-12z"/>
<path d="M2680 2395 c-13 -14 -20 -28 -17 -32 8 -7 57 35 57 49 0 15 -16 8
-40 -17z"/>
<path d="M2080 2390 c0 -13 49 -44 57 -36 9 8 -27 46 -44 46 -7 0 -13 -4 -13
-10z"/>
<path d="M1970 2211 c0 -11 25 -21 56 -21 30 0 31 16 2 24 -33 8 -58 7 -58 -3z"/>
<path d="M2770 2022 c0 -12 58 -27 67 -18 9 9 0 15 -35 22 -20 4 -32 2 -32 -4z"/>
<path d="M2680 1851 c0 -13 28 -33 41 -29 8 3 6 9 -5 21 -19 18 -36 22 -36 8z"/>
<path d="M2110 1825 c-13 -14 -20 -28 -17 -32 8 -7 57 35 57 49 0 15 -16 8
-40 -17z"/>
<path d="M2495 1760 c-9 -15 23 -80 39 -80 19 0 22 41 6 71 -11 20 -35 25 -45
9z"/>
<path d="M2302 1737 c-15 -35 -15 -47 -2 -47 14 0 22 24 18 52 -4 22 -5 22
-16 -5z"/>
<path d="M3254 1655 c-13 -20 -14 -28 -4 -40 28 -34 55 -12 45 35 -8 37 -19
38 -41 5z"/>
<path d="M2745 1438 c-12 -109 -6 -130 40 -152 22 -10 70 -21 107 -24 l66 -5
6 57 c18 174 18 172 5 159 -22 -22 -77 -15 -196 22 -20 6 -22 3 -28 -57z m71
23 c16 -6 54 -15 84 -21 l55 -10 -3 -81 -4 -80 -46 6 c-26 4 -67 17 -92 28
l-45 22 -3 73 c-3 78 -1 81 54 63z"/>
<path d="M3102 1468 c-29 -29 1 -68 42 -52 22 8 20 41 -3 54 -24 13 -24 13
-39 -2z m36 -29 c-2 -6 -8 -10 -13 -10 -5 0 -11 4 -13 10 -2 6 4 11 13 11 9 0
15 -5 13 -11z"/>
<path d="M3595 1428 c-12 -7 -76 -13 -160 -14 l-140 -3 -3 -74 c-3 -85 5 -100
66 -117 54 -15 171 -12 230 5 l52 16 0 84 c0 81 -5 115 -19 115 -3 0 -15 -6
-26 -12z m-82 -34 l107 6 0 -69 0 -70 -37 -8 c-21 -4 -74 -8 -118 -8 -44 0
-97 4 -117 8 l-38 8 0 73 0 73 48 -9 c26 -5 95 -7 155 -4z"/>
<path d="M3092 1268 c-30 -30 1 -73 36 -51 23 14 25 29 7 47 -20 19 -27 20
-43 4z m38 -22 c0 -11 -19 -15 -25 -6 -3 5 1 10 9 10 9 0 16 -2 16 -4z"/>
<path d="M2423 3011 c23 -32 47 -67 54 -77 11 -18 12 -18 12 2 2 39 -72 134
-103 134 -3 0 13 -26 37 -59z"/>
<path d="M2500 3005 c0 -24 24 -105 31 -105 13 0 11 36 -5 75 -13 30 -26 46
-26 30z"/>
<path d="M140 2715 l0 -155 115 0 115 0 0 29 c0 29 0 29 -71 33 -72 4 -89 13
-89 51 0 15 10 17 70 17 l70 0 0 30 0 30 -71 0 -70 0 3 28 c3 26 5 27 76 30
l72 3 0 29 0 30 -110 0 -110 0 0 -155z"/>
<path d="M420 2715 l0 -155 39 0 40 0 3 47 c2 25 8 48 14 50 7 2 28 -19 49
-47 29 -40 43 -50 65 -50 45 0 45 15 0 86 -12 20 -11 25 13 54 30 36 35 76 12
119 -19 38 -60 51 -156 51 l-79 0 0 -155z m168 72 c18 -19 6 -43 -30 -58 -51
-21 -74 11 -53 70 6 16 62 8 83 -12z"/>
<path d="M730 2715 l0 -155 34 0 c34 0 35 1 38 47 4 65 24 66 71 3 30 -40 43
-50 67 -50 36 0 37 7 6 68 l-24 47 24 28 c26 30 32 84 13 119 -17 31 -71 48
-154 48 l-75 0 0 -155z m159 70 c20 -19 5 -46 -31 -59 -42 -15 -58 -2 -58 45
l0 42 37 -6 c20 -4 44 -13 52 -22z"/>
<path d="M1105 2863 c-78 -21 -119 -139 -77 -223 52 -104 210 -109 272 -8 24
39 27 116 6 156 -28 54 -62 76 -124 78 -31 2 -66 0 -77 -3z m112 -85 c30 -28
31 -85 2 -122 -45 -58 -129 -18 -129 62 0 72 76 108 127 60z"/>
<path d="M1370 2716 l0 -156 34 0 c34 0 35 1 38 47 4 65 24 66 71 3 34 -45 41
-50 76 -50 l40 0 -34 56 -34 57 24 29 c34 40 34 97 1 135 -23 26 -29 28 -120
31 l-96 4 0 -156z m151 75 c20 -16 22 -23 13 -38 -15 -24 -61 -40 -74 -27 -6
6 -13 27 -17 47 -5 36 -5 37 25 37 16 0 40 -9 53 -19z"/>
</g>
</svg>
