<?xml version="1.0" encoding="UTF-8"?>
<svg id="Capa_2" data-name="Capa 2" xmlns="http://www.w3.org/2000/svg" viewBox="0 0 205.08 84.06">
  <defs>
    <style>
      .cls-1 {
        fill: #1d1d1b;
        font-family: BreeSerif-Regular, 'Bree Serif';
        font-size: 26px;
      }

      .cls-2 {
        letter-spacing: -.02em;
      }

      .cls-3 {
        stroke-width: 2px;
      }

      .cls-3, .cls-4 {
        fill: none;
        stroke: #db191a;
        stroke-miterlimit: 10;
      }

      .cls-4 {
        stroke-width: 3px;
      }
    </style>
  </defs>
  <g id="Capa_1-2" data-name="Capa 1">
    <path class="cls-4" d="M45.66,1.76c1.04-1.04,3.2,1.34,4.19,2.54,4.02,4.79,6.26,10.83,7.56,17.24,4.27,19.88-1.65,61.27-27.99,61.03-19.44-.14-31.47-13.16-27-32.72,1.18-4.79,3.89-9.4,7.85-12.74,5.01-4.4,13.91-7.92,19.46-5.3,2.01.9,4.87,2.56,4.43,5.07-.38,1.62-3,2.84-5.9,4.5-3.28,1.81-6.04,4.88-6.77,8.64-1.89,8.53,6.04,15.11,13.85,11.02,12.05-7.28,14.21-30.18,12.89-43.04-.36-3.5-1.22-6.95-2.19-10.3-.46-1.82-1.37-4.76-.43-5.9l.04-.04Z"/>
    <circle class="cls-3" cx="31.75" cy="51.5" r="6.75"/>
    <text class="cls-1" transform="translate(63.66 48.53)"><tspan class="cls-2" x="0" y="0">G</tspan><tspan x="16.15" y="0">uayaberas</tspan></text>
    <text class="cls-1" transform="translate(111.2 73.48)"><tspan x="0" y="0">JMJ</tspan></text>
  </g>
</svg>