<?xml version="1.0" standalone="no"?>
<!DOCTYPE svg PUBLIC "-//W3C//DTD SVG 20010904//EN"
 "http://www.w3.org/TR/2001/REC-SVG-20010904/DTD/svg10.dtd">
<svg version="1.0" xmlns="http://www.w3.org/2000/svg"
 width="580.000000pt" height="227.000000pt" viewBox="0 0 580.000000 227.000000"
 preserveAspectRatio="xMidYMid meet">

<g transform="translate(0.000000,227.000000) scale(0.100000,-0.100000)"
fill="#000000" stroke="none">
<path d="M1410 2141 c-17 -33 -11 -94 19 -214 55 -210 61 -372 26 -625 -56
-395 -265 -649 -455 -552 -86 44 -125 166 -83 261 29 66 66 103 151 155 114
70 132 89 132 140 0 133 -211 201 -403 130 -203 -74 -345 -221 -407 -421 -30
-95 -33 -301 -6 -390 32 -107 83 -190 161 -263 131 -122 262 -171 475 -179
127 -5 140 -4 215 21 98 33 166 78 247 165 108 116 189 278 243 487 70 274 74
650 10 888 -58 218 -192 416 -279 416 -25 0 -38 -6 -46 -19z m115 -113 c64
-75 119 -199 156 -353 25 -104 36 -385 20 -550 -36 -392 -201 -720 -416 -825
-93 -45 -142 -53 -273 -47 -274 12 -459 129 -545 345 -29 71 -31 86 -31 202 0
101 4 139 21 195 57 183 195 323 376 380 43 14 99 25 125 25 53 0 136 -35 167
-70 l20 -22 -28 -24 c-15 -13 -58 -41 -96 -64 -123 -71 -191 -177 -191 -295 0
-101 48 -186 133 -235 43 -25 63 -30 117 -30 182 1 329 168 415 474 59 212 60
645 0 821 -21 63 -29 115 -17 115 6 0 27 -19 47 -42z"/>
<path d="M3650 1375 c0 -16 6 -25 15 -25 13 0 15 -26 15 -173 0 -129 3 -178
13 -191 11 -15 31 -20 88 -23 86 -5 126 13 155 69 22 43 23 143 1 185 -28 52
-58 67 -127 60 l-60 -5 0 64 0 64 -50 0 c-47 0 -50 -2 -50 -25z m197 -160 c44
-31 39 -170 -7 -195 -25 -14 -63 -13 -78 2 -7 7 -12 43 -12 90 0 65 3 81 20
98 24 24 48 25 77 5z"/>
<path d="M1983 1369 c-83 -25 -130 -117 -120 -234 6 -78 37 -133 90 -158 45
-22 135 -22 187 -1 l40 16 0 64 c0 48 4 66 15 70 8 4 15 17 15 31 0 23 -2 24
-72 21 -67 -3 -73 -5 -76 -25 -3 -17 3 -24 22 -29 23 -5 26 -11 26 -49 0 -48
-9 -55 -71 -55 -74 0 -106 60 -97 182 4 53 8 65 37 90 28 25 39 29 79 26 43
-3 47 -5 52 -33 4 -23 11 -31 32 -33 18 -2 28 2 32 15 8 27 1 82 -11 94 -15
15 -140 21 -180 8z"/>
<path d="M2247 1274 c-12 -12 -8 -43 7 -51 10 -6 15 -37 18 -110 3 -91 6 -105
28 -128 18 -20 33 -25 70 -25 26 0 55 7 69 16 17 12 25 14 30 5 9 -15 57 -24
82 -16 25 8 24 42 -1 50 -18 6 -20 17 -22 133 l-3 127 -41 3 c-56 4 -76 -19
-45 -51 18 -20 21 -35 21 -99 0 -71 -2 -78 -26 -97 -15 -12 -35 -21 -44 -21
-34 0 -43 28 -49 148 l-6 117 -40 3 c-23 2 -44 0 -48 -4z"/>
<path d="M2695 1270 c-95 -39 -117 -235 -34 -294 30 -20 98 -21 127 0 20 14
24 14 38 0 20 -21 68 -20 85 0 11 14 10 19 -9 34 -20 17 -22 26 -22 134 0 116
0 117 -26 126 -30 12 -131 12 -159 0z m113 -129 c2 -62 -1 -89 -13 -107 -19
-29 -64 -32 -88 -6 -35 39 -30 140 10 184 12 13 27 18 52 16 l36 -3 3 -84z"/>
<path d="M2963 1273 c-18 -7 -16 -21 6 -49 15 -19 19 -41 19 -110 1 -75 4 -89
23 -110 27 -29 93 -33 139 -9 l30 16 0 -39 c0 -56 -30 -84 -83 -80 -32 2 -44
8 -52 26 -11 24 -50 31 -58 9 -8 -21 1 -69 14 -78 25 -15 106 -20 146 -10 51
14 83 49 94 103 4 24 8 104 9 179 0 154 -3 162 -67 157 -31 -2 -39 -7 -41 -26
-2 -13 3 -25 12 -28 13 -5 16 -22 16 -80 0 -80 -18 -114 -59 -114 -42 0 -51
25 -51 135 0 85 -3 104 -16 109 -18 7 -63 7 -81 -1z"/>
<path d="M3385 1261 c-40 -24 -63 -60 -71 -110 -10 -64 3 -126 36 -161 24 -25
35 -30 76 -30 31 0 54 6 67 17 18 17 19 17 28 0 14 -24 84 -24 94 0 4 12 -1
24 -14 35 -19 15 -21 27 -21 132 0 116 0 117 -26 126 -43 17 -136 12 -169 -9z
m123 -125 c3 -100 -9 -126 -59 -126 -48 0 -76 70 -59 146 11 49 43 76 84 72
l31 -3 3 -89z"/>
<path d="M4085 1270 c-52 -21 -85 -83 -85 -162 0 -98 47 -148 140 -148 65 0
110 22 103 50 -6 23 -17 25 -62 9 -40 -14 -84 2 -99 36 -13 28 -7 35 29 35 49
0 108 30 125 62 20 39 11 92 -19 113 -23 16 -99 19 -132 5z m93 -73 c3 -23 -2
-30 -33 -43 -49 -20 -71 -15 -67 16 4 37 32 61 66 58 26 -2 32 -8 34 -31z"/>
<path d="M4301 1266 c-10 -12 -8 -19 8 -35 18 -18 21 -33 21 -116 0 -76 -3
-96 -16 -103 -9 -5 -14 -18 -12 -28 3 -17 12 -19 78 -19 69 0 75 2 78 21 2 16
-4 23 -22 28 -25 6 -26 9 -26 90 0 64 4 88 16 100 22 23 55 20 61 -5 9 -32 57
-22 61 13 6 47 -13 68 -60 68 -25 0 -49 -7 -61 -17 -18 -17 -19 -17 -28 0 -12
21 -81 23 -98 3z"/>
<path d="M4665 1270 c-95 -39 -117 -235 -34 -294 30 -20 98 -21 127 0 20 14
24 14 38 0 20 -21 68 -20 85 0 12 15 11 19 -9 32 -21 14 -22 21 -22 133 0 119
0 120 -26 129 -30 12 -131 12 -159 0z m113 -134 c3 -100 -9 -126 -59 -126 -48
0 -76 67 -60 140 13 59 37 82 80 78 l36 -3 3 -89z"/>
<path d="M4980 1263 c-35 -24 -40 -33 -40 -79 0 -49 18 -68 85 -92 57 -20 75
-43 55 -67 -9 -11 -25 -15 -49 -13 -29 2 -37 8 -39 26 -3 17 -10 22 -33 22
-27 0 -29 -2 -29 -40 0 -50 17 -60 104 -60 55 0 69 4 95 26 26 21 31 33 31 69
0 50 -26 78 -89 95 -52 14 -63 24 -59 51 2 20 10 25 41 27 32 3 38 0 47 -22
10 -28 29 -33 48 -14 19 19 14 55 -10 72 -31 22 -126 21 -158 -1z"/>
<path d="M1043 1124 c-93 -46 -130 -153 -84 -242 23 -46 46 -67 94 -87 48 -20
93 -19 143 4 97 44 133 162 78 256 -21 36 -39 53 -78 71 -65 30 -90 30 -153
-2z m152 -48 c40 -26 59 -64 58 -116 -1 -78 -53 -130 -131 -130 -79 0 -133 52
-134 130 -1 108 118 174 207 116z"/>
<path d="M3082 758 c2 -15 11 -24 26 -26 22 -3 22 -6 22 -141 0 -152 -5 -165
-57 -159 -24 2 -28 8 -31 36 -3 29 -6 33 -30 30 -25 -3 -27 -7 -30 -55 -2 -42
0 -54 15 -61 58 -29 145 -18 181 23 21 24 22 35 22 170 0 134 1 145 20 155 11
6 20 20 20 30 0 18 -7 20 -81 20 -78 0 -80 -1 -77 -22z"/>
<path d="M3280 761 c0 -11 9 -25 20 -31 13 -7 19 -18 16 -28 -2 -9 -8 -74 -11
-144 -6 -114 -9 -128 -27 -133 -13 -5 -18 -14 -16 -28 3 -19 11 -22 52 -25 88
-6 125 19 76 50 -17 11 -20 24 -20 98 0 94 12 132 28 90 57 -149 75 -191 83
-196 6 -3 20 -3 32 0 17 4 30 26 54 88 18 46 38 97 44 113 l13 30 7 -50 c4
-27 8 -76 8 -108 1 -51 -2 -60 -20 -64 -14 -4 -19 -12 -17 -27 3 -19 9 -21 73
-21 64 0 70 2 73 22 2 14 -3 23 -16 27 -16 6 -20 20 -25 104 -12 171 -10 199
14 205 13 4 20 12 17 24 -3 15 -14 19 -64 21 l-61 3 -33 -88 c-52 -137 -70
-177 -77 -169 -4 4 -28 62 -53 129 l-45 122 -63 3 c-56 3 -62 1 -62 -17z"/>
<path d="M3890 756 c0 -18 6 -25 23 -28 21 -3 22 -7 25 -131 3 -148 -4 -170
-51 -165 -28 3 -32 7 -35 36 -3 29 -6 33 -30 30 -25 -3 -27 -7 -30 -55 -2 -42
0 -54 15 -61 58 -29 145 -18 181 23 21 24 22 35 22 170 0 134 1 145 20 155 11
6 20 20 20 30 0 18 -7 20 -80 20 -78 0 -80 -1 -80 -24z"/>
</g>
</svg>
